<?xml version="1.0" standalone="no"?>
<!DOCTYPE svg PUBLIC "-//W3C//DTD SVG 1.1//EN" "http://www.w3.org/Graphics/SVG/1.1/DTD/svg11.dtd" >
<svg xmlns="http://www.w3.org/2000/svg" xmlns:xlink="http://www.w3.org/1999/xlink" version="1.1">
<metadata>
Created by FontForge 20170910 at Mon Aug 25 17:43:48 2008
 By Jimmy Wärting
KhmerOS - font for the Khmer language of Cambodia
Copyright 2008 Danh Hong
 
This font is free software; you can redistribute it and/or modify it under the terms of the GNU Lesser General Public License as published by the Free Software Foundation; either version 2.1 of the License, or (at your option) any later version.

This library is distributed in the hope that it will be useful, but WITHOUT ANY WARRANTY; without even the implied warranty of MERCHANTABILITY or FITNESS FOR A PARTICULAR PURPOSE.? See the GNU Lesser General Public License for more details.

You should have received a copy of the GNU Lesser General Public License along with this font; if not, write to the Free Software Foundation, Inc., 51 Franklin Street, Fifth Floor, Boston, MA 02110-1301  USA or visit http://www.gnu.org/licenses/lgpl.html
</metadata>
<defs>
<font id="Kh-Content" horiz-adv-x="0" >
  <font-face 
    font-family="Kh Content"
    font-weight="400"
    font-stretch="normal"
    units-per-em="2048"
    panose-1="2 0 5 0 0 0 0 2 0 4"
    ascent="1638"
    descent="-410"
    x-height="1140"
    cap-height="1500"
    bbox="-3150 -1200 4760 2500"
    underline-thickness="48"
    underline-position="-188"
    unicode-range="U+0020-25CC"
  />
<missing-glyph horiz-adv-x="1536" 
d="M256 0v1280h1024v-1280h-1024zM288 32h960v1216h-960v-1216z" />
    <glyph glyph-name="uni17D2_uni1780.liga" unicode="&#x17d2;&#x1780;" 
d="M-700 -200q-105 0 -177.5 -35t-72.5 -115v-300h-150v300q0 130 110 190t290 60t290 -60t110 -190v-300h-150v300q0 80 -72.5 115t-177.5 35z" />
    <glyph glyph-name="uni17D2_uni1781.liga" unicode="&#x17d2;&#x1781;" 
d="M-700 -650q-200 0 -300 47q-100 46 -100 138q0 78 67 87l315 45q136 18 200 50q65 30 65 67q0 38 -62 56q-61 19 -185 19q-166 0 -206 -29q-44 -32 -44 -110q-150 0 -150 92q0 69 100 104q100 34 300 34t300 -42q100 -43 100 -129q0 -76 -87 -126q-87 -51 -261 -74
l-303 -42q0 -47 63 -70q62 -24 188 -24q125 0 188 28q62 27 62 79h150q0 -79 -100 -139q-100 -61 -300 -61z" />
    <glyph glyph-name="uni17D2_uni1782.liga" unicode="&#x17d2;&#x1782;" 
d="M-950 -500l101 100q100 100 149 100q100 0 100 -75t-100 -75q-50 0 -150 -100l-100 -100h-150v300q0 130 110 190t290 60t290 -60t110 -190v-300h-150v300q0 80 -72.5 115t-177.5 35t-177.5 -35t-72.5 -115v-150z" />
    <glyph glyph-name="uni17D2_uni1784.liga" unicode="&#x17d2;&#x1784;" 
d="M-800 -650q-150 0 -225 62q-75 63 -75 188q0 100 37 150q38 50 113 50q50 0 75 -25t25 -50t-25 -25t-50 -25t-25 -75q0 -55 37 -92q38 -38 113 -38q77 0 146 31t114 84t77 147q32 93 40 143t30 62.5t53 12.5q40 0 40 -60q-13 -90 -50 -202q-37 -113 -100 -188t-150 -112
q-87 -38 -200 -38z" />
    <glyph glyph-name="uni17D2_uni1785.liga" unicode="&#x17d2;&#x1785;" 
d="M-830 -130q0 79 75 79t75 -79q0 -69 -45 -137q-45 -69 -112 -117q-68 -48 -163 -81q0 -43 37 -64q38 -21 113 -21q60 0 119 29q60 29 119 86l50 49q-88 34 -88 116q0 70 37 104q38 35 113 35q65 0 97 -35q33 -34 33 -104q0 -18 -16 -46h36q27 0 100 37q0 -93 -102 -130
h-48q-13 0 -25.5 0.5t-23.5 1.5q-13 -17 -28.5 -36t-32.5 -40q-70 -83 -155 -125t-185 -42q-150 0 -225 46t-75 139q0 95 50 101q105 14 159 50t83 98q28 61 28 86zM-470 -270q6 12 6 21q0 22 -36 22q-50 0 -50 -43q0 -28 55 -38q18 22 25 38z" />
    <glyph glyph-name="uni17D2_uni1786.liga" unicode="&#x17d2;&#x1786;" 
d="M-900 -100v-210h50q100 0 175 -102l75 -73q50 -65 100 -65t75 38q25 37 25 113v100h-37q-32 0 -47.5 20t-15.5 54q0 27 100 125h150v-299q0 -126 -63 -188q-62 -63 -187 -63q-100 0 -175 102l-75 73q-50 65 -100 65h-50v-120q0 -120 -75 -120t-125 100q-50 80 -50 140
q0 50 25 75t75 25v210h150z" />
    <glyph glyph-name="uni17D2_uni1787.liga" unicode="&#x17d2;&#x1787;" 
d="M-510 -650q-41 0 -94 26q-53 27 -107 80l-37 35l-39 -35q-60 -54 -110 -80t-91 -26q-110 0 -160 93t-50 198q0 119 50 189t150 70q50 0 50 -50t-50 -50q-25 0 -37 -45q-13 -45 -13 -114q0 -55 12.5 -108t67.5 -53q35 0 220 148q178 -148 230 -148q44 0 56.5 48t13.5 74
q-12 -1 -24.5 -1.5t-25.5 -0.5q-75 0 -113 38q-37 37 -37 112t37 112q38 38 113 38q80 0 128 -45t64 -134q59 21 72 21q33 0 33 -43q0 -35 -50 -55q-11 -4 -22.5 -8t-24.5 -8v-8q0 -85 -51 -178q-50 -92 -161 -92zM-498 -200q-25 0 -37 -12q-13 -13 -13 -38q0 -50 48 -50h37
q11 0 12 1q-11 99 -47 99z" />
    <glyph glyph-name="uni17D2_uni1789.liga" unicode="&#x17d2;&#x1789;" 
d="M-230 -300q0 -150 -67 -225q-68 -75 -203 -75q-113 0 -197 36t-139 109q-79 103 -139 154q-62 51 -105 51q-53 0 -90 -22q-37 -23 -60 -68v50q0 50 38 95q37 45 112 45q99 0 191 -55t177 -166q49 -65 103 -97q52 -32 109 -32q60 0 90 50t30 150q0 50 -25 75t-75 25
q0 50 25 75t75 25q75 0 113 -50q37 -50 37 -150z" />
    <glyph glyph-name="uni17D2_uni178A.liga" unicode="&#x17d2;&#x178a;" 
d="M-950 -470v-67q50 19 50 46q0 21 -50 21zM-1100 -350q0 130 110 190t290 60t290 -60t110 -190v-300h-150v300q0 80 -72.5 115t-177.5 35t-177.5 -35t-72.5 -115v-20q75 0 113 -30q37 -30 37 -90q0 -70 -75 -115t-150 -45t-75 75v225z" />
    <glyph glyph-name="uni17D2_uni178B.liga" unicode="&#x17d2;&#x178b;" 
d="M-500 -119q0 34 25 52q25 17 75 17t75 -35q25 -34 25 -103v-376q0 -43 -27 -64q-26 -22 -80 -22l-276 146l-113 -110q-38 -36 -59 -36t-49 40l-170 236q-25 34 -25 93q0 57 88 69q91 12 164 18q74 5 137 5h261q-26 1 -38 19q-13 17 -13 51zM-450 -301h-273q-60 0 -116 -5
q-55 -5 -110 -16l110 -158l140 116l249 -106v169z" />
    <glyph glyph-name="uni17D2_uni178C.liga" unicode="&#x17d2;&#x178c;" 
d="M-950 -221q70 0 70 -31q0 -35 -35 -66t-110 -31t-75 65v53q0 53 85 117t135 64t180 -96q130 96 180 96t135 -64t85 -125q0 -56 -65 -96q-64 -39 -196 -74l-389 -103q50 -21 125 -21q74 0 186 19t189 98l150 24v-197q0 -43 -25 -64q-25 -22 -175 -22q50 43 50 86v42
q-89 -50 -202 -76.5t-248 -26.5q-100 0 -150 35t-50 104q0 75 67 91l449 113q67 20 101 42q33 21 33 46q0 31 -27 45q-28 13 -51 13q-24 0 -172 -114q-156 114 -179 114t-47 -14t-24 -46z" />
    <glyph glyph-name="uni17D2_uni178E.liga" unicode="&#x17d2;&#x178e;" 
d="M-2250 -450v-77q50 29 50 56q0 21 -50 21zM-1399 -452l-168 -144q-63 -54 -118 -53q-125 0 -125 94v225q0 80 -57.5 105t-162.5 25t-162.5 -25t-57.5 -105v-20q75 0 113 -30q37 -30 37 -90q0 -70 -75 -125t-180 -55q-75 0 -75 75v245q0 130 110 180t290 50t290 -50
t110 -180v-144l230 190l230 -190v144q0 130 110 180t290 50t290 -50t110 -180v-320h-180v320q0 80 -57.5 105t-162.5 25t-162.5 -25t-57.5 -105v-225q0 -94 -125 -94q-55 -1 -117 53z" />
    <glyph glyph-name="uni17D2_uni178F.liga" unicode="&#x17d2;&#x178f;" 
d="M-950 -470v-67q50 19 50 46q0 21 -50 21zM-1100 -350q0 130 110 190t290 60t290 -60t110 -190v-300h-150v300q0 80 -72.5 115t-177.5 35t-177.5 -35t-72.5 -115v-20q75 0 113 -30q37 -30 37 -90q0 -70 -75 -115t-150 -45t-75 75v225z" />
    <glyph glyph-name="uni17D2_uni1790.liga" unicode="&#x17d2;&#x1790;" 
d="M-1200 -400q0 125 88 212q87 88 262 88q164 0 282 -84q116 -83 169 -183q52 -100 97 -141q46 -42 102 -42q0 -100 -50 -100q-100 0 -166 46t-109 146t-127 179t-198 79q-100 0 -150 -62q-50 -63 -50 -138t38 -112q37 -38 112 -38q0 -50 -25 -75t-75 -25q-100 0 -150 62
q-50 63 -50 188z" />
    <glyph glyph-name="uni17D2_uni1791.liga" unicode="&#x17d2;&#x1791;" 
d="M-700 -142q0 46 25 69t75 23t75 -23t25 -69q0 -45 -54 -113t-175 -130q-121 -63 -201 -82q49 -59 129 -59q102 0 219 97q117 96 131 159q10 40 32 59t54 19q65 0 65 -46v-318q0 -46 -49 -69q-48 -25 -146 -25q45 48 45 94v80q-101 -101 -181 -137q-81 -37 -170 -37
q-124 0 -212 46q-87 43 -87 131q0 103 50 118q200 60 300 114.5t100 76.5t-50 22z" />
    <glyph glyph-name="uni17D2_uni1792.liga" unicode="&#x17d2;&#x1792;" 
d="M-472 -142q-17 -64 -74 -114q-64 -56 -136 -96l50 -24l69 -26q12 -4 23 -5q41 -4 68 38q26 41 36 128q8 72 -36 99zM-965 -489q-4 -33 17 -43.5t69 -16.5q47 -6 79 9t38 67l7 72q-47 -23 -99 -44q-52 -22 -111 -44zM-467 -100q26 41 70 37q43 -5 81 -54q32 -39 32 -104
q0 -16 -3 -35q-16 -141 -71 -205q-55 -65 -150 -55q-19 2 -41.5 8.5t-47.5 14.5l-66 20q-11 -97 -63 -140q-43 -35 -114 -35q-16 0 -34 1q-129 14 -189 61q-52 41 -52 107q0 10 1 20q8 71 60 91q170 33 289 90q118 55 156 120q38 64 -12 69q5 39 74 39q75 0 80 -50z" />
    <glyph glyph-name="uni17D2_uni1793.liga" unicode="&#x17d2;&#x1793;" 
d="M-879 -540q-148 0 -222 48t-74 143q0 84 75 136q75 51 225 51h350v26q0 86 75 86t75 -86v-26h150v-112h-150v-124q50 0 75 -29q25 -28 25 -106q0 -59 -31 -88q-32 -29 -94 -29t-94 36q-31 34 -31 104l-300 -28h-27q-8 -1 -14.5 -1.5t-12.5 -0.5zM-1025 -349q0 -30 33 -55
q32 -25 117 -25q23 0 50 3l300 28v124h-350q-85 0 -117 -23q-33 -24 -33 -52z" />
    <glyph glyph-name="uni17D2_uni1795.liga" unicode="&#x17d2;&#x1795;" 
d="M-450 -254v58q-40 -22 -40 -42q0 -16 40 -16zM-1100 -561v461h150v-387l250 189l250 -189v156q-65 0 -103 23q-37 22 -37 69q0 53 70 96t145 43t75 -58v-403q0 -87 -95 -87q-55 0 -117 49l-188 148l-187 -148q-63 -49 -118 -49q-95 0 -95 87z" />
    <glyph glyph-name="uni17D2_uni1796.liga" unicode="&#x17d2;&#x1796;" 
d="M-942 -475v-75q41 0 41 50q0 12 -11 19q-10 6 -30 6zM-942 -375q63 0 94 -31q31 -32 31 -94q0 -150 -125 -150q-158 0 -158 100v200q0 92 83 171q82 79 135 79q44 0 183 -104q139 104 183 104q52 0 134 -79t82 -171v-300h-157v300q0 64 -43 117q-43 52 -199 -118
q-157 170 -200 118q-43 -53 -43 -117v-25z" />
    <glyph glyph-name="uni17D2_uni1797.liga" unicode="&#x17d2;&#x1797;" 
d="M-1150 -491q0 -27 50 -46v67q-50 0 -50 -21zM-950 -350v-225q0 -75 -75 -75t-150 45t-75 115q0 60 37 90q38 30 113 30v20q0 130 110 190t290 60t290 -60t110 -190v-300h-150v300q0 80 -72.5 115t-177.5 35t-177.5 -35t-72.5 -115z" />
    <glyph glyph-name="uni17D2_uni1798.liga" unicode="&#x17d2;&#x1798;" 
d="M-999 -494q-100 0 -151 48q-50 49 -50 146q0 50 37 75q38 25 133 25v-80q0 -36 23 -58q22 -23 67 -23h10q9 0 10 1l370 40v220h150v-220q100 0 150 -52.5t50 -127.5t-44 -112q-43 -38 -131 -38t-131 50q-44 50 -44 150l-390 -40h-3q-15 -1 -29 -2.5t-27 -1.5zM-320 -500
q0 50 -80 50q0 -80 39 -80h1q40 0 40 30z" />
    <glyph glyph-name="uni17D2_uni179A.liga" unicode="&#x17d2;&#x179a;" horiz-adv-x="580" 
d="M380 -350q0 -150 200 -150t200 150v250h180v-250q0 -250 -380 -250t-380 250v1313q0 106 -200 168q20 101 95.5 235t129.5 134q44 0 115 -43l70 -43q47 -29 120 -14q-10 -70 -40.5 -114.5t-82 -50t-145 52t-156.5 -99.5q274 -88 274 -168v-1370z" />
    <glyph glyph-name="uni17D2_uni179B.liga" unicode="&#x17d2;&#x179b;" 
d="M-1241 -436q0 153 75 245q75 91 225 91q120 0 202 -64q82 -65 126 -195q42 -99 82.5 -128.5t79.5 -29.5t79.5 94.5t62.5 208.5q21 114 97 114q53 0 53 -65q0 -29 -11 -72q-35 -137 -111 -274q-77 -138 -162 -138q-110 0 -183 54t-109 162q-38 121 -89.5 171.5
t-116.5 50.5q-75 0 -112.5 -58.5t-37.5 -166.5q0 -92 50 -92t50 61q50 0 75 -22q25 -23 25 -69t-38 -69q-37 -23 -112 -23q-100 0 -150 46t-50 168z" />
    <glyph glyph-name="uni17D2_uni179C.liga" unicode="&#x17d2;&#x179c;" 
d="M-800 -650q-150 0 -225 51q-75 50 -75 148q0 124 90 125q90 0 232.5 59t327.5 217q150 0 150 -150q0 -207 -139 -328q-140 -122 -361 -122zM-510 -254q-105 -77 -215 -126t-215 -71q0 -35 38 -58q37 -23 102 -23q140 0 238 94t110 227l-5 -3l-26 -20t-27 -20z" />
    <glyph glyph-name="uni17D2_uni17A0.liga" unicode="&#x17d2;&#x17a0;" 
d="M-975 -450q0 -50 25 -75t75 -25t75 25t25 75v150q0 100 62 150q63 50 188 50t188 -50q62 -50 62 -150v-350h-150v350q0 50 -25 75t-75 25t-75 -25t-25 -75v-150q0 -100 -62 -150q-63 -50 -188 -50t-188 50q-62 50 -62 150v350h150v-350z" />
    <glyph glyph-name="uni17D2_uni17A2.liga" unicode="&#x17d2;&#x17a2;" 
d="M-1140 -525q0 75 80 75v220q0 30 -30 30q-50 0 -50 50t55 50q175 0 175 -130v-60h500v60q0 30 -30 30q-50 0 -50 50t55 50q175 0 175 -130v-320q0 -100 -75 -100t-115 39.5t-40 85.5q0 75 80 75v60h-500v-160q0 -100 -75 -100t-115 39.5t-40 85.5z" />
    <glyph glyph-name="uni17B7_uni17CD.liga" unicode="&#x17b7;&#x17cd;" 
d="M-1000 1994h500q-97 77 -178 99.5t-172 22.5q-150 0 -150 -122zM-306 1998q56 -57 56 -98q0 -50 -100 -50h-650q-144 0 -144 144q0 256 294 256q125 0 248 -51q8 56 42 102q45 59 175 59q127 0 175 -59q76 25 141 69q64 43 106 115l11 2q19 0 42 -29q15 -20 15 -34
t-12 -24q-45 -63 -105 -113q-61 -49 -136 -86q-36 -11 -70 -11q-74 70 -137 70q-45 0 -72 -28q-28 -29 -28 -66q0 -28 11 -55l28 -20q71 2 71 18q0 31 70 31t70 -31q0 -59 -44 -89q-20 -14 -57 -22z" />
    <glyph glyph-name=".notdef" horiz-adv-x="1536" 
d="M256 0v1280h1024v-1280h-1024zM288 32h960v1216h-960v-1216z" />
    <glyph glyph-name="glyph1" 
 />
    <glyph glyph-name="glyph2" horiz-adv-x="569" 
 />
    <glyph glyph-name="space" unicode=" " horiz-adv-x="569" 
 />
    <glyph glyph-name="space" unicode="&#xa0;" horiz-adv-x="569" 
 />
    <glyph glyph-name="exclam" unicode="!" horiz-adv-x="872" 
d="M612 1493v-692l-40 -457h-70l-40 457v692h150zM622 213v-213h-172v213h172z" />
    <glyph glyph-name="quotedbl" unicode="&#x22;" horiz-adv-x="727" 
d="M106 1452h190v-227l-55 -275h-80l-55 275v227zM434 1452h190v-227l-55 -275h-80l-55 275v227z" />
    <glyph glyph-name="numbersign" unicode="#" horiz-adv-x="1138" 
d="M993 1427l-74 -401h190v-139h-217l-63 -357h215v-139h-240l-80 -431h-155l77 431h-253l-80 -431h-156l78 431h-207v139h233l64 357h-221v139h248l73 401h156l-74 -401h256l72 401h158zM737 887h-254l-66 -357h256z" />
    <glyph glyph-name="dollar" unicode="$" horiz-adv-x="1138" 
d="M501 1577h121v-111q258 -18 354 -209q39 -77 43 -174v-20h-161q-2 158 -119 227q-41 23 -90 31q-13 2 -27 2v-510q205 -63 268 -98q174 -99 174 -316q0 -213 -139 -338q-22 -20 -49 -36q-100 -59 -254 -72v-211h-121v211q-315 21 -403 260q-33 94 -27 213h162
q14 -152 43 -201q4 -6 8 -14q72 -98 217 -117v557q-190 58 -258 107q-145 104 -145 299q0 299 286 385q54 16 117 24v111zM501 829v492q-196 -27 -231 -182q-6 -29 -6 -62q0 -184 237 -248zM622 633v-539q125 15 188 76q86 82 86 205q0 125 -96 186q-59 37 -178 72z" />
    <glyph glyph-name="percent" unicode="%" horiz-adv-x="1820" 
d="M407 1403q172 0 277 -135l37 -58q36 -75 36 -161q0 -162 -129 -267q-96 -80 -219 -80q-166 0 -272 129q-78 99 -78 222q0 166 129 272q96 78 219 78zM407 1260q-110 0 -172 -95l-24 -47q-11 -33 -11 -65q0 -109 92 -172q54 -35 117 -35q111 0 172 92q35 51 35 113
q0 116 -98 178q-49 31 -111 31zM1247 1452h135l-809 -1492h-135zM1409 659q174 0 278 -135q72 -94 72 -217q0 -162 -129 -266q-96 -79 -219 -79q-166 0 -273 128q-78 98 -78 221q0 166 132 271q96 77 217 77zM1409 516q-111 0 -172 -92q-35 -51 -35 -113q0 -112 96 -174
q51 -33 113 -33q110 0 172 93q35 51 35 110q0 117 -99 178l-47 21q-31 10 -63 10z" />
    <glyph glyph-name="ampersand" unicode="&#x26;" horiz-adv-x="1366" 
d="M1009 684h164q0 -192 -119 -375l250 -309h-223l-127 160q-100 -99 -158 -133q-115 -74 -270 -74q-238 0 -352 168q-68 100 -68 239q0 166 106 275q74 74 226 162q-144 180 -162 278q-4 27 -4 55q0 158 133 254q94 68 217 68q184 0 279 -135l30 -57q19 -43 23 -93
q2 -18 2 -37q0 -141 -113 -241q-59 -53 -170 -115l273 -334q65 115 63 244zM583 883q166 104 197 180q14 31 14 72q0 106 -92 153q-39 21 -86 21q-123 0 -164 -103q-12 -32 -12 -73q0 -68 51 -140zM856 281l-328 409q-193 -123 -234 -225q-16 -41 -16 -90q0 -133 111 -211
q71 -51 157 -51q138 0 277 133q16 16 33 35z" />
    <glyph glyph-name="quotesingle" unicode="'" horiz-adv-x="391" 
d="M98 1452h193v-227l-56 -275h-82l-55 275v227z" />
    <glyph glyph-name="parenleft" unicode="(" horiz-adv-x="1146" 
d="M584 1493h112q-253 -410 -278 -879q-2 -43 -2 -84q0 -477 250 -912q14 -27 30 -52h-112q-232 303 -307 696q-27 139 -27 268q0 367 190 734q64 125 144 229z" />
    <glyph glyph-name="parenright" unicode=")" horiz-adv-x="1146" 
d="M563 -434h-113q254 410 279 878q2 43 2 84q0 478 -250 914q-15 26 -31 51h113q231 -303 307 -696q26 -140 26 -269q0 -366 -190 -732q-63 -125 -143 -230z" />
    <glyph glyph-name="asterisk" unicode="*" horiz-adv-x="1321" 
d="M696 1493h129l-10 -229l217 77l39 -120l-222 -62l144 -182l-105 -74l-127 191l-129 -191l-102 74l141 182l-221 62l39 120l217 -77z" />
    <glyph glyph-name="plus" unicode="+" horiz-adv-x="1196" 
d="M1093 547v-144h-424v-423h-143v423h-424v144h424v424h143v-424h424z" />
    <glyph glyph-name="comma" unicode="," horiz-adv-x="569" 
d="M178 213h215v-245q0 -269 -215 -269v78q88 4 109 68q14 39 14 119v36h-123v213z" />
    <glyph glyph-name="hyphen" unicode="-" horiz-adv-x="681" 
d="M581 639v-147h-487v147h487z" />
    <glyph glyph-name="hyphen" unicode="&#xad;" horiz-adv-x="681" 
d="M581 639v-147h-487v147h487z" />
    <glyph glyph-name="period" unicode="." horiz-adv-x="569" 
d="M391 213v-213h-213v213h213z" />
    <glyph glyph-name="slash" unicode="/" horiz-adv-x="569" 
d="M469 1493h113l-485 -1533h-113z" />
    <glyph glyph-name="zero" unicode="0" horiz-adv-x="1166" 
d="M583 1500q495 0 495 -750t-495 -750t-495 750t495 750zM583 1350q-345 0 -345 -600t345 -600t345 600t-345 600z" />
    <glyph glyph-name="one" unicode="1" horiz-adv-x="952" 
d="M431 1172h-205v95q212 0 242 233h113v-1350h205v-150h-560v150h205v1022z" />
    <glyph glyph-name="two" unicode="2" horiz-adv-x="1129" 
d="M889 1053q0 297 -315 297t-315 -297h-150q0 447 465 447t465 -447q0 -312 -382 -476l-191 -83q-207 -85 -207 -344h780v-150h-930v150q0 358 307 489l191 82q282 122 282 332z" />
    <glyph glyph-name="three" unicode="3" horiz-adv-x="1143" 
d="M562 861q285 0 285 245q0 244 -285 244t-285 -244h-150q0 394 435 394t435 -392q0 -220 -136 -317q166 -103 166 -360q0 -431 -465 -431t-465 433h150q0 -283 315 -283t315 283q0 282 -315 282h-78v146h78z" />
    <glyph glyph-name="four" unicode="4" horiz-adv-x="1091" 
d="M698 1231l-477 -712h477v712zM698 1500h150v-981h192v-150h-192v-369h-150v369h-658v150z" />
    <glyph glyph-name="five" unicode="5" horiz-adv-x="1146" 
d="M1039 500q0 -500 -437 -500q-428 0 -478 397h150q50 -247 328 -247q287 0 287 350t-277 350q-202 0 -288 -128h-145l70 778h720v-178h-585l-37 -373q107 51 265 51q427 0 427 -500z" />
    <glyph glyph-name="six" unicode="6" horiz-adv-x="1082" 
d="M243 573q43 -423 307 -423q315 0 315 325t-315 325q-263 0 -307 -227zM550 0q-465 0 -465 750t515 750q415 0 415 -352h-150q0 202 -265 202q-328 0 -361 -486q113 86 311 86q465 0 465 -475t-465 -475z" />
    <glyph glyph-name="seven" unicode="7" horiz-adv-x="1103" 
d="M1029 1350l-533 -1350h-161l534 1350h-770v150h930v-150z" />
    <glyph glyph-name="eight" unicode="8" horiz-adv-x="1078" 
d="M539 1350q-285 0 -285 -250t285 -250t285 250t-285 250zM539 700q-315 0 -315 -275t315 -275t315 275t-315 275zM237 780q-133 98 -133 320q0 400 435 400t435 -400q0 -222 -133 -320q163 -103 163 -355q0 -425 -465 -425t-465 425q0 252 163 355z" />
    <glyph glyph-name="nine" unicode="9" horiz-adv-x="1082" 
d="M839 927q-43 423 -307 423q-315 0 -315 -325t315 -325q263 0 307 227zM532 1500q465 0 465 -750t-515 -750q-415 0 -415 352h150q0 -202 265 -202q328 0 361 486q-113 -86 -311 -86q-465 0 -465 475t465 475z" />
    <glyph glyph-name="colon" unicode=":" horiz-adv-x="569" 
d="M438 213v-213h-213v213h213zM438 1073v-213h-213v213h213z" />
    <glyph glyph-name="semicolon" unicode=";" horiz-adv-x="569" 
d="M440 1073v-213h-213v213h213zM225 213h215v-245q0 -269 -215 -269v78q88 4 109 68q14 39 14 119v36h-123v213z" />
    <glyph glyph-name="semicolon" unicode="&#x37e;" horiz-adv-x="569" 
d="M440 1073v-213h-213v213h213zM225 213h215v-245q0 -269 -215 -269v78q88 4 109 68q14 39 14 119v36h-123v213z" />
    <glyph glyph-name="less" unicode="&#x3c;" horiz-adv-x="1196" 
d="M92 406v141l1001 424v-162l-806 -330l806 -336v-161z" />
    <glyph glyph-name="equal" unicode="=" horiz-adv-x="1196" 
d="M1093 723v-143h-991v143h991zM1093 371v-144h-991v144h991z" />
    <glyph glyph-name="greater" unicode="&#x3e;" horiz-adv-x="1196" 
d="M1103 547v-141l-1001 -424v161l807 330l-807 336v162z" />
    <glyph glyph-name="question" unicode="?" horiz-adv-x="1585" 
d="M968 408h-184v112q0 103 57 178q35 45 107 113q14 12 49 43q151 135 153 270q0 144 -125 205l-63 21q-35 8 -74 8q-168 0 -229 -119q-35 -70 -35 -201h-174q0 216 92 335q93 119 277 140q39 5 80 5q258 0 372 -170l33 -62q31 -74 31 -162q0 -143 -105 -264
q-39 -47 -100 -102q-129 -119 -150 -174q-12 -31 -12 -80v-96zM968 213v-213h-184v213h184z" />
    <glyph glyph-name="at" unicode="@" horiz-adv-x="2078" 
d="M1361 1026h170l-184 -573q-25 -72 -25 -103q0 -55 60 -82q20 -8 43 -8q131 0 239 148q105 145 105 323q0 246 -199 428q-203 189 -491 201h-31q-301 0 -533 -209l-69 -70q-203 -231 -203 -522q0 -289 215 -487q221 -205 553 -205q162 0 395 66l58 -137q-230 -86 -463 -86
q-369 0 -637 219q-250 204 -289 505q-6 47 -6 94q0 316 195 582q57 80 129 143q221 201 530 252q76 13 152 13q340 0 591 -207q238 -193 275 -469q6 -43 6 -86q0 -248 -176 -457q-156 -182 -381 -182q-197 0 -225 157q-135 -147 -291 -147q-168 0 -264 141q-70 101 -70 234
q0 223 162 395q158 170 364 172q172 0 250 -178zM1054 938q-135 0 -237 -145q-93 -129 -93 -293q0 -138 97 -207q49 -35 106 -35q119 0 209 133q68 98 100 271q9 45 11 79q6 111 -84 168q-50 29 -109 29z" />
    <glyph glyph-name="A" unicode="A" horiz-adv-x="1222" 
d="M847 597l-236 685l-236 -685h472zM694 1500l518 -1500h-159l-154 447h-576l-154 -447h-159l518 1500h166z" />
    <glyph glyph-name="B" unicode="B" horiz-adv-x="1257" 
d="M311 710v-560h400q170 0 255 70t85 210t-85 210t-255 70h-400zM661 860q170 0 255 61q85 62 85 184q0 123 -85 184t-255 61h-350v-490h350zM161 1500h500q245 0 368 -99q122 -98 122 -296q0 -104 -34 -181t-103 -127q94 -50 140 -142q47 -92 47 -225q0 -215 -122 -322
q-123 -108 -368 -108h-550v1500z" />
    <glyph glyph-name="C" unicode="C" horiz-adv-x="1253" 
d="M676 0q-300 0 -450 188q-150 187 -150 562t150 563q150 187 450 187q188 0 317 -73q129 -74 199 -221l-129 -82q-53 121 -150 181q-96 60 -237 60q-225 0 -337 -154q-113 -153 -113 -461q0 -307 113 -461q112 -154 337 -154q148 0 247 67q100 66 150 199l136 -68
q-66 -166 -200 -250q-133 -83 -333 -83z" />
    <glyph glyph-name="D" unicode="D" horiz-adv-x="1325" 
d="M661 1350h-350v-1200h300q245 0 368 150q122 150 122 450t-110 450t-330 150zM1251 750q0 -375 -160 -562q-160 -188 -480 -188h-450v1500h500q295 0 443 -187q147 -188 147 -563z" />
    <glyph glyph-name="E" unicode="E" horiz-adv-x="1278" 
d="M311 723v-573h890v-150h-1040v1500h1020v-150h-870v-477h840v-150h-840z" />
    <glyph glyph-name="F" unicode="F" horiz-adv-x="1216" 
d="M311 873h759v-150h-759v-723h-150v1500h1019v-150h-869v-477z" />
    <glyph glyph-name="G" unicode="G" horiz-adv-x="1308" 
d="M1050 425v183h-376v150h526v-758h-150v134q-143 -134 -389 -134q-292 0 -439 188q-146 187 -146 562t146 563q147 187 439 187q364 0 501 -290l-140 -67q-106 207 -361 207q-217 0 -326 -150t-109 -450t109 -450t326 -150q294 0 389 275z" />
    <glyph glyph-name="H" unicode="H" horiz-adv-x="1378" 
d="M311 693v-693h-150v1500h150v-657h756v657h150v-1500h-150v693h-756z" />
    <glyph glyph-name="I" unicode="I" horiz-adv-x="656" 
d="M253 1350h-150v150h450v-150h-150v-1200h150v-150h-450v150h150v1200z" />
    <glyph glyph-name="J" unicode="J" horiz-adv-x="941" 
d="M570 1350h-155v150h450v-150h-145v-950q0 -400 -331 -400q-332 0 -332 380h150q0 -230 182 -230q181 0 181 250v950z" />
    <glyph glyph-name="K" unicode="K" horiz-adv-x="1231" 
d="M1036 0l-538 805l-187 -179v-626h-150v1500h150v-667l693 667h217l-613 -589l608 -911h-180z" />
    <glyph glyph-name="L" unicode="L" horiz-adv-x="1030" 
d="M311 150h709v-150h-859v1500h150v-1350z" />
    <glyph glyph-name="M" unicode="M" horiz-adv-x="1616" 
d="M808 225l-435 1275h-212v-1500h150v1218l416 -1218h162l416 1218v-1218h150v1500h-212z" />
    <glyph glyph-name="N" unicode="N" horiz-adv-x="1393" 
d="M311 1267v-1267h-150v1500h188l733 -1265v1265h150v-1500h-187z" />
    <glyph glyph-name="O" unicode="O" horiz-adv-x="1322" 
d="M661 1500q293 0 439 -187q146 -188 146 -563t-146 -562q-146 -188 -439 -188q-292 0 -439 188q-146 187 -146 562t146 563q147 187 439 187zM661 1350q-217 0 -326 -150t-109 -450t109 -450t326 -150q218 0 326 150q109 150 109 450t-109 450q-108 150 -326 150z" />
    <glyph glyph-name="P" unicode="P" horiz-adv-x="1239" 
d="M1191 1090q0 -205 -124 -307q-123 -103 -371 -103h-385v-680h-150v1500h535q248 0 371 -102q124 -103 124 -308zM311 830h385q173 0 259 65t86 195t-86 195t-259 65h-385v-520z" />
    <glyph glyph-name="Q" unicode="Q" horiz-adv-x="1334" 
d="M1017 348q79 147 79 402q0 300 -109 450q-108 150 -326 150q-217 0 -326 -150t-109 -450t109 -450t326 -150q160 0 261 81l-248 181l88 122zM1053 136q-143 -136 -392 -136q-292 0 -439 188q-146 187 -146 562t146 563q147 187 439 187q293 0 439 -187q146 -188 146 -563
q0 -313 -102 -495l184 -134l-88 -121z" />
    <glyph glyph-name="R" unicode="R" horiz-adv-x="1252" 
d="M311 830h385q173 0 259 65t86 195t-86 195t-259 65h-385v-520zM1076 0l-328 681q-26 -1 -52 -1h-385v-680h-150v1500h535q248 0 371 -102q124 -103 124 -308q0 -156 -72 -253t-216 -134l339 -703h-166z" />
    <glyph glyph-name="S" unicode="S" horiz-adv-x="1204" 
d="M615 1500q498 0 498 -400h-150q0 250 -348 250t-348 -203q0 -204 243 -255l244 -53q389 -83 389 -440q0 -399 -528 -399t-528 500h150q0 -350 378 -350t378 249q0 250 -273 309l-244 53q-359 73 -359 386q0 353 498 353z" />
    <glyph glyph-name="T" unicode="T" horiz-adv-x="1076" 
d="M464 1350h-454v150h1056v-150h-452v-1350h-150v1350z" />
    <glyph glyph-name="U" unicode="U" horiz-adv-x="1386" 
d="M693 0q-550 0 -550 500v1000h150v-1000q0 -350 400 -350t400 350v1000h150v-1000q0 -500 -550 -500z" />
    <glyph glyph-name="V" unicode="V" horiz-adv-x="1222" 
d="M1053 1500h159l-518 -1500h-166l-518 1500h159l442 -1282z" />
    <glyph glyph-name="W" unicode="W" horiz-adv-x="1999" 
d="M1079 1500l377 -1283l376 1283h157l-441 -1500h-185l-363 1236l-364 -1236h-185l-441 1500h157l377 -1283l376 1283h159z" />
    <glyph glyph-name="X" unicode="X" horiz-adv-x="1258" 
d="M629 619l-428 -619h-183l520 751l-518 749h183l426 -616l426 616h183l-517 -749l519 -751h-183z" />
    <glyph glyph-name="Y" unicode="Y" horiz-adv-x="1212" 
d="M531 631l-521 869h175l421 -703l421 703h175l-521 -869v-622h-150v622z" />
    <glyph glyph-name="Z" unicode="Z" horiz-adv-x="1193" 
d="M930 1350h-854v150h1041v-150l-853 -1200h853v-150h-1041v150z" />
    <glyph glyph-name="bracketleft" unicode="[" horiz-adv-x="665" 
d="M176 1500h381v-150h-231v-1634h231v-150h-381v1934z" />
    <glyph glyph-name="backslash" unicode="\" horiz-adv-x="752" 
d="M215 1500l485 -1533h-163l-485 1533h163z" />
    <glyph glyph-name="bracketright" unicode="]" horiz-adv-x="665" 
d="M339 1350h-231v150h381v-1934h-381v150h231v1634z" />
    <glyph glyph-name="asciicircum" unicode="^" horiz-adv-x="1046" 
d="M446 1500h150l317 -778h-141l-250 614l-248 -614h-141z" />
    <glyph glyph-name="underscore" unicode="_" horiz-adv-x="1197" 
d="M1213 -241v-135h-1229v135h1229z" />
    <glyph glyph-name="grave" unicode="`" horiz-adv-x="681" 
d="M220 1516l223 -304h-123l-275 304h175z" />
    <glyph glyph-name="a" unicode="a" horiz-adv-x="1115" 
d="M819 620q-87 -36 -225 -55q-187 -26 -281 -87t-94 -157q0 -85 55 -128t165 -43q107 0 202 54t178 161v255zM69 850q0 145 113 218q112 72 337 72t338 -77q112 -78 112 -233v-830h-150v186q-83 -93 -178 -139q-95 -47 -202 -47q-185 0 -277 80q-93 81 -93 241
q0 156 125 250q124 95 373 127q252 34 252 92v40q0 80 -75 120t-225 40t-225 -35t-75 -105h-150z" />
    <glyph glyph-name="b" unicode="b" horiz-adv-x="1115" 
d="M296 0h-150v1500h150v-527q96 167 300 167q450 0 450 -570t-450 -570q-204 0 -300 167v-167zM296 570q0 -197 76.5 -308.5t223.5 -111.5q300 0 300 420t-300 420q-147 0 -223.5 -111t-76.5 -309z" />
    <glyph glyph-name="c" unicode="c" horiz-adv-x="1031" 
d="M901 143q-119 -143 -357 -143q-237 0 -356 143q-119 142 -119 427t119 428q119 142 356 142q238 0 357 -142q23 -29 42 -64l-131 -76q-10 17 -20 31q-78 101 -248 101t-247 -101q-78 -101 -78 -319q0 -217 78 -318q77 -102 247 -102t248 102q31 40 49 100l145 -44
q-30 -98 -85 -165z" />
    <glyph glyph-name="d" unicode="d" horiz-adv-x="1115" 
d="M819 167q-96 -167 -300 -167q-450 0 -450 570t450 570q204 0 300 -167v527h150v-1500h-150v167zM519 990q-300 0 -300 -420t300 -420q147 0 223.5 111.5t76.5 308.5q0 198 -76.5 309t-223.5 111z" />
    <glyph glyph-name="e" unicode="e" horiz-adv-x="1083" 
d="M219 545q5 -198 78 -293q77 -102 247 -102t248 102q31 41 50 101h156q-29 -128 -97 -210q-119 -143 -357 -143q-237 0 -356 142.5t-119 427.5t119 427.5t356 142.5q238 0 356.5 -142.5t118.5 -427.5v-25h-800zM861 695q-16 125 -69 194q-78 101 -248 101t-247 -101
q-54 -69 -70 -194h634z" />
    <glyph glyph-name="f" unicode="f" horiz-adv-x="501" 
d="M179 1140v110q0 250 342 250v-135q-192 0 -192 -115v-110h162v-150h-162v-990h-150v990h-140v150h140z" />
    <glyph glyph-name="g" unicode="g" horiz-adv-x="1115" 
d="M519 990q-300 0 -300 -420t300 -420q147 0 223.5 111.5t76.5 308.5q0 198 -76.5 309t-223.5 111zM819 130v37q-96 -167 -300 -167q-450 0 -450 570t450 570q204 0 300 -167v167h150v-1010q0 -490 -430 -490q-370 0 -450 275l125 20q70 -145 325 -145q280 0 280 340z" />
    <glyph glyph-name="h" unicode="h" horiz-adv-x="1184" 
d="M898 0v710q0 280 -260 280q-137 0 -238.5 -121t-101.5 -169v-700h-150v1500h150v-557q156 197 340 197q410 0 410 -430v-710h-150z" />
    <glyph glyph-name="i" unicode="i" horiz-adv-x="424" 
d="M137 1350v150h150v-150h-150zM287 1140v-1140h-150v1140h150z" />
    <glyph glyph-name="j" unicode="j" horiz-adv-x="474" 
d="M187 1350v150h150v-150h-150zM10 -360v150q177 0 177 160v1190h150v-1190q0 -310 -327 -310z" />
    <glyph glyph-name="k" unicode="k" horiz-adv-x="1054" 
d="M296 632l502 508h211l-469 -474l504 -666h-188l-422 558l-138 -140v-418h-150v1500h150v-868z" />
    <glyph glyph-name="l" unicode="l" horiz-adv-x="450" 
d="M300 1500v-1500h-150v1500h150z" />
    <glyph glyph-name="m" unicode="m" horiz-adv-x="1732" 
d="M946 700v-700h-150v710q0 280 -220 280q-137 0 -208.5 -121t-71.5 -169v-700h-150v1140h150v-197q136 197 310 197q247 0 314 -232l26 35q136 197 310 197q340 0 340 -440v-700h-150v710q0 280 -220 280q-137 0 -208.5 -121t-71.5 -169z" />
    <glyph glyph-name="n" unicode="n" horiz-adv-x="1184" 
d="M898 0v710q0 280 -260 280q-137 0 -238.5 -121t-101.5 -169v-700h-150v1140h150v-197q156 197 340 197q410 0 410 -430v-710h-150z" />
    <glyph glyph-name="o" unicode="o" horiz-adv-x="1084" 
d="M867 570q0 218 -77 319q-78 101 -248 101t-247 -101q-78 -101 -78 -319q0 -217 78 -318q77 -102 247 -102t248 102q77 101 77 318zM67 570q0 285 119 428q119 142 356 142q238 0 357 -142q118 -143 118 -428t-118 -427q-119 -143 -357 -143q-237 0 -356 143
q-119 142 -119 427z" />
    <glyph glyph-name="p" unicode="p" horiz-adv-x="1115" 
d="M296 973q96 167 300 167q450 0 450 -570t-450 -570q-204 0 -300 167v-527h-150v1500h150v-167zM596 150q300 0 300 420t-300 420q-147 0 -223.5 -111.5t-76.5 -308.5q0 -198 76.5 -309t223.5 -111z" />
    <glyph glyph-name="q" unicode="q" horiz-adv-x="1115" 
d="M819 1140h150v-1500h-150v527q-96 -167 -300 -167q-450 0 -450 570t450 570q204 0 300 -167v167zM819 570q0 197 -76.5 308.5t-223.5 111.5q-300 0 -300 -420t300 -420q147 0 223.5 111t76.5 309z" />
    <glyph glyph-name="r" unicode="r" horiz-adv-x="676" 
d="M656 990q-147 0 -253.5 -121t-106.5 -169v-700h-150v1140h150v-197q166 197 360 197v-150z" />
    <glyph glyph-name="s" unicode="s" horiz-adv-x="1026" 
d="M77 361h150q0 -211 300 -211t300 200q0 107 -192 157l-160 39q-368 89 -368 304q0 290 420 290t420 -322h-150q0 172 -270 172t-270 -140q0 -107 261 -174l160 -39q299 -72 299 -287q0 -350 -450 -350t-450 361z" />
    <glyph glyph-name="t" unicode="t" horiz-adv-x="566" 
d="M192 990h-161v150h161v360h150v-360h209v-150h-209v-700q0 -140 209 -140v-150q-359 0 -359 290v700z" />
    <glyph glyph-name="u" unicode="u" horiz-adv-x="1184" 
d="M286 1140v-710q0 -280 260 -280q137 0 238.5 121t101.5 169v700h150v-1140h-150v197q-156 -197 -340 -197q-410 0 -410 430v710h150z" />
    <glyph glyph-name="v" unicode="v" horiz-adv-x="929" 
d="M756 1140h157l-368 -1140h-161l-368 1140h157l291 -898z" />
    <glyph glyph-name="w" unicode="w" horiz-adv-x="1448" 
d="M724 844l-220 -844h-191l-297 1140h155l238 -909l237 909h156l238 -909l237 909h155l-297 -1140h-191z" />
    <glyph glyph-name="x" unicode="x" horiz-adv-x="941" 
d="M471 433l-283 -433h-178l372 570l-372 570h178l283 -433l282 433h178l-371 -570l371 -570h-178z" />
    <glyph glyph-name="y" unicode="y" horiz-adv-x="1023" 
d="M492 266l353 874h162l-607 -1500h-162l169 418l-391 1082h159z" />
    <glyph glyph-name="z" unicode="z" horiz-adv-x="1071" 
d="M982 990l-732 -840h762v-150h-953v150l732 840h-702v150h893v-150z" />
    <glyph glyph-name="braceleft" unicode="{" horiz-adv-x="635" 
d="M60 600q111 23 135.5 67.5t24.5 215.5v342q0 209 145 256q37 12 78 12h94v-93q-182 0 -182 -149v-399q0 -271 -145 -322q145 -51 145 -322v-399q0 -149 182 -149v-93h-94q-41 0 -78 12q-145 47 -145 256v342q0 171 -24.5 215.5t-135.5 67.5v140z" />
    <glyph glyph-name="bar" unicode="|" horiz-adv-x="766" 
d="M308 1500h150v-1860h-150v1860z" />
    <glyph glyph-name="braceright" unicode="}" horiz-adv-x="635" 
d="M575 460q-111 -23 -135.5 -67.5t-24.5 -215.5v-342q0 -209 -145 -256q-37 -12 -78 -12h-94v93q182 0 182 149v399q0 271 145 322q-145 51 -145 322v399q0 149 -182 149v93h94q41 0 78 -12q145 -47 145 -256v-342q0 -171 24.5 -215.5t135.5 -67.5v-140z" />
    <glyph glyph-name="asciitilde" unicode="~" horiz-adv-x="1200" 
d="M800 250q-149 0 -224 125l-38 63q-38 62 -138 62q-99 0 -99 -100v-150h-151v151q0 249 247 249h3q149 0 226 -125l37 -62q37 -63 138 -63q99 0 99 100v150h150v-150q0 -249 -250 -250z" />
    <glyph glyph-name="uni1780" unicode="&#x1780;" horiz-adv-x="1400" 
d="M200 900q100 200 500 200t500 -200v-900h-180v860q-60 120 -320 120t-320 -120v-860h-180v900zM151.5 1088.5q-51.5 48.5 -51.5 117.5t234 294q210 0 393 -174q189 174 236 174q86 0 185 -91q98 -91 152 -38q0 -83 -33 -140q-34 -57 -91 -57t-249 148q-70 1 -266 -177
q-110 104 -183.5 139t-143.5 40l-100 -94q18 -107 129 -162l-78 -39q-82 11 -133.5 59.5z" />
    <glyph glyph-name="uni1781" unicode="&#x1781;" horiz-adv-x="1400" 
d="M380 1025v-75q56 0 56 50q0 25 -56 25zM1200 300q0 -300 -500 -300t-500 300v267q820 313 820 483v150q0 180 -320 180t-320 -180v-75q82 0 119 -31q37 -32 37 -94q0 -150 -168 -150t-168 100v250q0 300 500 300t500 -300v-150q0 -240 -820 -542v-208q0 -180 320 -180
t320 180v300h180v-300z" />
    <glyph glyph-name="uni1782" unicode="&#x1782;" horiz-adv-x="1400" 
d="M151.5 1088.5q-51.5 48.5 -51.5 117.5t234 294q210 0 393 -174q189 174 236 174q86 0 185 -91q98 -91 152 -38q0 -83 -33 -140q-34 -57 -91 -57t-249 148q-70 1 -266 -177q-110 104 -183.5 139t-143.5 40l-100 -94q18 -107 129 -162l-78 -39q-82 11 -133.5 59.5zM380 270
q118 230 282 230q138 0 138 -120q0 -80 -77 -80q-57 0 -57 33t-44 33q-72 0 -242 -329v-37h-180v900q100 200 500 200t500 -200v-900h-180v860q-60 120 -320 120t-320 -120v-590z" />
    <glyph glyph-name="uni1783" unicode="&#x1783;" horiz-adv-x="2100" 
d="M200 1350q-80 -20 -80 -150q0 -100 80 -100v250zM1720 963q0 106 -200 168q20 101 95.5 235t129.5 134q44 0 115 -43l70 -43q47 -29 120 -14q-10 -70 -40.5 -114.5t-82 -50t-145 52t-156.5 -99.5q274 -88 274 -168v-820q-100 -200 -470 -200q-253 0 -380 94
q-127 -94 -380 -94q-370 0 -470 200v800q-180 0 -180 200q0 130 65 215t145 85q150 0 150 -100v-1160q60 -120 290 -120t290 120v723q0 106 -200 168q20 101 95.5 235t129.5 134q44 0 115 -43l70 -43q47 -29 120 -14q-10 -70 -40.5 -114.5t-82 -50t-145 52t-156.5 -99.5
q274 -88 274 -168v-780q60 -120 290 -120t290 120v723z" />
    <glyph glyph-name="uni1784" unicode="&#x1784;" horiz-adv-x="1400" 
d="M970 1320q0 60 -50 60q-70 0 -70 -60q0 -34 83 -89q37 42 37 89zM200 791q-50 0 -50 -81q0 -60 50 -60v141zM200 550q-150 0 -150 160q0 190 150 190q180 0 180 -100v-641l236 236q84 85 170 0l234 -235v740q0 108 -28 136.5t-64 52.5q-142 -89 -318 -89q-238 0 -321 69
q-89 75 -89 191q0 65 25 132.5t25 137.5t-100 70q0 100 100 100q180 0 180 -170q0 -85 -25 -142.5t-25 -127.5q0 -59 55 -99.5t175 -40.5q124 0 225 36q-105 88 -105 164q0 180 190 180q180 0 180 -180q0 -77 -68 -148q21 -11 43 -22q125 -67 125 -250v-800
q0 -100 -100 -100q-90 0 -167 77l-233 233l-232 -233q-77 -77 -168 -77q-100 0 -100 100v450z" />
    <glyph glyph-name="uni1785" unicode="&#x1785;" horiz-adv-x="1400" 
d="M1020 891q-70 0 -70 -81q0 -60 70 -60v141zM1020 650q-170 0 -170 160q0 190 170 190q180 0 180 -100v-700q-100 -200 -500 -200t-500 200v854q-27 14 -48 35q-52 48 -52 117t234 294q210 0 393 -174q189 174 236 174q86 0 185 -91q98 -91 152 -38q0 -83 -33 -140
q-34 -57 -91 -57t-249 148q-70 1 -266 -177q-110 104 -183.5 139t-143.5 40l-100 -94q18 -107 146 -168v-822q60 -120 320 -120t320 120v410z" />
    <glyph glyph-name="uni1786" unicode="&#x1786;" horiz-adv-x="1400" 
d="M200 380q-50 -20 -50 -80q0 -150 50 -150v230zM1020 891q-70 0 -70 -81q0 -60 70 -60v141zM200 1054q-27 14 -48 35q-52 48 -52 117t234 294q210 0 393 -174q189 174 236 174q86 0 185 -91q98 -91 152 -38q0 -83 -33 -140q-34 -57 -91 -57t-249 148q-70 1 -266 -177
q-110 104 -183.5 139t-143.5 40l-100 -94q18 -107 146 -168v-562q370 0 370 -250q0 -130 135 -130t135 130v400q-170 0 -170 160q0 190 170 190q180 0 180 -100v-650q0 -250 -315 -250q-285 0 -285 250q0 130 -220 130v-280q0 -100 -130 -100q-100 0 -150 95t-50 205
q0 170 150 200v554z" />
    <glyph glyph-name="uni1787" unicode="&#x1787;" horiz-adv-x="1400" 
d="M200 1010q-71 66 -85.5 91.5t-14.5 63.5q0 37 15 63q14 26 130.5 149t153 123t191.5 -107q204 -143 300 -143q190 0 190 140q0 50 -50 90t-140 40q-130 0 -130 90t130 90q140 0 225 -80t85 -230q0 -142 -80.5 -203t-239.5 -61q-237 0 -361 87l-62 43q-62 43 -100.5 38
t-73 -49t-34.5 -77q0 -34 131 -127v-882l236 236q84 85 170 0l234 -235v840h180v-900q0 -100 -100 -100q-90 0 -167 77l-233 233l-232 -233q-77 -77 -168 -77q-100 0 -100 100v910z" />
    <glyph glyph-name="uni1788" unicode="&#x1788;" horiz-adv-x="2800" 
d="M380 150q120 0 120 250q0 100 -120 100v-350zM940 1260q-60 120 -280 120t-280 -120v-660q220 0 220 -200t-62.5 -300t-187.5 -100q-150 0 -150 100v1200q100 200 460 200t460 -200v-1060q60 -120 280 -120t280 120v723q0 106 -200 168q20 101 95.5 235t129.5 134
q44 0 115 -43l70 -43q47 -29 120 -14q-10 -70 -40.5 -114.5t-82 -50t-145 52t-156.5 -99.5q274 -88 274 -168v-780q60 -120 280 -120t280 120v723q0 106 -200 168q20 101 95.5 235t129.5 134q44 0 115 -43l70 -43q47 -29 120 -14q-10 -70 -40.5 -114.5t-82 -50t-145 52
t-156.5 -99.5q274 -88 274 -168v-820q-100 -200 -460 -200q-245 0 -370 93q-125 -93 -370 -93q-360 0 -460 200v1060z" />
    <glyph glyph-name="uni1789" unicode="&#x1789;" horiz-adv-x="2100" 
d="M380 150q120 0 120 250q0 100 -120 100v-350zM1605 -200q0 50 30 75q31 25 94 25q84 0 127 -50q44 -50 44 -150q0 -110 -106 -190t-329 -80q-135 0 -242 38q-107 37 -330 175q-223 137 -340 137q-91 0 -160 -27.5t-143 -92.5q0 60 37 107.5t121 90t195 42.5
q159 0 272 -47t246 -144q252 -175 364 -175q120 0 177.5 33t57.5 133v27q-58 -8 -76.5 3t-28.5 30t-10 40zM1020 1200q0 104 -69.5 141.5t-250.5 -141.5q-180 179 -250 141.5t-70 -141.5v-600q220 0 220 -200t-62.5 -300t-187.5 -100q-150 0 -150 100v1100q0 122 110 211
t169 89q50 0 221 -134q172 134 222 134q59 0 168 -89q16 -13 29 -26q110 115 341 115q440 0 440 -419v-1081h-180v1081q0 299 -260 299t-260 -299v-1081h-180v1200z" />
    <glyph glyph-name="uni178A" unicode="&#x178a;" horiz-adv-x="1400" 
d="M358 1314q0 -29 29 -50h24q53 0 53 50q0 24 -12 36q-14 14 -41 14q-26 0 -40 -13q-13 -12 -13 -37zM535 1221q29 -3 61 -5q42 -2 139 -2q123 0 204 43t81 139q0 124 -140 124q-100 0 -100 90t100 90q320 0 320 -304q0 -128 -126.5 -212t-489.5 -84q-192 0 -288 50.5
t-96 159.5q0 83 52 137q53 53 143 53q91 0 142 -43q52 -43 52 -118t-54 -118zM380 1000v-841l236 236q84 85 170 0l234 -235v840h180v-900q0 -100 -100 -100q-90 0 -167 77l-233 233l-232 -233q-77 -77 -168 -77q-100 0 -100 100v900h180z" />
    <glyph glyph-name="uni178B" unicode="&#x178b;" horiz-adv-x="1400" 
d="M200 1350q-80 -20 -80 -150q0 -100 80 -100v250zM200 1000q-180 0 -180 200q0 130 65 215t145 85q150 0 150 -100v-1160q60 -120 320 -120t320 120v723q0 106 -200 168q20 101 95.5 235t129.5 134q44 0 115 -43l59 -36q31 35 31 79q0 120 -90 120q-110 0 -110 90t110 90
q190 0 190 -300q0 -116 -37.5 -187.5t-84.5 -76.5q-52 -6 -145.5 51.5t-156.5 -99.5q274 -88 274 -168v-820q-100 -200 -500 -200t-500 200v800z" />
    <glyph glyph-name="uni178C" unicode="&#x178c;" horiz-adv-x="1400" 
d="M380 1025v-75q56 0 56 50q0 25 -56 25zM1020 0v141q-221 -141 -430 -141q-390 0 -390 300v287q820 243 820 463v150q0 104 -69.5 141.5t-250.5 -141.5q-180 179 -250 141.5t-70 -141.5v-75q82 0 119 -31q37 -32 37 -94q0 -150 -148 -150q-188 0 -188 100v250
q0 122 110 211t169 89q50 0 221 -134q172 134 222 134q59 0 168.5 -89t109.5 -211v-150q0 -260 -820 -542v-208q0 -180 210 -180q170 0 430 209v271h180v-600q0 -170 -200 -170q-100 0 -100 100q120 0 120 70z" />
    <glyph glyph-name="uni178D" unicode="&#x178d;" horiz-adv-x="2100" 
d="M380 150q120 0 120 250q0 100 -120 100v-350zM1020 380q-50 -20 -50 -80q0 -150 50 -150v230zM1900 250q0 -250 -290 -250q-260 0 -260 250q0 130 -150 130v-280q0 -100 -130 -100q-100 0 -150 95t-50 205q0 170 150 200v700q0 104 -69.5 141.5t-250.5 -141.5
q-180 179 -250 141.5t-70 -141.5v-600q220 0 220 -200t-62.5 -300t-187.5 -100q-150 0 -150 100v1100q0 122 110 211t169 89q50 0 221 -134q172 134 222 134q59 0 168 -89q110 -89 110 -211v-700q300 0 300 -250q0 -130 110 -130t110 130v713q0 106 -200 168
q20 101 95.5 235t129.5 134q44 0 115 -43l70 -43q47 -29 120 -14q-10 -70 -40.5 -114.5t-82 -50t-145 52t-156.5 -99.5q274 -88 274 -168v-770z" />
    <glyph glyph-name="uni178E" unicode="&#x178e;" horiz-adv-x="2800" 
d="M380 150q120 0 120 250q0 100 -120 100v-350zM380 600q220 0 220 -200t-62.5 -300t-187.5 -100q-150 0 -150 100v1200q100 200 460 200t460 -200v-1141l240 241q40 40 80 0l240 -240v1140q100 200 460 200t460 -200v-1300h-180v1260q-60 120 -280 120t-280 -120v-1160
q0 -100 -100 -100q-90 0 -167 77l-193 193l-192 -193q-77 -77 -168 -77q-100 0 -100 100v1160q-60 120 -280 120t-280 -120v-660z" />
    <glyph glyph-name="uni178F" unicode="&#x178f;" horiz-adv-x="1400" 
d="M380 150q100 0 100 150q0 100 -100 100v-250zM100 1206q0 69 234 294q210 0 393 -174q189 174 236 174q86 0 185 -91q98 -91 152 -38q0 -83 -33 -140q-34 -57 -91 -57t-249 148q-70 1 -266 -177q-110 104 -183.5 139t-143.5 40l-100 -94q18 -107 129 -162l-78 -39
q-82 11 -133.5 59.5t-51.5 117.5zM380 500q200 0 200 -200q0 -100 -52.5 -200t-177.5 -100q-150 0 -150 100v800q100 200 500 200t500 -200v-900h-180v860q-60 120 -320 120t-320 -120v-360z" />
    <glyph glyph-name="uni1790" unicode="&#x1790;" horiz-adv-x="1400" 
d="M1020 891q-70 0 -70 -81q0 -60 70 -60v141zM200 1010q-71 66 -85.5 91.5t-14.5 63.5q0 37 15 63q14 26 130.5 149t153 123t191.5 -107q204 -143 300 -143q190 0 190 140q0 50 -50 90t-140 40q-130 0 -130 90t130 90q140 0 225 -80t85 -230q0 -142 -80.5 -203t-239.5 -61
q-237 0 -361 87l-62 43q-62 43 -100.5 38t-73 -49t-34.5 -77q0 -34 131 -127v-801q60 -120 320 -120t320 120v410q-170 0 -170 160q0 190 170 190q180 0 180 -100v-700q-100 -200 -500 -200t-500 200v810z" />
    <glyph glyph-name="uni1791" unicode="&#x1791;" horiz-adv-x="1400" 
d="M964 1080q0 -30 56 -30v55q-56 0 -56 -25zM1050 700q50 0 50 25t-25 25t-25 -50zM1050 302q0 -302 -358 -302q-392 0 -392 250v250h180v-250q0 -130 212 -130q178 0 178 181v279h-170q-500 0 -500 300v320q0 300 500 300t500 -300v-150q0 -100 -168 -100t-168 130
q0 62 37 94q37 31 119 31q0 175 -320 175t-320 -180v-320q0 -180 320 -180h170q0 150 205 150q125 0 125 -125q0 -145 -150 -145v-278z" />
    <glyph glyph-name="uni1792" unicode="&#x1792;" horiz-adv-x="1400" 
d="M1020 891q-70 0 -70 -81q0 -60 70 -60v141zM200 1054q-27 14 -48 35q-52 48 -52 117t234 294q210 0 393 -174q189 174 236 174q86 0 185 -91q98 -91 152 -38q0 -83 -33 -140q-34 -57 -91 -57t-249 148q-70 1 -266 -177q-110 104 -183.5 139t-143.5 40l-100 -94
q18 -107 146 -168v-903l236 236q84 85 170 0l234 -235v490q-170 0 -170 160q0 190 170 190q180 0 180 -100v-800q0 -100 -100 -100q-90 0 -167 77l-233 233l-232 -233q-77 -77 -168 -77q-100 0 -100 100v954z" />
    <glyph glyph-name="uni1793" unicode="&#x1793;" horiz-adv-x="1400" 
d="M964 1000q0 -50 56 -50v75q-56 0 -56 -25zM1200 250q0 -250 -295 -250q-141 0 -250 140t-275 140v-280h-180v600h180v-200q195 0 314.5 -125t210.5 -125q115 0 115 100v298l-410 121q-410 121 -410 381v150q0 300 500 300t500 -300v-250q0 -100 -168 -100t-168 150
q0 62 37 94q37 31 119 31v75q0 180 -320 180t-320 -180v-150q0 -210 410 -326l410 -117v-357z" />
    <glyph glyph-name="uni1794" unicode="&#x1794;" horiz-adv-x="1400" 
d="M1020 963q0 106 -200 168q20 101 95.5 235t129.5 134q44 0 115 -43l70 -43q47 -29 120 -14q-10 -70 -40.5 -114.5t-82 -50t-145 52t-156.5 -99.5q274 -88 274 -168v-820q-100 -200 -500 -200t-500 200v763q0 106 -200 168q20 101 95.5 235t129.5 134q44 0 115 -43l70 -43
q47 -29 120 -14q-10 -70 -40.5 -114.5t-82 -50t-145 52t-156.5 -99.5q274 -88 274 -168v-780q60 -120 320 -120t320 120v723z" />
    <glyph glyph-name="uni1795" unicode="&#x1795;" horiz-adv-x="1400" 
d="M1020 891q-70 0 -70 -81q0 -60 70 -60v141zM1200 100q0 -100 -100 -100q-90 0 -167 77l-233 233l-232 -233q-77 -77 -168 -77q-100 0 -100 100v910q-71 66 -85.5 91.5t-14.5 63.5q0 37 15 63q14 26 130.5 149t153 123t191.5 -107q204 -143 300 -143q190 0 190 140
q0 50 -50 90t-140 40q-130 0 -130 90t130 90q140 0 225 -80t85 -230q0 -142 -80.5 -203t-239.5 -61q-237 0 -361 87l-62 43q-62 43 -100.5 38t-73 -49t-34.5 -77q0 -34 131 -127v-882l236 236q84 85 170 0l234 -235v490q-170 0 -170 160q0 190 170 190q180 0 180 -100v-800z
" />
    <glyph glyph-name="uni1796" unicode="&#x1796;" horiz-adv-x="1400" 
d="M380 150q120 0 120 250q0 100 -120 100v-350zM200 1200q0 122 110 211t169 89q50 0 221 -134q172 134 222 134q59 0 168 -89q110 -89 110 -211v-1200h-180v1200q0 104 -69.5 141.5t-250.5 -141.5q-180 179 -250 141.5t-70 -141.5v-600q220 0 220 -200t-62.5 -300
t-187.5 -100q-150 0 -150 100v1100z" />
    <glyph glyph-name="uni1797" unicode="&#x1797;" horiz-adv-x="1400" 
d="M200 400q-80 0 -80 -100q0 -150 80 -150v250zM100 1206q0 69 234 294q210 0 393 -174q189 174 236 174q86 0 185 -91q98 -91 152 -38q0 -83 -33 -140q-34 -57 -91 -57t-249 148q-70 1 -266 -177q-110 104 -183.5 139t-143.5 40l-100 -94q18 -107 129 -162l-78 -39
q-82 11 -133.5 59.5t-51.5 117.5zM200 900q100 200 500 200t500 -200v-900h-180v860q-60 120 -320 120t-320 -120v-760q0 -100 -150 -100q-105 0 -157.5 100t-52.5 200q0 200 180 200v400z" />
    <glyph glyph-name="uni1798" unicode="&#x1798;" horiz-adv-x="1400" 
d="M1020 780v183q0 106 -200 168q20 101 95.5 235t129.5 134q44 0 115 -43l70 -43q47 -29 120 -14q-10 -70 -40.5 -114.5t-82 -50t-145 52t-156.5 -99.5q274 -88 274 -168v-820q-100 -200 -500 -200t-500 200v763q0 106 -200 168q20 101 95.5 235t129.5 134q44 0 115 -43
l70 -43q47 -29 120 -14q-10 -70 -40.5 -114.5t-82 -50t-145 52t-156.5 -99.5q274 -88 274 -168v-240h640zM1020 660h-640v-420q60 -120 320 -120t320 120v420z" />
    <glyph glyph-name="uni1799" unicode="&#x1799;" horiz-adv-x="2100" 
d="M380 1100q80 0 80 100q0 130 -80 150v-250zM200 1400q0 100 150 100q80 0 145 -85t65 -215q0 -200 -180 -200v-760q60 -120 290 -120t290 120v723q0 106 -200 168q20 101 95.5 235t129.5 134q44 0 115 -43l70 -43q47 -29 120 -14q-10 -70 -40.5 -114.5t-82 -50t-145 52
t-156.5 -99.5q274 -88 274 -168v-780q60 -120 290 -120t290 120v723q0 106 -200 168q20 101 95.5 235t129.5 134q44 0 115 -43l70 -43q47 -29 120 -14q-10 -70 -40.5 -114.5t-82 -50t-145 52t-156.5 -99.5q274 -88 274 -168v-820q-100 -200 -470 -200q-253 0 -380 94
q-127 -94 -380 -94q-370 0 -470 200v1200z" />
    <glyph glyph-name="uni179A" unicode="&#x179a;" horiz-adv-x="580" 
d="M200 400q-80 0 -80 -100q0 -150 80 -150v250zM380 100q0 -100 -130 -100q-125 0 -177.5 100t-52.5 200q0 200 180 200v463q0 106 -200 168q20 101 95.5 235t129.5 134q44 0 115 -43l70 -43q47 -29 120 -14q-10 -70 -40.5 -114.5t-82 -50t-145 52t-156.5 -99.5
q274 -88 274 -168v-920z" />
    <glyph glyph-name="uni179B" unicode="&#x179b;" horiz-adv-x="2100" 
d="M380 150q120 0 120 250q0 100 -120 100v-350zM1900 200q-100 -200 -470 -200t-470 200v1060q-60 120 -290 120t-290 -120v-660q220 0 220 -200t-62.5 -300t-187.5 -100q-150 0 -150 100v1200q100 200 470 200t470 -200v-1060q60 -120 290 -120t290 120v723
q0 106 -200 168q20 101 95.5 235t129.5 134q44 0 115 -43l70 -43q47 -29 120 -14q-10 -70 -40.5 -114.5t-82 -50t-145 52t-156.5 -99.5q274 -88 274 -168v-820z" />
    <glyph glyph-name="uni179C" unicode="&#x179c;" horiz-adv-x="580" 
d="M200 400q-80 0 -80 -100q0 -150 80 -150v250zM408 1236q-52 -6 -145.5 51.5t-156.5 -99.5q274 -88 274 -168v-920q0 -100 -130 -100q-125 0 -177.5 100t-52.5 200q0 200 180 200v463q0 106 -200 168q20 101 95.5 235t129.5 134q44 0 115 -43l59 -36q31 35 31 79
q0 120 -90 120q-110 0 -110 90t110 90q190 0 190 -300q0 -116 -37.5 -187.5t-84.5 -76.5z" />
    <glyph glyph-name="uni179D" unicode="&#x179d;" horiz-adv-x="1400" 
d="M100 1206q0 69 234 294q210 0 393 -174q189 174 236 174q86 0 185 -91q98 -91 152 -38q0 -83 -33 -140q-34 -57 -91 -57t-249 148q-70 1 -266 -177q-110 104 -183.5 139t-143.5 40l-100 -94q18 -107 129 -162l-78 -39q-82 11 -133.5 59.5t-51.5 117.5zM1020 510v350
q-60 120 -320 120t-320 -120v-590q118 230 282 230q138 0 138 -120q0 -80 -77 -80q-57 0 -57 33t-44 33q-72 0 -242 -329v-37h-180v900q100 200 500 200t500 -200v-390h150v-120h-150v-390h-180v390h-140v120h140z" />
    <glyph glyph-name="uni179E" unicode="&#x179e;" horiz-adv-x="1400" 
d="M1020 810v153q0 106 -200 168q20 101 95.5 235t129.5 134q44 0 115 -43l70 -43q47 -29 120 -14q-10 -70 -40.5 -114.5t-82 -50t-145 52t-156.5 -99.5q274 -88 274 -168v-210h150v-120h-150v-490q-100 -200 -500 -200t-500 200v763q0 106 -200 168q20 101 95.5 235
t129.5 134q44 0 115 -43l70 -43q47 -29 120 -14q-10 -70 -40.5 -114.5t-82 -50t-145 52t-156.5 -99.5q274 -88 274 -168v-780q60 -120 320 -120t320 120v450h-140v120h140z" />
    <glyph glyph-name="uni179F" unicode="&#x179f;" horiz-adv-x="2100" 
d="M380 150q100 0 100 150q0 100 -100 100v-250zM619 1099q25 1 51 1q370 0 470 -200v-660q60 -120 290 -120t290 120v723q0 106 -200 168q20 101 95.5 235t129.5 134q44 0 115 -43l70 -43q47 -29 120 -14q-10 -70 -40.5 -114.5t-82 -50t-145 52t-156.5 -99.5
q274 -88 274 -168v-820q-100 -200 -470 -200t-470 200v660q-60 120 -290 120t-290 -120v-360q200 0 200 -200q0 -100 -52.5 -200t-177.5 -100q-150 0 -150 100v800q62 125 229 172q-68 37 -179 79q30 101 125.5 225t169.5 124q64 0 183 -57.5t192 -42.5
q-10 -70 -40.5 -114.5t-82 -50t-190 52t-241.5 -79.5q174 -52 253 -109z" />
    <glyph glyph-name="uni17A0" unicode="&#x17a0;" horiz-adv-x="2100" 
d="M200 963q0 106 -200 168q20 101 95.5 235t129.5 134q44 0 115 -43l70 -43q47 -29 120 -14q-10 -70 -40.5 -114.5t-82 -50t-145 52t-156.5 -99.5q274 -88 274 -168v-780q60 -120 290 -120t290 120v1060q100 200 470 200t470 -200v-1300h-180v1260q-60 120 -290 120
t-290 -120v-1060q-100 -200 -470 -200t-470 200v763z" />
    <glyph glyph-name="uni17A1" unicode="&#x17a1;" horiz-adv-x="2100" 
d="M964 1080q0 -30 56 -30v55q-56 0 -56 -25zM1050 700q50 0 50 25t-25 25t-25 -50zM1050 302q0 -302 -358 -302q-392 0 -392 250v250h180v-250q0 -130 212 -130q178 0 178 181v279h-170q-500 0 -500 300v320q0 300 500 300t500 -300v-150q0 -100 -168 -100t-168 130
q0 62 37 94q37 31 119 31q0 175 -320 175t-320 -180v-320q0 -180 320 -180h170q0 150 205 150q125 0 125 -125q0 -145 -150 -145v-278zM1900 -550q0 -100 -100 -100q-90 0 -167 77l-173 173l-172 -173q-77 -77 -168 -77q-100 0 -100 100v200q-100 0 -100 70q0 55 60 117.5
t120 62.5q100 0 100 -100v-291l200 201q60 60 120 0l200 -200v1453q0 106 -200 168q20 101 95.5 235t129.5 134q44 0 115 -43l70 -43q47 -29 120 -14q-10 -70 -40.5 -114.5t-82 -50t-145 52t-156.5 -99.5q274 -88 274 -168v-1570z" />
    <glyph glyph-name="uni17A2" unicode="&#x17a2;" horiz-adv-x="1400" 
d="M1020 400q-80 0 -80 -100q0 -150 80 -150v250zM200 400q-80 0 -80 -100q0 -150 80 -150v250zM1020 810v153q0 106 -200 168q20 101 95.5 235t129.5 134q44 0 115 -43l70 -43q47 -29 120 -14q-10 -70 -40.5 -114.5t-82 -50t-145 52t-156.5 -99.5q274 -88 274 -168v-920
q0 -100 -130 -100q-125 0 -177.5 100t-52.5 200q0 200 180 200v190h-640v-590q0 -100 -130 -100q-125 0 -177.5 100t-52.5 200q0 200 180 200v463q0 106 -200 168q20 101 95.5 235t129.5 134q44 0 115 -43l70 -43q47 -29 120 -14q-10 -70 -40.5 -114.5t-82 -50t-145 52
t-156.5 -99.5q274 -88 274 -168v-210h640z" />
    <glyph glyph-name="uni17A3" unicode="&#x17a3;" horiz-adv-x="1400" 
d="M1020 400q-80 0 -80 -100q0 -150 80 -150v250zM200 400q-80 0 -80 -100q0 -150 80 -150v250zM1020 810v153q0 106 -200 168q20 101 95.5 235t129.5 134q44 0 115 -43l70 -43q47 -29 120 -14q-10 -70 -40.5 -114.5t-82 -50t-145 52t-156.5 -99.5q274 -88 274 -168v-920
q0 -100 -130 -100q-125 0 -177.5 100t-52.5 200q0 200 180 200v190h-640v-590q0 -100 -130 -100q-125 0 -177.5 100t-52.5 200q0 200 180 200v463q0 106 -200 168q20 101 95.5 235t129.5 134q44 0 115 -43l70 -43q47 -29 120 -14q-10 -70 -40.5 -114.5t-82 -50t-145 52
t-156.5 -99.5q274 -88 274 -168v-210h640z" />
    <glyph glyph-name="uni17A4" unicode="&#x17a4;" horiz-adv-x="2100" 
d="M1020 400q-80 0 -80 -100q0 -150 80 -150v250zM200 400q-80 0 -80 -100q0 -150 80 -150v250zM820 1131q31 101 164 235q131 134 215 134q123 0 412 -117t289 -333v-1050h-180v1070q0 81 -295 196.5t-412 -7.5l-70 -73q257 -87 257 -166v-920q0 -100 -130 -100
q-125 0 -177.5 100t-52.5 200q0 200 180 200v190h-640v-590q0 -100 -130 -100q-125 0 -177.5 100t-52.5 200q0 200 180 200v463q0 106 -200 168q20 101 95.5 235t129.5 134q44 0 115 -43l70 -43q47 -29 120 -14q-10 -70 -40.5 -114.5t-82 -50t-145 52t-156.5 -99.5
q274 -88 274 -168v-210h640v153q0 106 -200 168z" />
    <glyph glyph-name="uni17A5" unicode="&#x17a5;" horiz-adv-x="1400" 
d="M380 150q100 0 100 150q0 100 -100 100v-250zM200 850q100 200 500 200t500 -200v-850h-180v810q-60 120 -320 120t-320 -120v-310q200 0 200 -200q0 -100 -52.5 -200t-177.5 -100q-150 0 -150 100v750zM246 1000q-117 76 -131.5 101.5t-14.5 63.5q0 37 15 63
q14 26 130.5 149t153 123t191.5 -107q204 -143 300 -143q190 0 190 140q0 50 -50 90t-140 40q-130 0 -130 90t130 90q140 0 225 -80t85 -230q0 -142 -80.5 -203t-239.5 -61q-237 0 -361 87l-62 43q-62 43 -100.5 38t-73 -49t-34.5 -77q0 -34 131 -97z" />
    <glyph glyph-name="uni17A6" unicode="&#x17a6;" horiz-adv-x="2100" 
d="M380 150q100 0 100 150q0 100 -100 100v-250zM200 1300q100 200 500 200t500 -200v-1300h-180v1260q-60 120 -320 120t-320 -120v-760q200 0 200 -200q0 -100 -52.5 -200t-177.5 -100q-150 0 -150 100v1200zM1900 -450q0 -200 -477 -200q-478 0 -478 200v100
q0 150 -245 150t-245 -150v-50q98 0 126 -25q27 -25 27 -61q0 -76 -72 -120q-73 -44 -137 -44q-124 0 -124 100v200q0 250 425 250t425 -250v-100q0 -100 298 -100q297 0 297 100v2090q0 290 -190 290q-110 0 -171 -63t-103 -67q-41 -4 -87 30q-69 75 -69 191q0 65 20 132.5
t20 137.5t-90 70q0 100 100 100q170 0 170 -170q0 -85 -26 -142.5t-26 -127.5v-43q132 72 262 72q370 0 370 -410v-2090z" />
    <glyph glyph-name="uni17A7" unicode="&#x17a7;" horiz-adv-x="1400" 
d="M380 1025v-75q56 0 56 50q0 25 -56 25zM380 300q0 -102 45.5 -141t164.5 -39q118 0 207 36t223 173v271h180v-600q0 -170 -200 -170q-100 0 -100 100q120 0 120 70v141q-94 -69 -182 -104q-92 -37 -248 -37q-206 0 -290 63q-100 74 -100 237v267q820 313 820 483v150
q0 180 -320 180t-320 -180v-75q82 0 119 -31q37 -32 37 -94q0 -150 -168 -150t-168 100v250q0 300 500 300t500 -300v-150q0 -240 -820 -542v-208z" />
    <glyph glyph-name="uni17A8" unicode="&#x17a8;" horiz-adv-x="1400" 
d="M380 1025v-75q56 0 56 50q0 25 -56 25zM380 300q0 -102 45.5 -141t164.5 -39q118 0 207 36t223 173v271h180v-600q0 -170 -200 -170q-100 0 -100 100q120 0 120 70v141q-94 -69 -182 -104q-92 -37 -248 -37q-206 0 -290 63q-100 74 -100 237v267q820 313 820 483v150
q0 180 -320 180t-320 -180v-75q82 0 119 -31q37 -32 37 -94q0 -150 -168 -150t-168 100v250q0 300 500 300t500 -300v-150q0 -240 -820 -542v-208zM151.5 1538.5q-51.5 48.5 -51.5 117.5t234 294q210 0 393 -174q189 174 236 174q86 0 185 -91q98 -91 152 -38
q0 -83 -33 -140q-34 -57 -91 -57t-249 148q-70 1 -266 -177q-110 104 -183.5 139t-143.5 40l-100 -94q18 -107 129 -162l-78 -39q-82 11 -133.5 59.5z" />
    <glyph glyph-name="uni17A9" unicode="&#x17a9;" horiz-adv-x="1500" 
d="M1320 600h180v-700h-180v700zM380 1025v-75q56 0 56 50q0 25 -56 25zM380 300q0 -102 45.5 -141t164.5 -39q118 0 207 36t223 173v271h180v-600q0 -170 -200 -170q-100 0 -100 100q120 0 120 70v141q-94 -69 -182 -104q-92 -37 -248 -37q-206 0 -290 63q-100 74 -100 237
v267q820 313 820 483v150q0 180 -320 180t-320 -180v-75q82 0 119 -31q37 -32 37 -94q0 -150 -168 -150t-168 100v250q0 300 500 300t500 -300v-150q0 -240 -820 -542v-208z" />
    <glyph glyph-name="uni17AA" unicode="&#x17aa;" horiz-adv-x="1400" 
d="M380 1025v-75q56 0 56 50q0 25 -56 25zM380 300q0 -102 45.5 -141t164.5 -39q118 0 207 36t223 173v271h180v-600q0 -170 -200 -170q-100 0 -100 100q120 0 120 70v141q-94 -69 -182 -104q-92 -37 -248 -37q-206 0 -290 63q-100 74 -100 237v267q820 313 820 483v150
q0 180 -320 180t-320 -180v-75q82 0 119 -31q37 -32 37 -94q0 -150 -168 -150t-168 100v250q0 300 500 300t500 -300v-150q0 -240 -820 -542v-208zM246 1444q-117 76 -131.5 101.5t-14.5 63.5q0 37 15 63q14 26 130.5 149t153 123t191.5 -107q204 -143 300 -143
q190 0 190 140q0 50 -50 90t-140 40q-130 0 -130 90t130 90q140 0 225 -80t85 -230q0 -142 -80.5 -203t-239.5 -61q-237 0 -361 87l-62 43q-62 43 -100.5 38t-73 -49t-34.5 -77q0 -34 131 -97z" />
    <glyph glyph-name="uni17AB" unicode="&#x17ab;" horiz-adv-x="1400" 
d="M1200 -250q0 -150 -155 -225q-154 -75 -463 -75q-155 0 -263 32q-108 33 -169 98q186 -30 433 -30q221 0 332 50q110 50 110 150q0 25 -18 38q-19 12 -56 12q0 50 31 75t93 25q63 0 94 -38q31 -37 31 -112zM1020 963q0 106 -200 168q20 101 95.5 235t129.5 134
q44 0 115 -43l70 -43q47 -29 120 -14q-10 -70 -40.5 -114.5t-82 -50t-145 52t-156.5 -99.5q274 -88 274 -168v-820q-100 -200 -500 -200t-500 200v763q0 106 -200 168q20 101 95.5 235t129.5 134q44 0 115 -43l70 -43q47 -29 120 -14q-10 -70 -40.5 -114.5t-82 -50t-145 52
t-156.5 -99.5q274 -88 274 -168v-780q60 -120 320 -120t320 120v723z" />
    <glyph glyph-name="uni17AC" unicode="&#x17ac;" horiz-adv-x="1400" 
d="M1200 -250q0 -70 -35 -124q10 -38 56 -58q46 -19 128 -19q0 -49 -40 -74q-41 -25 -122 -25q-58 0 -101 16q-42 16 -68 47q-77 -31 -186 -47t-251 -16q-154 0 -262 32q-108 33 -169 98q185 -30 433 -30q220 0 331 50q110 50 110 150q0 50 -75 50q0 50 32 75t95 25
q62 0 93 -38q31 -37 31 -112zM1020 963q0 106 -200 168q20 101 95.5 235t129.5 134q44 0 115 -43l70 -43q47 -29 120 -14q-10 -70 -40.5 -114.5t-82 -50t-145 52t-156.5 -99.5q274 -88 274 -168v-820q-100 -200 -500 -200t-500 200v763q0 106 -200 168q20 101 95.5 235
t129.5 134q44 0 115 -43l70 -43q47 -29 120 -14q-10 -70 -40.5 -114.5t-82 -50t-145 52t-156.5 -99.5q274 -88 274 -168v-780q60 -120 320 -120t320 120v723z" />
    <glyph glyph-name="uni17AD" unicode="&#x17ad;" horiz-adv-x="1400" 
d="M380 150q120 0 120 250q0 100 -120 100v-350zM200 1200q0 122 110 211t169 89q50 0 221 -134q172 134 222 134q59 0 168 -89q110 -89 110 -211v-1200h-180v1200q0 104 -69.5 141.5t-250.5 -141.5q-180 179 -250 141.5t-70 -141.5v-600q220 0 220 -200t-62.5 -300
t-187.5 -100q-150 0 -150 100v1100zM1200 -250q0 -150 -155 -225q-154 -75 -463 -75q-155 0 -263 32q-108 33 -169 98q186 -30 433 -30q221 0 332 50q110 50 110 150q0 25 -18 38q-19 12 -56 12q0 50 31 75t93 25q63 0 94 -38q31 -37 31 -112z" />
    <glyph glyph-name="uni17AE" unicode="&#x17ae;" horiz-adv-x="1400" 
d="M380 150q120 0 120 250q0 100 -120 100v-350zM200 1200q0 122 110 211t169 89q50 0 221 -134q172 134 222 134q59 0 168 -89q110 -89 110 -211v-1200h-180v1200q0 104 -69.5 141.5t-250.5 -141.5q-180 179 -250 141.5t-70 -141.5v-600q220 0 220 -200t-62.5 -300
t-187.5 -100q-150 0 -150 100v1100zM1200 -250q0 -70 -35 -124q10 -38 56 -58q46 -19 128 -19q0 -49 -40 -74q-41 -25 -122 -25q-58 0 -101 16q-42 16 -68 47q-77 -31 -186 -47t-251 -16q-154 0 -262 32q-108 33 -169 98q185 -30 433 -30q220 0 331 50q110 50 110 150
q0 50 -75 50q0 50 32 75t95 25q62 0 93 -38q31 -37 31 -112z" />
    <glyph glyph-name="uni17AF" unicode="&#x17af;" horiz-adv-x="1400" 
d="M200 791q-50 -20 -50 -91q0 -50 50 -50v141zM200 550q-150 0 -150 150q0 200 200 200q130 0 130 -100v-641l236 236q84 85 170 0l234 -235v1040q0 180 -270 180q-370 0 -370 -130q0 -100 -80 -100q-100 0 -100 100q0 175 25 242.5t25 137.5t-100 70q0 100 100 100
q180 0 180 -170q0 -85 -25 -142q-15 -34 -21 -72q100 84 366 84q450 0 450 -300v-1100q0 -100 -100 -100q-90 0 -167 77l-233 233l-232 -233q-77 -77 -168 -77q-100 0 -100 100v450z" />
    <glyph glyph-name="uni17B0" unicode="&#x17b0;" horiz-adv-x="1400" 
d="M1020 -149q-154 -98 -260 -156l94 -34q78 -17 122 16t44 137v37zM380 150q120 0 120 250q0 100 -120 100v-350zM620 -494q26 26 26 78v59q-129 -64 -231 -93v-20q0 -25 41.5 -37.5t77.5 -12.5q60 0 86 26zM1200 -186q0 -174 -79 -244q-78 -71 -268 -37l-77 18
q0 -101 -53 -151t-180 -50q-147 0 -220 38q-73 37 -73 112q0 144 56 167q177 52 326.5 119.5t387.5 262.5v1151q0 104 -69.5 141.5t-250.5 -141.5q-180 179 -250 141.5t-70 -141.5v-600q220 0 220 -200t-62.5 -300t-187.5 -100q-150 0 -150 100v1100q0 122 110 211t169 89
q50 0 221 -134q172 134 222 134q59 0 168 -89q110 -89 110 -211v-1386z" />
    <glyph glyph-name="uni17B1" unicode="&#x17b1;" horiz-adv-x="1400" 
d="M160 1585v75q0 52 65 113l66 61q141 124 409 124q298 0 478 -187q72 -62 72 -159t-126 -169q38 101 -88 229t-336 128q-326 0 -358 -64t-32 -100q0 -50 137 -120l-149 -61q-138 31 -138 130zM380 1025v-75q56 0 56 50q0 25 -56 25zM380 300q0 -102 45.5 -141t164.5 -39
q118 0 207 36t223 173v271h180v-600q0 -170 -200 -170q-100 0 -100 100q120 0 120 70v141q-94 -69 -182 -104q-92 -37 -248 -37q-206 0 -290 63q-100 74 -100 237v267q820 313 820 483v150q0 180 -320 180t-320 -180v-75q82 0 119 -31q37 -32 37 -94q0 -150 -168 -150
t-168 100v250q0 300 500 300t500 -300v-150q0 -240 -820 -542v-208z" />
    <glyph glyph-name="uni17B2" unicode="&#x17b2;" horiz-adv-x="1400" 
d="M1020 387q0 70 -4 100.5t-112 38.5q-9 -9 -20 -16l-199 -156q-66 -52 -116.5 1.5t10.5 100.5l178 140q145 114 204 177t59 96q0 50 -57 72.5t-108 22.5t-84 -22q-34 -24 -34 -73q0 -57 113 -57q-62 -85 -127 -85q-61 0 -102 36q-40 35 -40 106q0 97 72.5 164t201.5 67
q199 0 272 -66.5t73 -164.5q0 -52 -31 -110q-37 -71 -121 -152q66 -20 104 -63q48 -58 48 -157v-87q0 -300 -500 -300t-500 300v900q0 300 500 300t500 -300h-180q0 180 -326 180t-326 -180v-900q0 -180 326 -180t326 180v87z" />
    <glyph glyph-name="uni17B3" unicode="&#x17b3;" horiz-adv-x="1400" 
d="M1250 1702q0 -187 -126 -259q28 101 -93 229t-331 128q-336 0 -368 -64t-32 -100q0 -50 137 -120l-149 -71q-138 41 -138 140v75q0 52 65 113l66 61q141 124 419 124q244 0 409 -125q7 154 -88 220l-47 33q-48 33 -13 85q19 27 45 27q24 0 54 -21l63 -45
q127 -90 127 -320v-110zM380 1025v-75q56 0 56 50q0 25 -56 25zM380 300q0 -102 45.5 -141t164.5 -39q118 0 207 36t223 173v271h180v-600q0 -170 -200 -170q-100 0 -100 100q120 0 120 70v141q-94 -69 -182 -104q-92 -37 -248 -37q-206 0 -290 63q-100 74 -100 237v267
q820 313 820 483v150q0 180 -320 180t-320 -180v-75q82 0 119 -31q37 -32 37 -94q0 -150 -168 -150t-168 100v250q0 300 500 300t500 -300v-150q0 -240 -820 -542v-208z" />
    <glyph glyph-name="uni17B4" unicode="&#x17b4;" horiz-adv-x="1536" 
d="M256 0v1280h1024v-1280h-1024zM288 32h960v1216h-960v-1216z" />
    <glyph glyph-name="uni17B5" unicode="&#x17b5;" horiz-adv-x="1536" 
d="M256 0v1280h1024v-1280h-1024zM288 32h960v1216h-960v-1216z" />
    <glyph glyph-name="uni17B6" unicode="&#x17b6;" horiz-adv-x="580" 
d="M380 1050v-1050h-180v1050q0 80 -115.5 175t-184.5 95q-63 0 -201 -117l-66 92q161 205 267 205q123 0 301.5 -128.5t178.5 -321.5z" />
    <glyph glyph-name="uni17B7" unicode="&#x17b7;" 
d="M-1150 2000q0 250 300 250q260 0 515 -225q85 -75 85 -125t-100 -50h-600q-200 0 -200 150zM-1000 2000q0 -50 50 -50h520q-130 97 -219.5 123.5t-200.5 26.5q-150 0 -150 -100z" />
    <glyph glyph-name="uni17B8" unicode="&#x17b8;" 
d="M-1000 2000q0 -50 50 -50h520q-130 97 -219.5 123.5t-200.5 26.5q-150 0 -150 -100zM-384 2066v284h134v-450q0 -50 -100 -50h-600q-200 0 -200 150q0 250 300 250q236 0 466 -184z" />
    <glyph glyph-name="uni17B9" unicode="&#x17b9;" 
d="M-1000 2000q0 -50 50 -50h520q-144 85 -241.5 117.5t-198.5 32.5q-130 0 -130 -100zM-646 2195v4q11 75 60 113q50 38 136 38q100 0 150 -50t50 -150q0 -115 -66 -164l-2 -2q68 -57 68 -84q0 -50 -100 -50h-600q-200 0 -200 150q0 250 280 250q108 0 224 -55zM-529 2131
q24 -15 49 -31q24 -15 45 -30q65 8 65 80q0 80 -80 80t-80 -80q0 -6 1 -19z" />
    <glyph glyph-name="uni17BA" unicode="&#x17ba;" 
d="M-1000 2000q0 -50 50 -50h520q-130 97 -219.5 123.5t-200.5 26.5q-150 0 -150 -100zM-634 2211v139h134v-203q59 -35 116 -81v284h134v-450q0 -50 -100 -50h-600q-200 0 -200 150q0 250 300 250q109 0 216 -39z" />
    <glyph glyph-name="uni17BB" unicode="&#x17bb;" 
d="M-250 -650h-150v383q-50 18 -50 80q0 87 100 87t100 -87v-463z" />
    <glyph glyph-name="uni17BC" unicode="&#x17bc;" 
d="M-444 -650q-229 0 -229 168q0 48 19 109l50 137q-80 0 -80 91q0 90 120 90q174 0 102 -227l-41 -117q-38 -110 59 -110t160 205q72 249 126 249q25 0 25 -61q0 -80 -38 -257q-58 -277 -273 -277z" />
    <glyph glyph-name="uni17BD" unicode="&#x17bd;" 
d="M-456 -531q-92 -119 -177 -119q-146 0 -146 122q0 71 58 182l62 114q-84 0 -84 92q0 91 120 91q100 0 130 -61.5t-26 -171.5l-60 -112q-69 -133 -14 -133q52 0 193 178q21 -178 57 -178q33 0 57 114q75 364 114 364t39 -89q0 -91 -17 -277q-37 -235 -153 -235
q-113 0 -153 119z" />
    <glyph glyph-name="uni17BE" unicode="&#x17be;" 
d="M-1000 2000q0 -50 50 -50h520q-130 97 -219.5 123.5t-200.5 26.5q-150 0 -150 -100zM-384 2066v284h134v-450q0 -50 -100 -50h-600q-200 0 -200 150q0 250 300 250q236 0 466 -184z" />
    <glyph glyph-name="uni17BF" unicode="&#x17bf;" horiz-adv-x="580" 
d="M-462 1994h500q-97 77 -178 99.5t-172 22.5q-150 0 -150 -122zM200 1700q0 150 -112 150h-550q-144 0 -144 144q0 256 294 256q109 0 216 -39v189h134v-100l1 -153q58 -35 115 -81v284h134v-403q92 -71 92 -247v-2100q0 -250 -380 -250t-380 250v300h180v-300
q0 -130 200 -130t200 130v2100z" />
    <glyph glyph-name="uni17C0" unicode="&#x17c0;" horiz-adv-x="580" 
d="M380 -400q0 -250 -380 -250t-380 250v300h180v-300q0 -130 200 -130t200 130v2040q0 290 -190 290q-110 0 -171 -63t-103 -67q-41 -4 -87 30q-69 75 -69 191q0 65 20 132.5t20 137.5t-90 70q0 100 100 100q170 0 170 -170q0 -85 -26 -142.5t-26 -127.5v-43q132 72 262 72
q370 0 370 -410v-2040z" />
    <glyph glyph-name="uni17C1" unicode="&#x17c1;" horiz-adv-x="580" 
d="M380 150q60 0 60 150q0 100 -60 100v-250zM200 963q0 106 -200 168q20 101 95.5 235t129.5 134q44 0 115 -43l70 -43q47 -29 120 -14q-10 -70 -40.5 -114.5t-82 -50t-145 52t-156.5 -99.5q274 -88 274 -168v-520q160 0 160 -200q0 -100 -52.5 -200t-157.5 -100
q-130 0 -130 100v863z" />
    <glyph glyph-name="uni17C2" unicode="&#x17c2;" horiz-adv-x="580" 
d="M380 150q60 0 60 150q0 100 -60 100v-250zM200 963q0 106 -200 168q20 101 95.5 235t129.5 134q44 0 115 -43l70 -43q47 -29 120 -14q-10 -70 -40.5 -114.5t-82 -50t-145 52t-156.5 -99.5q274 -88 274 -168v-520q160 0 160 -200q0 -100 -52.5 -200t-157.5 -100
q-130 0 -130 100v863zM220 1800q-55 0 -55 -25t85 -25q67 0 109 48q41 47 41 122q0 55 -30 93q-30 37 -80 37q-90 0 -90 75t90 75q112 0 186 -72q74 -73 74 -208q0 -105 -72 -187q-73 -83 -228 -83q-112 0 -181 31t-69 94t28 94q27 31 82 31t82 -25q28 -25 28 -75z" />
    <glyph glyph-name="uni17C3" unicode="&#x17c3;" horiz-adv-x="580" 
d="M380 150q60 0 60 150q0 100 -60 100v-250zM200 963q0 106 -200 168q20 101 95.5 235t129.5 134q44 0 115 -43l70 -43q47 -29 120 -14q-10 -70 -40.5 -114.5t-82 -50t-145 52t-156.5 -99.5q274 -88 274 -168v-520q160 0 160 -200q0 -100 -52.5 -200t-157.5 -100
q-130 0 -130 100v863zM250 1800q0 -50 50 -50t75 25t25 75q0 70 -25 95t-75 25h-50q-150 0 -150 100q0 80 -100 80q0 100 100 100q78 0 114 -45t36 -135h50q138 0 194 -50t56 -170q0 -100 -56 -150t-194 -50q-200 0 -200 140q0 80 75 80t75 -70z" />
    <glyph glyph-name="uni17C4" unicode="&#x17c4;" horiz-adv-x="688" 
d="M-250 1359q0 37 38 63q114 78 205 78q89 0 175 -67l192 -151q78 -59 78 -154v-1028q0 -100 -94 -100t-94 100v1028l-237 191q-58 44 -95 17l-119 -83q-49 47 -49 106z" />
    <glyph glyph-name="uni17C5" unicode="&#x17c5;" horiz-adv-x="688" 
d="M425 1200q13 -33 13 -72v-1028q0 -100 -94 -100t-94 100v1028l-237 191q-58 44 -95 17l-119 -83q-49 47 -49 106q0 37 38 63q114 78 205 78q89 0 175 -67l158 -124v391q0 100 -100 100q0 100 125 100q163 0 163 -200v-300q0 -74 -89 -200z" />
    <glyph glyph-name="uni17C6" unicode="&#x17c6;" 
d="M-780 2075q0 -50 20 -75t60 -25t60 25t20 75t-20 75t-60 25t-60 -25t-20 -75zM-475 2075q0 -113 -56 -169t-169 -56t-169 56t-56 169t56 169t169 56t169 -56t56 -169z" />
    <glyph glyph-name="uni17C7" unicode="&#x17c7;" horiz-adv-x="850" 
d="M345 1225q0 -50 20 -75t60 -25t60 25t20 75t-20 75t-60 25t-60 -25t-20 -75zM650 1225q0 -113 -56 -169t-169 -56t-169 56t-56 169t56 169t169 56t169 -56t56 -169zM345 275q0 -50 20 -75t60 -25t60 25t20 75t-20 75t-60 25t-60 -25t-20 -75zM650 275q0 -113 -56 -169
t-169 -56t-169 56t-56 169t56 169t169 56t169 -56t56 -169z" />
    <glyph glyph-name="uni17C8" unicode="&#x17c8;" horiz-adv-x="750" 
d="M325 150q-63 0 -94 31t-31 94t31 94t94 31t94 -32q31 -31 31 -94q0 -30 25 -30t75 30q-25 -62 -81 -93q-57 -31 -144 -31zM325 1098q-63 0 -94 31t-31 94t31 94t94 31t94 -32q31 -31 31 -94q0 -30 25 -30t75 30q-25 -62 -81 -93q-57 -31 -144 -31z" />
    <glyph glyph-name="uni17C9" unicode="&#x17c9;" 
d="M-780 2300v-340q0 -80 -82 -110q-83 30 -83 110v340h165zM-455 2300v-340q0 -80 -82 -110q-83 30 -83 110v340h165z" />
    <glyph glyph-name="uni17CA" unicode="&#x17ca;" 
d="M-1156 1610q-119 40 -119 95q0 37 65 80l66 43q131 88 163 88q34 0 145 -79l56 -40q27 -20 55 -20q25 0 51 20l50 40q101 79 137 79q35 0 92 -44l114 -88q56 -44 156 -14q-100 -118 -165 -118q-66 0 -102 28l-73 57q-37 29 -80 29t-111 -57q-69 -57 -109 -57
q-67 0 -108 28l-81 57q-41 29 -84 29q-33 0 -60 -21t-27 -47q0 -24 74 -54z" />
    <glyph glyph-name="uni17CB" unicode="&#x17cb;" 
d="M-615 2350v-380q0 -90 -85 -120q-85 30 -85 120v380h170z" />
    <glyph glyph-name="uni17CC" unicode="&#x17cc;" 
d="M-776 1966q-43 -19 -104 -67q-61 -49 -99 -49q-32 0 -52 27q-13 19 -13 38q0 61 64 106l94 64q142 97 173.5 172t31.5 118q0 100 85 100q84 0 84 -100q-1 -73 -33 -131t-170 -168q104 38 191 19t148 -111q20 -35 20 -62q0 -38 -38 -59q-21 -13 -41 -13q-38 0 -68 50
q-44 75 -112 85q-118 0 -161 -19z" />
    <glyph glyph-name="uni17CD" unicode="&#x17cd;" 
d="M-805 2026q0 -38 12 -56q13 -19 48 -19q50 0 50 18q0 31 70 31t70 -31q0 -59 -44 -89t-141 -30q-127 0 -171 44t-44 131q0 77 45 136t175 59q127 0 175 -59q76 25 141 69q64 43 106 115l11 2q19 0 42 -29q15 -20 15 -34t-12 -24q-45 -63 -105 -113q-61 -49 -136 -86
q-36 -11 -70 -11q-74 70 -137 70q-45 0 -72 -28q-28 -29 -28 -66z" />
    <glyph glyph-name="uni17CE" unicode="&#x17ce;" 
d="M-760 1999h-150v121h150v149h120v-149h150v-121h-150v-149h-120v149z" />
    <glyph glyph-name="uni17CF" unicode="&#x17cf;" 
d="M-480 2500q99 0 99 -75t-99 -75q-35 0 -82 -100l-16 -50h-102q-210 0 -210 -150q0 -100 40 -100t150 136q110 -136 160 -136q30 0 30 50t-50 50q0 100 100 100t100 -150t-175 -150q-95 0 -165 100q-70 -100 -155 -100q-185 0 -185 200q0 250 360 250q73 200 200 200z" />
    <glyph glyph-name="uni17D0" unicode="&#x17d0;" 
d="M-730 2200q130 0 130 -105q0 -95 -75 -95q-65 0 -75 50q0 -99 100 -99q175 0 238 53q62 53 62 159q0 120 -50 120t-50 50t50 50q75 0 138 -55q62 -55 62 -165q0 -157 -112 -235q-113 -78 -338 -78q-125 0 -188 50q-62 50 -62 150q0 150 170 150z" />
    <glyph glyph-name="uni17D1" unicode="&#x17d1;" 
d="M-225 1800v-150h-950v150h950z" />
    <glyph glyph-name="uni17D2" unicode="&#x17d2;" 
d="M-500 -450h-150v-150h-100v150h-150v100h150v150h100v-150h150v-100z" />
    <glyph glyph-name="uni17D3" unicode="&#x17d3;" 
d="M-850 1850q0 -50 37 -75q38 -25 113 -25t113 25q37 25 37 75t-37 75q-38 25 -113 25t-113 -25q-37 -25 -37 -75zM-450 1850q0 -100 -63 -150q-62 -50 -187 -50t-187 50q-63 50 -63 150t63 150q62 50 187 50t187 -50q63 -50 63 -150z" />
    <glyph glyph-name="uni17D4" unicode="&#x17d4;" horiz-adv-x="1430" 
d="M1050 1392v108h180v-1295q0 -117 -62.5 -161t-157.5 -44q-55 0 -82 25q-28 25 -28 76q63 0 106.5 18.5t43.5 85.5v1016l-134 -70q-274 -151 -446 -151q-270 0 -270 250t270 250q100 0 100 -75t-100 -75q-90 0 -90 -100t90 -100q128 0 376 133z" />
    <glyph glyph-name="uni17D5" unicode="&#x17d5;" horiz-adv-x="1750" 
d="M1400 1500h150v-1350q0 -75 -62 -112q-63 -38 -188 -38q50 25 75 62q25 38 25 88v1350zM1050 1392v108h180v-1295q0 -117 -62.5 -161t-157.5 -44q-55 0 -82 25q-28 25 -28 76q63 0 106.5 18.5t43.5 85.5v1016l-134 -70q-274 -151 -446 -151q-270 0 -270 250t270 250
q100 0 100 -75t-100 -75q-90 0 -90 -100t90 -100q128 0 376 133z" />
    <glyph glyph-name="uni17D6" unicode="&#x17d6;" horiz-adv-x="1050" 
d="M425 1225q0 -50 25 -75t75 -25t75 25t25 75t-25 75t-75 25t-75 -25t-25 -75zM750 1225q0 -113 -56 -169t-169 -56t-169 56t-56 169t56 169t169 56t169 -56t56 -169zM425 275q0 -50 25 -75t75 -25t75 25t25 75t-25 75t-75 25t-75 -25t-25 -75zM750 275q0 -113 -56 -169
t-169 -56t-169 56t-56 169t56 169t169 56t169 -56t56 -169zM200 825v-151h650v151h-650z" />
    <glyph glyph-name="uni17D7" unicode="&#x17d7;" horiz-adv-x="1380" 
d="M478 1026q-170 0 -224 48t-54 135q31 72 99 145t173 146l262 -210l289 209h157v-1149q0 -175 -119 -262.5t-327 -87.5q-207 0 -311 44q-104 43 -104 131q0 58 29.5 87t89.5 29q0 -45 74 -93q74 -47 222 -47q121 0 194 62q72 62 72 137v939l-264 -174l-244 184l-97 -90
q0 -30 16 -44q15 -15 67 -15q29 0 44 13q15 12 15 37q30 0 44 -21q15 -22 15 -66t-29 -66q-30 -21 -89 -21z" />
    <glyph glyph-name="uni17D8" unicode="&#x17d8;" horiz-adv-x="4960" 
d="M4580 1392v108h180v-1295q0 -117 -62.5 -161t-157.5 -44q-55 0 -82 25q-28 25 -28 76q63 0 106.5 18.5t43.5 85.5v1016l-134 -70q-274 -151 -446 -151q-270 0 -270 250t270 250q100 0 100 -75t-100 -75q-90 0 -90 -100t90 -100q128 0 376 133zM1810 150q120 0 120 250
q0 100 -120 100v-350zM3330 200q-100 -200 -470 -200t-470 200v1060q-60 120 -290 120t-290 -120v-660q220 0 220 -200t-62.5 -300t-187.5 -100q-150 0 -150 100v1200q100 200 470 200t470 -200v-1060q60 -120 290 -120t290 120v723q0 106 -200 168q20 101 95.5 235
t129.5 134q44 0 115 -43l70 -43q47 -29 120 -14q-10 -70 -40.5 -114.5t-82 -50t-145 52t-156.5 -99.5q274 -88 274 -168v-820zM1050 1392v108h180v-1295q0 -117 -62.5 -161t-157.5 -44q-55 0 -82 25q-28 25 -28 76q63 0 106.5 18.5t43.5 85.5v1016l-134 -70
q-274 -151 -446 -151q-270 0 -270 250t270 250q100 0 100 -75t-100 -75q-90 0 -90 -100t90 -100q128 0 376 133z" />
    <glyph glyph-name="uni17D9" unicode="&#x17d9;" horiz-adv-x="1550" 
d="M775 0q-237 0 -356 175t-119 525t119 525t356 175t356 -175t119 -525t-119 -525t-356 -175zM775 1283q-178 0 -267 -145q-89 -146 -89 -438t89 -438q89 -145 267 -145t267 145q89 146 89 438t-89 438q-89 145 -267 145zM775 233q-119 0 -178 117t-59 350t59 350t178 117
t178 -117t59 -350t-59 -350t-178 -117zM775 1050q-59 0 -89 -87q-30 -88 -30 -263t30 -262q30 -88 89 -88t89 88q30 87 30 262t-30 263q-30 87 -89 87z" />
    <glyph glyph-name="uni17DA" unicode="&#x17da;" horiz-adv-x="3920" 
d="M2921 538q-21 -22 -15 -31q10 -15 25 -2q5 4 -10 33zM1593 979q81 125 54 152q-53 53 -101 -11q-24 -32 35 -123q5 -9 12 -18zM1871 439q-56 -72 -40 -92q35 -41 78 -7q21 17 -38 99zM2211 1018q49 61 38 76q-26 35 -63 8q-18 -13 25 -84zM2438 468q-25 -26 -20 -31
q13 -15 32 -3q6 4 -12 34zM2782 979q28 28 24 32q-12 12 -30 -4q-6 -5 6 -28zM2914 794q23 -29 42 -56q41 18 87 30q115 32 268 32h264q95 0 95 -75t-99 -75h-260q-216 0 -282 -33q20 -41 29 -76q26 -101 -40 -151t-124 -42q-59 7 -110 71t-36 128q15 60 89 120
q-15 22 -32 46q-18 22 -33 43q-46 -42 -102 -87q-78 -64 -133 -110q20 -38 32 -71q42 -120 -26 -171t-128 -42q-61 9 -113 76t12 177q17 28 41 59q-36 49 -86 113l-69 86q-49 -56 -112 -119q-75 -72 -129 -128q44 -65 67 -119q56 -132 -23 -192t-150 -54t-134 80t1 204
q22 45 58 96q-43 48 -99 108q-39 41 -73 80q-67 -96 -160 -208q-223 -267 -418 -400q-196 -134 -363 -134q-207 0 -311 187q-104 188 -104 563t119 562q119 188 356 188q238 0 357 -99q118 -99 118 -297q0 -203 -86 -326q-87 -124 -260 -168q-84 -24 -104 48q-20 73 65 96
q117 30 176 116t59 227q0 126 -81 189q-82 64 -244 64t-243 -150q-82 -150 -81 -450q0 -300 66 -450t199 -150q132 0 294 116t355 348q120 144 197 249q-54 77 -80 142q-57 143 17 228t148 86q73 1 147 -83t-1 -259q-23 -53 -59 -114q42 -49 95 -105q47 -50 86 -96
q49 55 111 116q81 76 138 135q-32 59 -54 125q-44 132 33 190t143 50q67 -8 124 -81t-11 -205q-22 -42 -56 -91q35 -46 81 -103q44 -55 79 -105q46 45 105 94q74 60 125 104q-23 45 -34 83q-30 103 37 153q66 50 126 41q60 -8 114 -75q53 -67 -11 -173q-19 -31 -48 -66
q21 -27 47 -60z" />
    <glyph glyph-name="uni17DB" unicode="&#x17db;" horiz-adv-x="580" 
d="M200 400q-80 0 -80 -100q0 -150 80 -150v250zM380 690v-590q0 -100 -130 -100q-125 0 -177.5 100t-52.5 200q0 200 180 200v190h-155v120h155v153q0 106 -200 168q20 101 95.5 235t129.5 134q44 0 115 -43l70 -43q47 -29 120 -14q-10 -70 -40.5 -114.5t-82 -50t-145 52
t-156.5 -99.5q274 -88 274 -168v-210h115v-120h-115z" />
    <glyph glyph-name="uni17DC" unicode="&#x17dc;" horiz-adv-x="1536" 
d="M256 0v1280h1024v-1280h-1024zM288 32h960v1216h-960v-1216z" />
    <glyph glyph-name="uni17DD" unicode="&#x17dd;" horiz-adv-x="1536" 
d="M256 0v1280h1024v-1280h-1024zM288 32h960v1216h-960v-1216z" />
    <glyph glyph-name="glyph192" horiz-adv-x="1536" 
d="M256 0v1280h1024v-1280h-1024zM288 32h960v1216h-960v-1216z" />
    <glyph glyph-name="glyph193" horiz-adv-x="1536" 
d="M256 0v1280h1024v-1280h-1024zM288 32h960v1216h-960v-1216z" />
    <glyph glyph-name="uni17E0" unicode="&#x17e0;" horiz-adv-x="1450" 
d="M200 600v300q0 225 119 412.5t407 187.5q287 0 405.5 -187.5t118.5 -412.5v-300q0 -225 -118.5 -412.5t-405.5 -187.5q-288 0 -407 187.5t-119 412.5zM380 900v-300q0 -153 76 -304.5t270 -151.5q193 0 268.5 151.5t75.5 304.5v300q0 153 -75.5 304.5t-268.5 151.5
q-194 0 -270 -151.5t-76 -304.5z" />
    <glyph glyph-name="uni17E1" unicode="&#x17e1;" horiz-adv-x="1450" 
d="M1072 233q-179 -233 -522 -233q-100 0 -100 72t100 72q289 0 404.5 191.5t115.5 564.5q0 273 -105.5 364.5t-258.5 91.5q-154 0 -240 -86.5t-86 -239.5q0 -125 52.5 -187.5t149.5 -62.5q71 0 99 70q-81 14 -81 90q0 130 125 130t125 -130q0 -137 -69 -215
q-70 -79 -199 -79q-181 0 -281 109q-101 108 -101 275q0 195 129 333q129 137 377 137q247 0 396 -142q148 -143 148 -458q0 -435 -178 -667z" />
    <glyph glyph-name="uni17E2" unicode="&#x17e2;" horiz-adv-x="1610" 
d="M790 875v-75q48 0 48 50q0 12 -13 19q-12 6 -35 6zM750 0q-270 0 -410 115t-140 285v1050q0 116 -150 116q0 134 130 134q200 0 200 -250v-1050q0 -128 97 -192t273 -64h110q176 0 273 64t97 192v800q0 64 -43.5 98.5t-175.5 -148.5q-130 183 -175.5 148.5t-45.5 -98.5
v-225q74 0 111 -31q37 -32 37 -94q0 -150 -148 -150q-180 0 -180 100v400q0 122 109 211t139 89t153 -174q123 174 152 174q30 0 138 -89q109 -89 109 -211v-800q0 -170 -140 -285t-410 -115h-110z" />
    <glyph glyph-name="uni17E3" unicode="&#x17e3;" horiz-adv-x="1710" 
d="M380 175v-75q48 0 48 50q0 12 -13 19q-12 6 -35 6zM770 1150q0 216 -195 216t-195 -216v-875q74 0 111 -31q37 -32 37 -94q0 -150 -148 -150q-180 0 -180 100v1050q0 350 375 350q197 0 291 -87q94 87 271 87q373 0 373 -350v-1050q0 -100 -90 -100t-90 100v1050
q0 216 -193 216q-187 0 -187 -216v-1050q0 -100 -90 -100t-90 100v1050z" />
    <glyph glyph-name="uni17E4" unicode="&#x17e4;" horiz-adv-x="1450" 
d="M1130 700q10 10 10 35q0 31 -40 51v-97q20 0 30 11zM200 800q0 344 365 454l283 91q222 68 222 185q0 70 -108 70q0 100 100 100q188 0 188 -170q0 -210 -342 -318l-304 -95q-224 -79 -224 -317v-500q0 -58 82 -107t188 -49h412q-142 227 -142 306v250q0 200 126 200
q74 0 119.5 -24.5t65 -69t19.5 -101.5q0 -55 -35 -105t-115 -50v-100q0 -101 75 -213l75 -112v-125h-600q-200 0 -325 100t-125 200v500z" />
    <glyph glyph-name="uni17E5" unicode="&#x17e5;" horiz-adv-x="1450" 
d="M622 1212q34 34 34 66q0 88 -78 88t-78 -88q0 -44 122 -66zM1130 600q10 10 10 35q0 31 -40 51v-97q20 0 30 11zM765 1187l201 -26q104 -17 104 139v230q0 170 160 170q120 0 120 -100q-100 0 -100 -70v-230q0 -300 -225 -300l-386 65q-31 -20 -69 -40
q-190 -69 -190 -315v-410q0 -58 82 -107t188 -49h412q-142 177 -142 256v200q0 200 126 200q74 0 119.5 -24.5t65 -69t19.5 -101.5q0 -55 -35 -105t-115 -50v-50q0 -101 150 -275v-125h-600q-200 0 -325 100t-125 200v410q0 280 266 407q-100 55 -100 161q0 222 212 222
t212 -222q0 -47 -25 -91z" />
    <glyph glyph-name="uni17E6" unicode="&#x17e6;" horiz-adv-x="1450" 
d="M380 1365q138 135 351 135q252 0 385.5 -157.5t133.5 -542.5v-200q0 -285 -133.5 -442.5t-390.5 -157.5q-288 0 -407 142q-119 143 -119 328q0 153 91 241q70 89 251 89q129 0 193.5 -58.5t64.5 -195.5q0 -100 -100 -100t-100 100q0 56 31 80q-28 40 -89 40
q-162 0 -162 -196q0 -143 76 -234.5t270 -91.5q163 0 253.5 106.5t90.5 349.5v200q0 343 -90.5 449.5t-248.5 106.5q-229 0 -351 -256q0 -100 -96 -100q-84 0 -84 100v400q0 116 -150 116q0 134 130 134q200 0 200 -250v-135z" />
    <glyph glyph-name="uni17E7" unicode="&#x17e7;" horiz-adv-x="1680" 
d="M380 222q98 90 98 167q0 40 -27 59q-27 18 -71 18v-244zM1225 144q75 0 75 56v1250q0 116 -150 116q0 134 130 134q200 0 200 -250v-1250q0 -200 -255 -200t-255 200v1000q0 64 -78.5 116.5t-215.5 -117.5q-138 170 -217 117.5t-79 -116.5v-600q145 0 189 -59
q43 -60 43 -126q0 -78 -40 -165q-40 -88 -116 -169t-132 -81q-124 0 -124 100v1100q0 122 116 211t179 89q52 0 181 -134q128 134 181 134q62 0 177 -89q116 -89 116 -211v-1000q0 -56 75 -56z" />
    <glyph glyph-name="uni17E8" unicode="&#x17e8;" horiz-adv-x="1450" 
d="M1070 589v97q-60 -20 -60 -51q0 -25 10 -35q10 -11 50 -11zM200 1000q0 215 118 357q119 143 391 143q223 0 361 -135v135q0 250 200 250q130 0 130 -134q-150 0 -150 -116v-350q0 -100 -94 -100q-72 0 -94 50q-114 256 -353 256q-178 0 -253.5 -91.5t-75.5 -264.5v-700
q0 -64 97 -116.5t249 137.5q152 -190 248 -137.5t96 116.5v150q-100 0 -135 50t-35 105q0 57 19.5 101.5t65 69t131.5 24.5q134 0 134 -200v-300q0 -122 -128 -211q-127 -89 -196 -89q-58 0 -200 144q-142 -144 -200 -144q-70 0 -198 89t-128 211v700z" />
    <glyph glyph-name="uni17E9" unicode="&#x17e9;" horiz-adv-x="1450" 
d="M1004 237l77 53q-20 33 -49 21q-23 -9 -29 -22q-7 -13 1 -52zM914 187q-49 94 -25 145t75 71q53 21 102 19q48 -2 91 -35q43 -34 43 -138q0 -105 -146 -177q-147 -72 -354 -72q-248 0 -366 104q-134 117 -134 346q0 170 74 281q75 112 224 165q-98 87 -98 254
q0 187 103 274q89 76 276 76q153 0 291 -135v135q0 116 -158 116q0 134 130 134q208 0 208 -250v-300q0 -100 -94 -100q-72 0 -94 50q-144 216 -283 216q-87 0 -143 -47.5t-56 -163.5q0 -105 64.5 -158t185.5 -53q194 0 364 -137q56 -49 56 -139q0 -91 -115 21
q-115 111 -305 111q-221 0 -335.5 -87.5t-114.5 -262.5q0 -157 82.5 -231.5t237.5 -74.5q106 0 214 43z" />
    <glyph glyph-name="glyph204" horiz-adv-x="1536" 
d="M256 0v1280h1024v-1280h-1024zM288 32h960v1216h-960v-1216z" />
    <glyph glyph-name="glyph205" horiz-adv-x="1536" 
d="M256 0v1280h1024v-1280h-1024zM288 32h960v1216h-960v-1216z" />
    <glyph glyph-name="glyph206" horiz-adv-x="1536" 
d="M256 0v1280h1024v-1280h-1024zM288 32h960v1216h-960v-1216z" />
    <glyph glyph-name="glyph207" horiz-adv-x="1536" 
d="M256 0v1280h1024v-1280h-1024zM288 32h960v1216h-960v-1216z" />
    <glyph glyph-name="glyph208" horiz-adv-x="1536" 
d="M256 0v1280h1024v-1280h-1024zM288 32h960v1216h-960v-1216z" />
    <glyph glyph-name="glyph209" horiz-adv-x="1536" 
d="M256 0v1280h1024v-1280h-1024zM288 32h960v1216h-960v-1216z" />
    <glyph glyph-name="uni17F0" unicode="&#x17f0;" horiz-adv-x="1536" 
d="M256 0v1280h1024v-1280h-1024zM288 32h960v1216h-960v-1216z" />
    <glyph glyph-name="uni17F1" unicode="&#x17f1;" horiz-adv-x="1536" 
d="M256 0v1280h1024v-1280h-1024zM288 32h960v1216h-960v-1216z" />
    <glyph glyph-name="uni17F2" unicode="&#x17f2;" horiz-adv-x="1536" 
d="M256 0v1280h1024v-1280h-1024zM288 32h960v1216h-960v-1216z" />
    <glyph glyph-name="uni17F3" unicode="&#x17f3;" horiz-adv-x="1536" 
d="M256 0v1280h1024v-1280h-1024zM288 32h960v1216h-960v-1216z" />
    <glyph glyph-name="uni17F4" unicode="&#x17f4;" horiz-adv-x="1536" 
d="M256 0v1280h1024v-1280h-1024zM288 32h960v1216h-960v-1216z" />
    <glyph glyph-name="uni17F5" unicode="&#x17f5;" horiz-adv-x="1536" 
d="M256 0v1280h1024v-1280h-1024zM288 32h960v1216h-960v-1216z" />
    <glyph glyph-name="uni17F6" unicode="&#x17f6;" horiz-adv-x="1536" 
d="M256 0v1280h1024v-1280h-1024zM288 32h960v1216h-960v-1216z" />
    <glyph glyph-name="uni17F7" unicode="&#x17f7;" horiz-adv-x="1536" 
d="M256 0v1280h1024v-1280h-1024zM288 32h960v1216h-960v-1216z" />
    <glyph glyph-name="uni17F8" unicode="&#x17f8;" horiz-adv-x="1536" 
d="M256 0v1280h1024v-1280h-1024zM288 32h960v1216h-960v-1216z" />
    <glyph glyph-name="uni17F9" unicode="&#x17f9;" horiz-adv-x="1536" 
d="M256 0v1280h1024v-1280h-1024zM288 32h960v1216h-960v-1216z" />
    <glyph glyph-name="glyph220" horiz-adv-x="1536" 
d="M256 0v1280h1024v-1280h-1024zM288 32h960v1216h-960v-1216z" />
    <glyph glyph-name="glyph221" horiz-adv-x="1536" 
d="M256 0v1280h1024v-1280h-1024zM288 32h960v1216h-960v-1216z" />
    <glyph glyph-name="glyph222" horiz-adv-x="1536" 
d="M256 0v1280h1024v-1280h-1024zM288 32h960v1216h-960v-1216z" />
    <glyph glyph-name="glyph223" horiz-adv-x="1536" 
d="M256 0v1280h1024v-1280h-1024zM288 32h960v1216h-960v-1216z" />
    <glyph glyph-name="glyph224" horiz-adv-x="1536" 
d="M256 0v1280h1024v-1280h-1024zM288 32h960v1216h-960v-1216z" />
    <glyph glyph-name="glyph225" horiz-adv-x="1536" 
d="M256 0v1280h1024v-1280h-1024zM288 32h960v1216h-960v-1216z" />
    <glyph glyph-name="glyph229" horiz-adv-x="580" 
d="M380 -410q0 -140 -71.5 -190t-187.5 -50t-186 14q-69 14 -87 41q-17 -27 -71 -41t-152 -14q-150 0 -225 50t-75 150v100q-78 0 -101.5 25t-23.5 80q0 45 125 145h168v-311q0 -139 132 -139q141 0 141 140v310h168v-310q0 -140 133 -140t133 140v1373q0 106 -200 168
q20 101 95.5 235t129.5 134q44 0 115 -43l70 -43q47 -29 120 -14q-10 -70 -40.5 -114.5t-82 -50t-145 52t-156.5 -99.5q274 -88 274 -168v-1430z" />
    <glyph glyph-name="glyph234" horiz-adv-x="580" 
d="M380 -410q0 -140 -71.5 -190t-213.5 -50q-80 0 -150 14q-69 14 -87 41q-17 -27 -71 -41t-152 -14q-150 0 -220 50t-70 200v80q0 120 -122 120t-122 -120v-80h25q75 0 75 -50q0 -48 -50 -125q-50 -75 -153 -75q-65 0 -65 100v231q0 119 70 169t220 50t225 -50
q65 -50 65 -170v-91q0 -139 122 -139q141 0 141 140v310h168v-310q0 -140 151 -140q105 0 105 140v1373q0 106 -200 168q20 101 95.5 235t129.5 134q44 0 115 -43l70 -43q47 -29 120 -14q-10 -70 -40.5 -114.5t-82 -50t-145 52t-156.5 -99.5q274 -88 274 -168v-1430z" />
    <glyph glyph-name="glyph236" 
d="M-325 -430h-150v120q-228 127 -272 127q-45 0 -228 -73v-174h-150v198q-68 64 -101 64t-139 -102q-136 102 -161 102q-32 0 -99 -62v-22q100 0 100 -50q0 -48 -35 -88t-110 -40q-105 0 -105 141q0 80 100 159.5t146 79.5q39 0 164 -100q105 100 143 100q37 0 189 -122
q278 122 328 122t215 -80l83 -40q82 -40 82 -150v-110zM-325 -600q0 -75 -87 -112q-88 -38 -263 -38q-250 0 -445 75t-355 75q-175 0 -300 -90v50q0 50 62.5 95t237.5 45q200 0 400 -75t400 -75t200 50t-100 50q0 100 100 100q75 0 113 -38q37 -37 37 -112z" />
    <glyph glyph-name="glyph240" horiz-adv-x="580" 
d="M-952 -475v-75q41 0 41 50q0 12 -11 19q-10 6 -30 6zM380 -399q0 -251 -275 -251q-150 0 -225 110t-125 110h-25v-100q0 -120 -105 -120q-65 0 -115 85t-50 135t25 75q24 24 69 25h-1q0 64 -63 106.5t-189 -107.5q-127 150 -190 107.5t-63 -106.5v-45q63 0 94 -31
q31 -32 31 -94q0 -150 -125 -150q-178 0 -178 100v220q0 122 107.5 201t160.5 79q44 0 163 -114q119 114 163 114q52 0 159 -79t107 -201h25q80 0 160 -110t190 -110q95 0 95 151v1362q0 106 -200 168q20 101 95.5 235t129.5 134q44 0 115 -43l70 -43q47 -29 120 -14
q-10 -70 -40.5 -114.5t-82 -50t-145 52t-156.5 -99.5q274 -88 274 -168v-1419z" />
    <glyph glyph-name="glyph247" horiz-adv-x="580" 
d="M0 -308l200 -200v1471q0 106 -200 168q20 101 95.5 235t129.5 134q44 0 115 -43l70 -43q47 -29 120 -14q-10 -70 -40.5 -114.5t-82 -50t-145 52t-156.5 -99.5q274 -88 274 -168v-1570q0 -100 -80 -100q-100 0 -162 63l-162 163l-163 -163q-63 -63 -163 -63q-68 0 -68 100
v300q0 150 154 150q54 0 90 -20t36 -70q0 -100 -112 -160v-158l200 200q25 25 50 0z" />
    <glyph glyph-name="glyph252" horiz-adv-x="580" 
d="M380 -400q0 -250 -405 -250q-393 0 -393 250v201q0 99 104 99q64 0 120 -54q56 -55 56 -105q0 -90 -112 -90v-51q0 -150 225 -150t225 150v1363q0 106 -200 168q20 101 95.5 235t129.5 134q44 0 115 -43l70 -43q47 -29 120 -14q-10 -70 -40.5 -114.5t-82 -50t-145 52
t-156.5 -99.5q274 -88 274 -168v-1420z" />
    <glyph glyph-name="glyph256" horiz-adv-x="580" 
d="M380 100h150v-100h-150v-400q0 -250 -399 -250t-399 250v50q-112 0 -112 90q0 50 56 105t120 55q104 0 104 -100v-200q0 -150 225 -150t225 150v400h-150v100h150v863q0 106 -200 168q20 101 95.5 235t129.5 134q44 0 115 -43l70 -43q47 -29 120 -14
q-10 -70 -40.5 -114.5t-82 -50t-145 52t-156.5 -99.5q274 -88 274 -168v-920z" />
    <glyph glyph-name="glyph259" 
d="M-325 -782v-418h-150v334q-80 0 -80 84q0 82 120 82q110 0 110 -82z" />
    <glyph glyph-name="glyph260" 
d="M-611 -1200q-229 0 -229 142q0 40 19 92l50 115q-80 0 -80 76q0 75 120 75q174 0 102 -190l-41 -98q-38 -92 59 -92t160 171q72 209 126 209q25 0 25 -50q0 -68 -38 -216q-58 -234 -273 -234z" />
    <glyph glyph-name="glyph261" 
d="M-623 -1100q-92 -100 -177 -100q-146 0 -146 102q0 59 58 152l62 95q-84 0 -84 76q0 75 120 75q100 0 130 -50.5t-26 -142.5l-60 -93q-69 -111 -14 -111q52 0 193 148q21 -148 57 -148q33 0 57 95q75 302 114 302t39 -73q0 -76 -17 -230q-37 -197 -153 -197
q-113 0 -153 100z" />
    <glyph glyph-name="glyph262" 
d="M-1150 2150q0 250 300 250q260 0 515 -225q85 -75 85 -125t-100 -50h-600q-200 0 -200 150zM-1000 2150q0 -50 50 -50h520q-130 97 -219.5 123.5t-200.5 26.5q-150 0 -150 -100z" />
    <glyph glyph-name="glyph263" 
d="M-1000 2150q0 -50 50 -50h520q-130 97 -219.5 123.5t-200.5 26.5q-150 0 -150 -100zM-384 2216v284h134v-450q0 -50 -100 -50h-600q-200 0 -200 150q0 250 300 250q236 0 466 -184z" />
    <glyph glyph-name="glyph264" 
d="M-1000 2150q0 -50 50 -50h520q-144 85 -241.5 117.5t-198.5 32.5q-130 0 -130 -100zM-646 2345v4q11 75 60 113q50 38 136 38q100 0 150 -50t50 -150q0 -115 -66 -164l-2 -2q68 -57 68 -84q0 -50 -100 -50h-600q-200 0 -200 150q0 250 280 250q108 0 224 -55zM-529 2281
q24 -15 49 -31q24 -15 45 -30q65 8 65 80q0 80 -80 80t-80 -80q0 -6 1 -19z" />
    <glyph glyph-name="glyph265" 
d="M-1000 2150q0 -50 50 -50h520q-130 97 -219.5 123.5t-200.5 26.5q-150 0 -150 -100zM-634 2361v139h134v-203q59 -35 116 -81v284h134v-450q0 -50 -100 -50h-600q-200 0 -200 150q0 250 300 250q109 0 216 -39z" />
    <glyph glyph-name="glyph266" 
d="M-805 2225q0 -50 20 -75t60 -25t60 25t20 75t-20 75t-60 25t-60 -25t-20 -75zM-500 2225q0 -113 -56 -169t-169 -56t-169 56t-56 169t56 169t169 56t169 -56t56 -169z" />
    <glyph glyph-name="glyph267" 
d="M-785 2149h-150v121h150v149h120v-149h150v-121h-150v-149h-120v149z" />
    <glyph glyph-name="glyph268" 
d="M-730 2317q130 0 130 -105q0 -95 -75 -95q-65 0 -75 50q0 -99 100 -99q175 0 238 53q62 53 62 159q0 120 -50 120t-50 50t50 50q75 0 138 -55q62 -55 62 -165q0 -157 -112 -235q-113 -78 -338 -78q-125 0 -188 50q-62 50 -62 150q0 150 170 150z" />
    <glyph glyph-name="glyph269" horiz-adv-x="2100" 
d="M380 150q120 0 120 250q0 100 -120 100v-350zM1020 1200q0 104 -69.5 141.5t-250.5 -141.5q-180 179 -250 141.5t-70 -141.5v-600q220 0 220 -200t-62.5 -300t-187.5 -100q-150 0 -150 100v1100q0 122 110 211t169 89q50 0 221 -134q172 134 222 134q59 0 168 -89
q16 -13 29 -26q110 115 341 115q440 0 440 -419v-1081h-180v1081q0 299 -260 299t-260 -299v-1081h-180v1200z" />
    <glyph glyph-name="glyph270" 
d="M-1662 -470v-67q50 19 50 46q0 21 -50 21zM-1812 -350q0 130 110 190t290 60t290 -60t110 -190v-300h-150v300q0 80 -72.5 115t-177.5 35t-177.5 -35t-72.5 -115v-20q75 0 113 -30q37 -30 37 -90q0 -70 -75 -115l-75 -45h-150v300z" />
    <glyph glyph-name="glyph271" 
d="M-1012 -782v-418h-150v334q-80 0 -80 84q0 82 120 82q110 0 110 -82z" />
    <glyph glyph-name="glyph272" 
d="M-1273 -1200q-229 0 -229 142q0 40 19 92l50 115q-80 0 -80 76q0 75 120 75q174 0 102 -190l-41 -98q-38 -92 59 -92t160 171q72 209 126 209q25 0 25 -50q0 -68 -38 -216q-58 -234 -273 -234z" />
    <glyph glyph-name="glyph273" 
d="M-1285 -1100q-92 -100 -177 -100q-146 0 -146 102q0 59 58 152l62 95q-84 0 -84 76q0 75 120 75q100 0 130 -50.5t-26 -142.5l-60 -93q-69 -111 -14 -111q52 0 193 148q21 -148 57 -148q33 0 57 95q75 302 114 302t39 -73q0 -76 -17 -230q-37 -197 -153 -197
q-113 0 -153 100z" />
    <glyph glyph-name="glyph275" horiz-adv-x="580" 
d="M-462 1994h500q-97 77 -178 99.5t-172 22.5q-150 0 -150 -122zM380 -950q0 -250 -380 -250t-380 250v250h180v-250q0 -130 200 -130t200 130v2650q0 150 -112 150h-550q-144 0 -144 144q0 256 294 256q109 0 216 -39v189h134v-100l1 -153q58 -35 115 -81v284h134v-403
q92 -71 92 -247v-2650z" />
    <glyph glyph-name="glyph276" horiz-adv-x="580" 
d="M200 1640q0 290 -190 290q-110 0 -171 -63t-103 -67q-41 -4 -87 30q-69 75 -69 191q0 65 20 132.5t20 137.5t-90 70q0 100 100 100q170 0 170 -170q0 -85 -26 -142.5t-26 -127.5v-43q132 72 262 72q370 0 370 -410v-2590q0 -250 -380 -250t-380 250v250h180v-250
q0 -130 200 -130t200 130v2590z" />
    <glyph glyph-name="glyph277" horiz-adv-x="580" 
d="M380 -981q0 -128 -71.5 -173.5t-187.5 -45.5t-186 13q-69 13 -87 37q-17 -24 -71 -37t-152 -13q-150 0 -225 46q-75 45 -75 136v91q-78 0 -101.5 23t-23.5 73q0 41 125 131h168v-282q0 -127 132 -127q141 0 141 128v281h168v-281q0 -128 133 -128t133 128v1944
q0 106 -200 168q20 101 95.5 235t129.5 134q44 0 115 -43l70 -43q47 -29 120 -14q-10 -70 -40.5 -114.5t-82 -50t-145 52t-156.5 -99.5q274 -88 274 -168v-2001z" />
    <glyph glyph-name="glyph278" horiz-adv-x="580" 
d="M380 -981q0 -128 -71.5 -173.5t-213.5 -45.5q-80 0 -150 13q-69 13 -87 37q-17 -24 -71 -37t-152 -13q-150 0 -220 45.5t-70 182.5v72q0 110 -122 110t-122 -110v-72h25q75 0 75 -46q0 -43 -50 -113q-50 -69 -153 -69q-65 0 -65 91v210q0 109 70 154t220 45t225 -45
q65 -45 65 -155v-82q0 -127 122 -127q141 0 141 128v281h168v-281q0 -128 151 -128q105 0 105 128v1944q0 106 -200 168q20 101 95.5 235t129.5 134q44 0 115 -43l70 -43q47 -29 120 -14q-10 -70 -40.5 -114.5t-82 -50t-145 52t-156.5 -99.5q274 -88 274 -168v-2001z" />
    <glyph glyph-name="glyph279" horiz-adv-x="580" 
d="M-952 -1054v-62q41 0 41 41q0 10 -11 16q-10 5 -30 5zM380 -990q0 -210 -275 -210q-150 0 -225 92t-125 92h-25v-84q0 -100 -105 -100q-65 0 -115 71t-50 113q0 41 25 62q24 20 69 21h-1q0 53 -63 88.5t-189 -89.5q-127 125 -190 89.5t-63 -88.5v-37q63 0 94 -26
q31 -27 31 -79q0 -125 -125 -125q-178 0 -178 84v183q0 102 107.5 167.5t160.5 65.5q44 0 163 -95q119 95 163 95q52 0 159 -65.5t107 -167.5h25q80 0 160 -91.5t190 -91.5q95 0 95 126v1953q0 106 -200 168q20 101 95.5 235t129.5 134q44 0 115 -43l70 -43q47 -29 120 -14
q-10 -70 -40.5 -114.5t-82 -50t-145 52t-156.5 -99.5q274 -88 274 -168v-2010z" />
    <glyph glyph-name="glyph280" horiz-adv-x="580" 
d="M380 -1109q0 -91 -80 -91q-100 0 -162 58l-162 148l-163 -148q-63 -58 -163 -58q-68 0 -68 91v273q0 136 154 136q54 0 90 -18t36 -63q0 -91 -112 -146v-143l200 181q25 23 50 0l200 -181v2033q0 106 -200 168q20 101 95.5 235t129.5 134q44 0 115 -43l70 -43
q47 -29 120 -14q-10 -70 -40.5 -114.5t-82 -50t-145 52t-156.5 -99.5q274 -88 274 -168v-2129z" />
    <glyph glyph-name="glyph281" horiz-adv-x="580" 
d="M380 -972q0 -228 -405 -228q-393 0 -393 228v182q0 90 104 90q64 0 120 -49q56 -50 56 -95q0 -82 -112 -82v-46q0 -137 225 -137t225 137v1935q0 106 -200 168q20 101 95.5 235t129.5 134q44 0 115 -43l70 -43q47 -29 120 -14q-10 -70 -40.5 -114.5t-82 -50t-145 52
t-156.5 -99.5q274 -88 274 -168v-1992z" />
    <glyph glyph-name="glyph282" horiz-adv-x="580" 
d="M380 -950q0 -150 200 -150t200 150v250h180v-250q0 -250 -380 -250t-380 250v1913q0 106 -200 168q20 101 95.5 235t129.5 134q44 0 115 -43l70 -43q47 -29 120 -14q-10 -70 -40.5 -114.5t-82 -50t-145 52t-156.5 -99.5q274 -88 274 -168v-1970z" />
    <glyph glyph-name="glyph283" horiz-adv-x="580" 
d="M380 -972q0 -228 -399 -228t-399 228v45q-112 0 -112 82q0 45 56 95t120 50q104 0 104 -90v-182q0 -137 225 -137t225 137v972h-150v100h150v863q0 106 -200 168q20 101 95.5 235t129.5 134q44 0 115 -43l70 -43q47 -29 120 -14q-10 -70 -40.5 -114.5t-82 -50t-145 52
t-156.5 -99.5q274 -88 274 -168v-920h150v-100h-150v-972z" />
    <glyph glyph-name="glyph284" 
d="M-900 2000q0 250 300 250q260 0 515 -225q85 -75 85 -125t-100 -50h-600q-200 0 -200 150zM-750 2000q0 -50 50 -50h520q-130 97 -219.5 123.5t-200.5 26.5q-150 0 -150 -100z" />
    <glyph glyph-name="glyph285" 
d="M-750 2000q0 -50 50 -50h520q-130 97 -219.5 123.5t-200.5 26.5q-150 0 -150 -100zM-134 2066v284h134v-450q0 -50 -100 -50h-600q-200 0 -200 150q0 250 300 250q236 0 466 -184z" />
    <glyph glyph-name="glyph286" 
d="M-750 2000q0 -50 50 -50h520q-144 85 -241.5 117.5t-198.5 32.5q-130 0 -130 -100zM-396 2195v4q11 75 60 113q50 38 136 38q100 0 150 -50t50 -150q0 -115 -66 -164l-2 -2q68 -57 68 -84q0 -50 -100 -50h-600q-200 0 -200 150q0 250 280 250q108 0 224 -55zM-279 2131
q24 -15 49 -31q24 -15 45 -30q65 8 65 80q0 80 -80 80t-80 -80q0 -6 1 -19z" />
    <glyph glyph-name="glyph287" 
d="M-750 2000q0 -50 50 -50h520q-130 97 -219.5 123.5t-200.5 26.5q-150 0 -150 -100zM-384 2211v139h134v-203q59 -35 116 -81v284h134v-450q0 -50 -100 -50h-600q-200 0 -200 150q0 250 300 250q109 0 216 -39z" />
    <glyph glyph-name="glyph288" 
d="M-505 2075q0 -50 20 -75t60 -25t60 25t20 75t-20 75t-60 25t-60 -25t-20 -75zM-200 2075q0 -113 -56 -169t-169 -56t-169 56t-56 169t56 169t169 56t169 -56t56 -169z" />
    <glyph glyph-name="glyph289" 
d="M-525 2300v-340q0 -80 -82 -110q-83 30 -83 110v340h165zM-200 2300v-340q0 -80 -82 -110q-83 30 -83 110v340h165z" />
    <glyph glyph-name="glyph290" 
d="M-560 2026q0 -38 12 -56q13 -19 48 -19q50 0 50 18q0 31 70 31t70 -31q0 -59 -44 -89t-141 -30q-127 0 -171 44t-44 131q0 77 45 136t175 59q127 0 175 -59q76 25 141 69q64 43 106 115l11 2q19 0 42 -29q15 -20 15 -34t-12 -24q-45 -63 -105 -113q-61 -49 -136 -86
q-36 -11 -70 -11q-74 70 -137 70q-45 0 -72 -28q-28 -29 -28 -66z" />
    <glyph glyph-name="glyph291" 
d="M-750 1994h500q-97 77 -178 99.5t-172 22.5q-150 0 -150 -122zM-56 1998q56 -57 56 -98q0 -50 -100 -50h-650q-144 0 -144 144q0 256 294 256q125 0 248 -51q8 56 42 102q45 59 175 59q127 0 175 -59q76 25 141 69q64 43 106 115l11 2q19 0 42 -29q15 -20 15 -34t-12 -24
q-45 -63 -105 -113q-61 -49 -136 -86q-36 -11 -70 -11q-74 70 -137 70q-45 0 -72 -28q-28 -29 -28 -66q0 -28 11 -55l28 -20q71 2 71 18q0 31 70 31t70 -31q0 -59 -44 -89q-20 -14 -57 -22z" />
    <glyph glyph-name="glyph292" horiz-adv-x="2162" 
 />
    <glyph glyph-name="glyph293" horiz-adv-x="2162" 
 />
    <glyph glyph-name="glyph294" 
d="M-344 -200q-105 0 -177.5 -35t-72.5 -115v-300h-150v300q0 130 110 190t290 60t290 -60t110 -190v-300h-150v300q0 80 -72.5 115t-177.5 35z" />
    <glyph glyph-name="glyph295" 
d="M-344 -650q-200 0 -300 47q-100 46 -100 138q0 78 67 87l315 45q136 18 200 50q65 30 65 67q0 38 -62 56q-61 19 -185 19q-166 0 -206 -29q-44 -32 -44 -110q-150 0 -150 92q0 69 100 104q100 34 300 34t300 -42q100 -43 100 -129q0 -76 -87 -126q-87 -51 -261 -74
l-303 -42q0 -47 63 -70q62 -24 188 -24q125 0 188 28q62 27 62 79h150q0 -79 -100 -139q-100 -61 -300 -61z" />
    <glyph glyph-name="glyph296" 
d="M-594 -500l101 100q100 100 149 100q100 0 100 -75t-100 -75q-50 0 -150 -100l-100 -100h-150v300q0 130 110 190t290 60t290 -60t110 -190v-300h-150v300q0 80 -72.5 115t-177.5 35t-177.5 -35t-72.5 -115v-150z" />
    <glyph glyph-name="glyph297" 
d="M-444 -650q-150 0 -225 62q-75 63 -75 188q0 100 37 150q38 50 113 50q50 0 75 -25t25 -50t-25 -25t-50 -25t-25 -75q0 -55 37 -92q38 -38 113 -38q77 0 146 31t114 84t77 147q32 93 40 143t30 62.5t53 12.5q40 0 40 -60q-13 -90 -50 -202q-37 -113 -100 -188t-150 -112
q-87 -38 -200 -38z" />
    <glyph glyph-name="glyph298" 
d="M-474 -130q0 79 75 79t75 -79q0 -69 -45 -137q-45 -69 -112 -117q-68 -48 -163 -81q0 -43 37 -64q38 -21 113 -21q60 0 119 29q60 29 119 86l50 49q-88 34 -88 116q0 70 37 104q38 35 113 35q65 0 97 -35q33 -34 33 -104q0 -18 -16 -46h36q27 0 100 37q0 -93 -102 -130
h-48q-13 0 -25.5 0.5t-23.5 1.5q-13 -17 -28.5 -36t-32.5 -40q-70 -83 -155 -125t-185 -42q-150 0 -225 46t-75 139q0 95 50 101q105 14 159 50t83 98q28 61 28 86zM-114 -270q6 12 6 21q0 22 -36 22q-50 0 -50 -43q0 -28 55 -38q18 22 25 38z" />
    <glyph glyph-name="glyph299" 
d="M-544 -100v-210h50q100 0 175 -102l75 -73q50 -65 100 -65t75 38q25 37 25 113v100h-37q-32 0 -47.5 20t-15.5 54q0 27 50 76t125 49t75 -104v-195q0 -126 -63 -188q-62 -63 -187 -63q-100 0 -175 102l-75 73q-50 65 -100 65h-50v-240h-150l-50 100q-50 80 -50 140
q0 50 25 75t75 25v210h150z" />
    <glyph glyph-name="glyph300" 
d="M-154 -650q-41 0 -94 26q-53 27 -107 80l-37 35l-39 -35q-60 -54 -110 -80t-91 -26q-110 0 -160 93t-50 198q0 119 50 189t150 70q50 0 50 -50t-50 -50q-25 0 -37 -45q-13 -45 -13 -114q0 -55 12.5 -108t67.5 -53q35 0 220 148q178 -148 230 -148q44 0 56.5 48t13.5 74
q-12 -1 -24.5 -1.5t-25.5 -0.5q-75 0 -113 38q-37 37 -37 112t37 112q38 38 113 38q80 0 128 -45t64 -134q59 21 72 21q33 0 33 -43q0 -35 -50 -55q-11 -4 -22.5 -8t-24.5 -8v-8q0 -85 -51 -178q-50 -92 -161 -92zM-142 -200q-25 0 -37 -12q-13 -13 -13 -38q0 -50 48 -50h37
q11 0 12 1q-11 99 -47 99z" />
    <glyph glyph-name="glyph301" 
d="M86 -300q0 -150 -67 -225q-68 -75 -203 -75q-113 0 -197 36t-139 109q-79 103 -139 154q-62 51 -105 51q-53 0 -90 -22q-37 -23 -60 -68v50q0 50 38 95q37 45 112 45q99 0 191 -55t177 -166q49 -65 103 -97q52 -32 109 -32q60 0 90 50t30 150q0 50 -25 75t-75 25
q0 50 25 75t75 25q75 0 113 -50q37 -50 37 -150z" />
    <glyph glyph-name="glyph302" 
 />
    <glyph glyph-name="glyph303" 
d="M-594 -470v-67q50 19 50 46q0 21 -50 21zM-744 -350q0 130 110 190t290 60t290 -60t110 -190v-300h-150v300q0 80 -72.5 115t-177.5 35t-177.5 -35t-72.5 -115v-20q75 0 113 -30q37 -30 37 -90q0 -70 -75 -115l-75 -45h-150v300z" />
    <glyph glyph-name="glyph304" 
d="M-144 -119q0 34 25 52q25 17 75 17t75 -35q25 -34 25 -103v-376q0 -43 -27 -64q-26 -22 -80 -22l-276 146l-113 -110q-38 -36 -59 -36t-49 40l-170 236q-25 34 -25 93q0 57 88 69q91 12 164 18q74 5 137 5h261q-26 1 -38 19q-13 17 -13 51zM-94 -301h-273q-60 0 -116 -5
q-55 -5 -110 -16l110 -158l140 116l249 -106v169z" />
    <glyph glyph-name="glyph305" 
d="M-594 -221q70 0 70 -31q0 -35 -35 -66t-110 -31t-75 65v53q0 53 85 117t135 64t180 -96q130 96 180 96t135 -64t85 -125q0 -56 -65 -96q-64 -39 -196 -74l-389 -103q50 -21 125 -21q74 0 186 19t189 98l150 24v-197q0 -43 -25 -64q-25 -22 -175 -22q50 43 50 86v42
q-89 -50 -202 -76.5t-248 -26.5q-100 0 -150 35t-50 104q0 75 67 91l449 113q67 20 101 42q33 21 33 46q0 31 -27 45q-28 13 -51 13q-24 0 -172 -114q-156 114 -179 114t-47 -14t-24 -46z" />
    <glyph glyph-name="glyph306" 
 />
    <glyph glyph-name="glyph307" 
d="M-594 -470v-67q50 19 50 46q0 21 -50 21zM-744 -350q0 130 110 190t290 60t290 -60t110 -190v-300h-150v300q0 80 -72.5 115t-177.5 35t-177.5 -35t-72.5 -115v-20q75 0 113 -30q37 -30 37 -90q0 -70 -75 -115l-75 -45h-150v300z" />
    <glyph glyph-name="glyph308" 
d="M-844 -400q0 125 88 212q87 88 262 88q164 0 282 -84q116 -83 169 -183q52 -100 97 -141q46 -42 102 -42q0 -100 -50 -100q-100 0 -166 46t-109 146t-127 179t-198 79q-100 0 -150 -62q-50 -63 -50 -138t38 -112q37 -38 112 -38q0 -50 -25 -75t-75 -25q-100 0 -150 62
q-50 63 -50 188z" />
    <glyph glyph-name="glyph309" 
d="M-344 -142q0 46 25 69t75 23t75 -23t25 -69q0 -45 -54 -113t-175 -130q-121 -63 -201 -82q49 -59 129 -59q102 0 219 97q117 96 131 159q10 40 32 59t54 19q65 0 65 -46v-318q0 -46 -49 -69q-48 -25 -146 -25q45 48 45 94v80q-101 -101 -181 -137q-81 -37 -170 -37
q-124 0 -212 46q-87 43 -87 131q0 103 50 118q200 60 300 114.5t100 76.5t-50 22z" />
    <glyph glyph-name="glyph310" 
d="M-116 -142q-17 -64 -74 -114q-64 -56 -136 -96l50 -24l69 -26q12 -4 23 -5q41 -4 68 38q26 41 36 128q8 72 -36 99zM-609 -489q-4 -33 17 -43.5t69 -16.5q47 -6 79 9t38 67l7 72q-47 -23 -99 -44q-52 -22 -111 -44zM-111 -100q26 41 70 37q43 -5 81 -54q32 -39 32 -104
q0 -16 -3 -35q-16 -141 -71 -205q-55 -65 -150 -55q-19 2 -41.5 8.5t-47.5 14.5l-66 20q-11 -97 -63 -140q-43 -35 -114 -35q-16 0 -34 1q-129 14 -189 61q-52 41 -52 107q0 10 1 20q8 71 60 91q170 33 289 90q118 55 156 120q38 64 -12 69q5 39 74 39q75 0 80 -50z" />
    <glyph glyph-name="glyph311" 
d="M-523 -540q-148 0 -222 48t-74 143q0 84 75 136q75 51 225 51h350v112h150v-112h150v-112h-150v-124q50 0 75 -29q25 -28 25 -106q0 -59 -31 -88q-32 -29 -94 -29t-94 36q-31 34 -31 104l-300 -28h-27q-8 -1 -14.5 -1.5t-12.5 -0.5zM-669 -349q0 -30 33 -55
q32 -25 117 -25q23 0 50 3l300 28v124h-350q-85 0 -117 -23q-33 -24 -33 -52z" />
    <glyph glyph-name="glyph312" 
d="M-94 -254v58q-40 -22 -40 -42q0 -16 40 -16zM-744 -648v548h150v-387l250 189l250 -189v156q-65 0 -103 23q-37 22 -37 69q0 53 70 96t145 43t75 -58v-490h-150l-250 197l-250 -197h-150z" />
    <glyph glyph-name="glyph313" 
d="M-586 -489v-69q41 0 41 46q0 11 -11 17q-10 6 -30 6zM-586 -397q63 0 94 -29t31 -86q0 -138 -125 -138q-158 0 -158 92v202q0 112 92.5 184t145.5 72q44 0 163 -104q119 104 163 104q52 0 144 -72t92 -184v-294h-157v294q0 58 -58 106.5t-184 -107.5q-127 156 -185 107.5
t-58 -106.5v-41z" />
    <glyph glyph-name="glyph314" 
d="M-794 -491q0 -27 50 -46v67q-50 0 -50 -21zM-594 -350v-300h-150l-75 45q-75 45 -75 115q0 60 37 90q38 30 113 30v20q0 130 110 190t290 60t290 -60t110 -190v-300h-150v300q0 80 -72.5 115t-177.5 35t-177.5 -35t-72.5 -115z" />
    <glyph glyph-name="glyph315" 
d="M-643 -494q-100 0 -151 48q-50 49 -50 146q0 50 37 75q38 25 133 25v-80q0 -36 23 -58q22 -23 67 -23h10q9 0 10 1l370 40v220h150v-220q100 0 150 -52.5t50 -127.5t-44 -112q-43 -38 -131 -38t-131 50q-44 50 -44 150l-390 -40h-3q-15 -1 -29 -2.5t-27 -1.5zM36 -500
q0 50 -80 50q0 -80 39 -80h1q40 0 40 30z" />
    <glyph glyph-name="glyph316" 
d="M-885 -436q0 153 75 245q75 91 225 91q120 0 202 -64q82 -65 126 -195q42 -99 82.5 -128.5t79.5 -29.5t79.5 94.5t62.5 208.5q21 114 97 114q53 0 53 -65q0 -29 -11 -72q-35 -137 -111 -274q-77 -138 -162 -138q-110 0 -183 54t-109 162q-38 121 -89.5 171.5t-116.5 50.5
q-75 0 -112.5 -58.5t-37.5 -166.5q0 -92 50 -92t50 61q50 0 75 -22q25 -23 25 -69t-38 -69q-37 -23 -112 -23q-100 0 -150 46t-50 168z" />
    <glyph glyph-name="glyph317" 
d="M-444 -650q-150 0 -225 51q-75 50 -75 148q0 124 90 125q90 0 232.5 59t327.5 217q150 0 150 -150q0 -207 -139 -328q-140 -122 -361 -122zM-154 -254q-105 -77 -215 -126t-215 -71q0 -35 38 -58q37 -23 102 -23q140 0 238 94t110 227l-5 -3l-26 -20t-27 -20z" />
    <glyph glyph-name="glyph318" 
d="M-619 -450q0 -50 25 -75t75 -25t75 25t25 75v150q0 100 62 150q63 50 188 50t188 -50q62 -50 62 -150v-350h-150v350q0 50 -25 75t-75 25t-75 -25t-25 -75v-150q0 -100 -62 -150q-63 -50 -188 -50t-188 50q-62 50 -62 150v350h150v-350z" />
    <glyph glyph-name="glyph319" 
d="M-784 -525q0 75 80 75v220q0 30 -30 30h-50v100h55q175 0 175 -130v-60h500v60q0 30 -30 30h-50v100h55q175 0 175 -130v-420h-150q-80 79 -80 125q0 75 80 75v60h-500v-260h-150q-80 79 -80 125z" />
    <glyph glyph-name="glyph320" 
d="M-1437 -200q-105 0 -177.5 -35t-72.5 -115v-300h-150v300q0 130 110 190t290 60t290 -60t110 -190v-300h-150v300q0 80 -72.5 115t-177.5 35z" />
    <glyph glyph-name="glyph321" 
d="M-1437 -650q-200 0 -300 47q-100 46 -100 138q0 78 67 87l315 45q136 18 200 50q65 30 65 67q0 38 -62 56q-61 19 -185 19q-166 0 -206 -29q-44 -32 -44 -110q-150 0 -150 92q0 69 100 104q100 34 300 34t300 -42q100 -43 100 -129q0 -76 -87 -126q-87 -51 -261 -74
l-303 -42q0 -47 63 -70q62 -24 188 -24q125 0 188 28q62 27 62 79h150q0 -79 -100 -139q-100 -61 -300 -61z" />
    <glyph glyph-name="glyph322" 
d="M-1687 -500l101 100q100 100 149 100q100 0 100 -75t-100 -75q-50 0 -150 -100l-100 -100h-150v300q0 130 110 190t290 60t290 -60t110 -190v-300h-150v300q0 80 -72.5 115t-177.5 35t-177.5 -35t-72.5 -115v-150z" />
    <glyph glyph-name="glyph323" 
d="M-1537 -650q-150 0 -225 62q-75 63 -75 188q0 100 37 150q38 50 113 50q50 0 75 -25t25 -50t-25 -25t-50 -25t-25 -75q0 -55 37 -92q38 -38 113 -38q77 0 146 31t114 84t77 147q32 93 40 143t30 62.5t53 12.5q40 0 40 -60q-13 -90 -50 -202q-37 -113 -100 -188t-150 -112
q-87 -38 -200 -38z" />
    <glyph glyph-name="glyph324" 
d="M-1567 -130q0 79 75 79t75 -79q0 -69 -45 -137q-45 -69 -112 -117q-68 -48 -163 -81q0 -43 37 -64q38 -21 113 -21q60 0 119 29q60 29 119 86l50 49q-88 34 -88 116q0 70 37 104q38 35 113 35q65 0 97 -35q33 -34 33 -104q0 -18 -16 -46h36q27 0 100 37q0 -93 -102 -130
h-48q-13 0 -25.5 0.5t-23.5 1.5q-13 -17 -28.5 -36t-32.5 -40q-70 -83 -155 -125t-185 -42q-150 0 -225 46t-75 139q0 95 50 101q105 14 159 50t83 98q28 61 28 86zM-1207 -270q6 12 6 21q0 22 -36 22q-50 0 -50 -43q0 -28 55 -38q18 22 25 38z" />
    <glyph glyph-name="glyph325" 
d="M-1637 -100v-210h50q100 0 175 -102l75 -73q50 -65 100 -65t75 38q25 37 25 113v100h-37q-32 0 -47.5 20t-15.5 54q0 27 50 76t125 49t75 -104v-195q0 -126 -63 -188q-62 -63 -187 -63q-100 0 -175 102l-75 73q-50 65 -100 65h-50v-240h-150l-50 100q-50 80 -50 140
q0 50 25 75t75 25v210h150z" />
    <glyph glyph-name="glyph326" 
d="M-1247 -650q-41 0 -94 26q-53 27 -107 80l-37 35l-39 -35q-60 -54 -110 -80t-91 -26q-110 0 -160 93t-50 198q0 119 50 189t150 70q50 0 50 -50t-50 -50q-25 0 -37 -45q-13 -45 -13 -114q0 -55 12.5 -108t67.5 -53q35 0 220 148q178 -148 230 -148q44 0 56.5 48t13.5 74
q-12 -1 -24.5 -1.5t-25.5 -0.5q-75 0 -113 38q-37 37 -37 112t37 112q38 38 113 38q80 0 128 -45t64 -134q59 21 72 21q33 0 33 -43q0 -35 -50 -55q-11 -4 -22.5 -8t-24.5 -8v-8q0 -85 -51 -178q-50 -92 -161 -92zM-1235 -200q-25 0 -37 -12q-13 -13 -13 -38q0 -50 48 -50
h37q11 0 12 1q-11 99 -47 99z" />
    <glyph glyph-name="glyph327" 
d="M-937 -300q0 -150 -67 -225q-68 -75 -203 -75q-113 0 -197 36t-139 109q-79 103 -139 154q-62 51 -105 51q-53 0 -90 -22q-37 -23 -60 -68v50q0 50 38 95q37 45 112 45q99 0 191 -55t177 -166q49 -65 103 -97q52 -32 109 -32q60 0 90 50t30 150q0 50 -25 75t-75 25
q0 50 25 75t75 25q75 0 113 -50q37 -50 37 -150z" />
    <glyph glyph-name="glyph328" 
d="M-1687 -470v-67q50 19 50 46q0 21 -50 21zM-1837 -350q0 130 110 190t290 60t290 -60t110 -190v-300h-150v300q0 80 -72.5 115t-177.5 35t-177.5 -35t-72.5 -115v-20q75 0 113 -30q37 -30 37 -90q0 -70 -75 -115l-75 -45h-150v300z" />
    <glyph glyph-name="glyph329" 
d="M-1237 -119q0 34 25 52q25 17 75 17t75 -35q25 -34 25 -103v-376q0 -43 -27 -64q-26 -22 -80 -22l-276 146l-113 -110q-38 -36 -59 -36t-49 40l-170 236q-25 34 -25 93q0 57 88 69q91 12 164 18q74 5 137 5h261q-26 1 -38 19q-13 17 -13 51zM-1187 -301h-273
q-60 0 -116 -5q-55 -5 -110 -16l110 -158l140 116l249 -106v169z" />
    <glyph glyph-name="glyph330" 
d="M-1687 -221q70 0 70 -31q0 -35 -35 -66t-110 -31t-75 65v53q0 53 85 117t135 64t180 -96q130 96 180 96t135 -64t85 -125q0 -56 -65 -96q-64 -39 -196 -74l-389 -103q50 -21 125 -21q74 0 186 19t189 98l150 24v-197q0 -43 -25 -64q-25 -22 -175 -22q50 43 50 86v42
q-89 -50 -202 -76.5t-248 -26.5q-100 0 -150 35t-50 104q0 75 67 91l449 113q67 20 101 42q33 21 33 46q0 31 -27 45q-28 13 -51 13q-24 0 -172 -114q-156 114 -179 114t-47 -14t-24 -46z" />
    <glyph glyph-name="glyph331" 
d="M-1687 -470v-67q50 19 50 46q0 21 -50 21zM-1837 -350q0 130 110 190t290 60t290 -60t110 -190v-300h-150v300q0 80 -72.5 115t-177.5 35t-177.5 -35t-72.5 -115v-20q75 0 113 -30q37 -30 37 -90q0 -70 -75 -115l-75 -45h-150v300z" />
    <glyph glyph-name="glyph332" 
d="M-1937 -400q0 125 88 212q87 88 262 88q164 0 282 -84q116 -83 169 -183q52 -100 97 -141q46 -42 102 -42q0 -100 -50 -100q-100 0 -166 46t-109 146t-127 179t-198 79q-100 0 -150 -62q-50 -63 -50 -138t38 -112q37 -38 112 -38q0 -50 -25 -75t-75 -25q-100 0 -150 62
q-50 63 -50 188z" />
    <glyph glyph-name="glyph333" 
d="M-1437 -142q0 46 25 69t75 23t75 -23t25 -69q0 -45 -54 -113t-175 -130q-121 -63 -201 -82q49 -59 129 -59q102 0 219 97q117 96 131 159q10 40 32 59t54 19q65 0 65 -46v-318q0 -46 -49 -69q-48 -25 -146 -25q45 48 45 94v80q-101 -101 -181 -137q-81 -37 -170 -37
q-124 0 -212 46q-87 43 -87 131q0 103 50 118q200 60 300 114.5t100 76.5t-50 22z" />
    <glyph glyph-name="glyph334" 
d="M-1209 -142q-17 -64 -74 -114q-64 -56 -136 -96l50 -24l69 -26q12 -4 23 -5q41 -4 68 38q26 41 36 128q8 72 -36 99zM-1702 -489q-4 -33 17 -43.5t69 -16.5q47 -6 79 9t38 67l7 72q-47 -23 -99 -44q-52 -22 -111 -44zM-1204 -100q26 41 70 37q43 -5 81 -54
q32 -39 32 -104q0 -16 -3 -35q-16 -141 -71 -205q-55 -65 -150 -55q-19 2 -41.5 8.5t-47.5 14.5l-66 20q-11 -97 -63 -140q-43 -35 -114 -35q-16 0 -34 1q-129 14 -189 61q-52 41 -52 107q0 10 1 20q8 71 60 91q170 33 289 90q118 55 156 120q38 64 -12 69q5 39 74 39
q75 0 80 -50z" />
    <glyph glyph-name="glyph335" 
d="M-1616 -540q-148 0 -222 48t-74 143q0 84 75 136q75 51 225 51h350v112h150v-112h150v-112h-150v-124q50 0 75 -29q25 -28 25 -106q0 -59 -31 -88q-32 -29 -94 -29t-94 36q-31 34 -31 104l-300 -28h-27q-8 -1 -14.5 -1.5t-12.5 -0.5zM-1762 -349q0 -30 33 -55
q32 -25 117 -25q23 0 50 3l300 28v124h-350q-85 0 -117 -23q-33 -24 -33 -52z" />
    <glyph glyph-name="glyph336" 
d="M-1187 -254v58q-40 -22 -40 -42q0 -16 40 -16zM-1837 -648v548h150v-387l250 189l250 -189v156q-65 0 -103 23q-37 22 -37 69q0 53 70 96t145 43t75 -58v-490h-150l-250 197l-250 -197h-150z" />
    <glyph glyph-name="glyph337" 
d="M-1679 -489v-69q41 0 41 46q0 11 -11 17q-10 6 -30 6zM-1679 -397q63 0 94 -29t31 -86q0 -138 -125 -138q-158 0 -158 92v202q0 112 92.5 184t145.5 72q44 0 163 -104q119 104 163 104q52 0 144 -72t92 -184v-294h-157v294q0 58 -58 106.5t-184 -107.5
q-127 156 -185 107.5t-58 -106.5v-41z" />
    <glyph glyph-name="glyph338" 
d="M-1887 -491q0 -27 50 -46v67q-50 0 -50 -21zM-1687 -350v-300h-150l-75 45q-75 45 -75 115q0 60 37 90q38 30 113 30v20q0 130 110 190t290 60t290 -60t110 -190v-300h-150v300q0 80 -72.5 115t-177.5 35t-177.5 -35t-72.5 -115z" />
    <glyph glyph-name="glyph339" 
d="M-1736 -494q-100 0 -151 48q-50 49 -50 146q0 50 37 75q38 25 133 25v-80q0 -36 23 -58q22 -23 67 -23h10q9 0 10 1l370 40v220h150v-220q100 0 150 -52.5t50 -127.5t-44 -112q-43 -38 -131 -38t-131 50q-44 50 -44 150l-390 -40h-3q-15 -1 -29 -2.5t-27 -1.5z
M-1057 -500q0 50 -80 50q0 -80 39 -80h1q40 0 40 30z" />
    <glyph glyph-name="glyph340" 
d="M-1978 -436q0 153 75 245q75 91 225 91q120 0 202 -64q82 -65 126 -195q42 -99 82.5 -128.5t79.5 -29.5t79.5 94.5t62.5 208.5q21 114 97 114q53 0 53 -65q0 -29 -11 -72q-35 -137 -111 -274q-77 -138 -162 -138q-110 0 -183 54t-109 162q-38 121 -89.5 171.5
t-116.5 50.5q-75 0 -112.5 -58.5t-37.5 -166.5q0 -92 50 -92t50 61q50 0 75 -22q25 -23 25 -69t-38 -69q-37 -23 -112 -23q-100 0 -150 46t-50 168z" />
    <glyph glyph-name="glyph341" 
d="M-1537 -650q-150 0 -225 51q-75 50 -75 148q0 124 90 125q90 0 232.5 59t327.5 217q150 0 150 -150q0 -207 -139 -328q-140 -122 -361 -122zM-1247 -254q-105 -77 -215 -126t-215 -71q0 -35 38 -58q37 -23 102 -23q140 0 238 94t110 227l-5 -3l-26 -20t-27 -20z" />
    <glyph glyph-name="glyph342" 
d="M-1712 -450q0 -50 25 -75t75 -25t75 25t25 75v150q0 100 62 150q63 50 188 50t188 -50q62 -50 62 -150v-350h-150v350q0 50 -25 75t-75 25t-75 -25t-25 -75v-150q0 -100 -62 -150q-63 -50 -188 -50t-188 50q-62 50 -62 150v350h150v-350z" />
    <glyph glyph-name="glyph343" 
d="M-1877 -525q0 75 80 75v220q0 30 -30 30h-50v100h55q175 0 175 -130v-60h500v60q0 30 -30 30h-50v100h55q175 0 175 -130v-420h-150q-80 79 -80 125q0 75 80 75v60h-500v-260h-150q-80 79 -80 125z" />
    <glyph glyph-name="glyph344" 
d="M-1517 2100v-340q0 -80 -82 -110q-83 30 -83 110v340h165zM-1192 2100v-340q0 -80 -82 -110q-83 30 -83 110v340h165z" />
    <glyph glyph-name="glyph345" 
d="M-1893 1610q-119 40 -119 95q0 37 65 80l66 43q131 88 163 88q34 0 145 -79l56 -40q27 -20 55 -20q25 0 51 20l50 40q101 79 137 79q35 0 92 -44l114 -88q56 -44 156 -14q-100 -118 -165 -118q-66 0 -102 28l-73 57q-37 29 -80 29t-111 -57q-69 -57 -109 -57
q-67 0 -108 28l-81 57q-41 29 -84 29q-33 0 -60 -21t-27 -47q0 -24 74 -54z" />
    <glyph glyph-name="uni17C4.liga" horiz-adv-x="688" 
d="M-250 1359q0 37 38 63q114 78 205 78q89 0 175 -67l192 -151q78 -59 78 -154v-1128h-188v1128l-237 191q-58 44 -95 17l-119 -83q-49 47 -49 106z" />
    <glyph glyph-name="uni17C5.liga" horiz-adv-x="688" 
d="M425 1200q13 -33 13 -72v-1128h-188v1128l-237 191q-58 44 -95 17l-119 -83q-49 47 -49 106q0 37 38 63q114 78 205 78q89 0 175 -67l158 -124v391q0 100 -100 100q0 100 125 100q163 0 163 -200v-300q0 -74 -89 -200z" />
    <glyph glyph-name="glyph348" horiz-adv-x="1980" 
d="M780 900q100 200 500 200t500 -200v-900h-180v860q-60 120 -320 120t-320 -120v-860h-180v900zM731.5 1088.5q-51.5 48.5 -51.5 117.5t234 294q210 0 393 -174q189 174 236 174q86 0 185 -91q98 -91 152 -38q0 -83 -33 -140q-34 -57 -91 -57t-249 148q-70 1 -266 -177
q-110 104 -183.5 139t-143.5 40l-100 -94q18 -107 129 -162l-78 -39q-82 11 -133.5 59.5zM380 150q60 0 60 150q0 100 -60 100v-250zM200 963q0 106 -200 168q20 101 95.5 235t129.5 134q44 0 115 -43l70 -43q47 -29 120 -14q-10 -70 -40.5 -114.5t-82 -50t-145 52
t-156.5 -99.5q274 -88 274 -168v-520q160 0 160 -200q0 -100 -52.5 -200t-157.5 -100q-130 0 -130 100v863z" />
    <glyph glyph-name="glyph349" horiz-adv-x="1980" 
d="M960 1025v-75q56 0 56 50q0 25 -56 25zM1780 300q0 -300 -500 -300t-500 300v267q820 313 820 483v150q0 180 -320 180t-320 -180v-75q82 0 119 -31q37 -32 37 -94q0 -150 -168 -150t-168 100v250q0 300 500 300t500 -300v-150q0 -240 -820 -542v-208q0 -180 320 -180
t320 180v300h180v-300zM380 150q60 0 60 150q0 100 -60 100v-250zM200 963q0 106 -200 168q20 101 95.5 235t129.5 134q44 0 115 -43l70 -43q47 -29 120 -14q-10 -70 -40.5 -114.5t-82 -50t-145 52t-156.5 -99.5q274 -88 274 -168v-520q160 0 160 -200q0 -100 -52.5 -200
t-157.5 -100q-130 0 -130 100v863z" />
    <glyph glyph-name="glyph350" horiz-adv-x="1980" 
d="M731.5 1088.5q-51.5 48.5 -51.5 117.5t234 294q210 0 393 -174q189 174 236 174q86 0 185 -91q98 -91 152 -38q0 -83 -33 -140q-34 -57 -91 -57t-249 148q-70 1 -266 -177q-110 104 -183.5 139t-143.5 40l-100 -94q18 -107 129 -162l-78 -39q-82 11 -133.5 59.5zM960 270
q118 230 282 230q138 0 138 -120q0 -80 -77 -80q-57 0 -57 33t-44 33q-72 0 -242 -329v-37h-180v900q100 200 500 200t500 -200v-900h-180v860q-60 120 -320 120t-320 -120v-590zM380 150q60 0 60 150q0 100 -60 100v-250zM200 963q0 106 -200 168q20 101 95.5 235
t129.5 134q44 0 115 -43l70 -43q47 -29 120 -14q-10 -70 -40.5 -114.5t-82 -50t-145 52t-156.5 -99.5q274 -88 274 -168v-520q160 0 160 -200q0 -100 -52.5 -200t-157.5 -100q-130 0 -130 100v863z" />
    <glyph glyph-name="glyph351" horiz-adv-x="2680" 
d="M780 1350q-80 -20 -80 -150q0 -100 80 -100v250zM2300 963q0 106 -200 168q20 101 95.5 235t129.5 134q44 0 115 -43l70 -43q47 -29 120 -14q-10 -70 -40.5 -114.5t-82 -50t-145 52t-156.5 -99.5q274 -88 274 -168v-820q-100 -200 -470 -200q-253 0 -380 94
q-127 -94 -380 -94q-370 0 -470 200v800q-180 0 -180 200q0 130 65 215t145 85q150 0 150 -100v-1160q60 -120 290 -120t290 120v723q0 106 -200 168q20 101 95.5 235t129.5 134q44 0 115 -43l70 -43q47 -29 120 -14q-10 -70 -40.5 -114.5t-82 -50t-145 52t-156.5 -99.5
q274 -88 274 -168v-780q60 -120 290 -120t290 120v723zM380 150q60 0 60 150q0 100 -60 100v-250zM200 963q0 106 -200 168q20 101 95.5 235t129.5 134q44 0 115 -43l70 -43q47 -29 120 -14q-10 -70 -40.5 -114.5t-82 -50t-145 52t-156.5 -99.5q274 -88 274 -168v-520
q160 0 160 -200q0 -100 -52.5 -200t-157.5 -100q-130 0 -130 100v863z" />
    <glyph glyph-name="glyph352" horiz-adv-x="1980" 
d="M1550 1320q0 60 -50 60q-70 0 -70 -60q0 -34 83 -89q37 42 37 89zM780 791q-50 0 -50 -81q0 -60 50 -60v141zM780 550q-150 0 -150 160q0 190 150 190q180 0 180 -100v-641l236 236q84 85 170 0l234 -235v740q0 108 -28 136.5t-64 52.5q-142 -89 -318 -89q-238 0 -321 69
q-89 75 -89 191q0 65 25 132.5t25 137.5t-100 70q0 100 100 100q180 0 180 -170q0 -85 -25 -142.5t-25 -127.5q0 -59 55 -99.5t175 -40.5q124 0 225 36q-105 88 -105 164q0 180 190 180q180 0 180 -180q0 -77 -68 -148q21 -11 43 -22q125 -67 125 -250v-800
q0 -100 -100 -100q-90 0 -167 77l-233 233l-232 -233q-77 -77 -168 -77q-100 0 -100 100v450zM380 150q60 0 60 150q0 100 -60 100v-250zM200 963q0 106 -200 168q20 101 95.5 235t129.5 134q44 0 115 -43l70 -43q47 -29 120 -14q-10 -70 -40.5 -114.5t-82 -50t-145 52
t-156.5 -99.5q274 -88 274 -168v-520q160 0 160 -200q0 -100 -52.5 -200t-157.5 -100q-130 0 -130 100v863z" />
    <glyph glyph-name="glyph353" horiz-adv-x="1980" 
d="M1600 891q-70 0 -70 -81q0 -60 70 -60v141zM1600 650q-170 0 -170 160q0 190 170 190q180 0 180 -100v-700q-100 -200 -500 -200t-500 200v854q-27 14 -48 35q-52 48 -52 117t234 294q210 0 393 -174q189 174 236 174q86 0 185 -91q98 -91 152 -38q0 -83 -33 -140
q-34 -57 -91 -57t-249 148q-70 1 -266 -177q-110 104 -183.5 139t-143.5 40l-100 -94q18 -107 146 -168v-822q60 -120 320 -120t320 120v410zM380 150q60 0 60 150q0 100 -60 100v-250zM200 963q0 106 -200 168q20 101 95.5 235t129.5 134q44 0 115 -43l70 -43
q47 -29 120 -14q-10 -70 -40.5 -114.5t-82 -50t-145 52t-156.5 -99.5q274 -88 274 -168v-520q160 0 160 -200q0 -100 -52.5 -200t-157.5 -100q-130 0 -130 100v863z" />
    <glyph glyph-name="glyph354" horiz-adv-x="1980" 
d="M780 380q-50 -20 -50 -80q0 -150 50 -150v230zM1600 891q-70 0 -70 -81q0 -60 70 -60v141zM780 1054q-27 14 -48 35q-52 48 -52 117t234 294q210 0 393 -174q189 174 236 174q86 0 185 -91q98 -91 152 -38q0 -83 -33 -140q-34 -57 -91 -57t-249 148q-70 1 -266 -177
q-110 104 -183.5 139t-143.5 40l-100 -94q18 -107 146 -168v-562q370 0 370 -250q0 -130 135 -130t135 130v400q-170 0 -170 160q0 190 170 190q180 0 180 -100v-650q0 -250 -315 -250q-285 0 -285 250q0 130 -220 130v-280q0 -100 -130 -100q-100 0 -150 95t-50 205
q0 170 150 200v554zM380 150q60 0 60 150q0 100 -60 100v-250zM200 963q0 106 -200 168q20 101 95.5 235t129.5 134q44 0 115 -43l70 -43q47 -29 120 -14q-10 -70 -40.5 -114.5t-82 -50t-145 52t-156.5 -99.5q274 -88 274 -168v-520q160 0 160 -200q0 -100 -52.5 -200
t-157.5 -100q-130 0 -130 100v863z" />
    <glyph glyph-name="glyph355" horiz-adv-x="1980" 
d="M780 1010q-71 66 -85.5 91.5t-14.5 63.5q0 37 15 63q14 26 130.5 149t153 123t191.5 -107q204 -143 300 -143q190 0 190 140q0 50 -50 90t-140 40q-130 0 -130 90t130 90q140 0 225 -80t85 -230q0 -142 -80.5 -203t-239.5 -61q-237 0 -361 87l-62 43q-62 43 -100.5 38
t-73 -49t-34.5 -77q0 -34 131 -127v-882l236 236q84 85 170 0l234 -235v840h180v-900q0 -100 -100 -100q-90 0 -167 77l-233 233l-232 -233q-77 -77 -168 -77q-100 0 -100 100v910zM380 150q60 0 60 150q0 100 -60 100v-250zM200 963q0 106 -200 168q20 101 95.5 235
t129.5 134q44 0 115 -43l70 -43q47 -29 120 -14q-10 -70 -40.5 -114.5t-82 -50t-145 52t-156.5 -99.5q274 -88 274 -168v-520q160 0 160 -200q0 -100 -52.5 -200t-157.5 -100q-130 0 -130 100v863z" />
    <glyph glyph-name="glyph356" horiz-adv-x="3380" 
d="M960 150q120 0 120 250q0 100 -120 100v-350zM1520 1260q-60 120 -280 120t-280 -120v-660q220 0 220 -200t-62.5 -300t-187.5 -100q-150 0 -150 100v1200q100 200 460 200t460 -200v-1060q60 -120 280 -120t280 120v723q0 106 -200 168q20 101 95.5 235t129.5 134
q44 0 115 -43l70 -43q47 -29 120 -14q-10 -70 -40.5 -114.5t-82 -50t-145 52t-156.5 -99.5q274 -88 274 -168v-780q60 -120 280 -120t280 120v723q0 106 -200 168q20 101 95.5 235t129.5 134q44 0 115 -43l70 -43q47 -29 120 -14q-10 -70 -40.5 -114.5t-82 -50t-145 52
t-156.5 -99.5q274 -88 274 -168v-820q-100 -200 -460 -200q-245 0 -370 93q-125 -93 -370 -93q-360 0 -460 200v1060zM380 150q60 0 60 150q0 100 -60 100v-250zM200 963q0 106 -200 168q20 101 95.5 235t129.5 134q44 0 115 -43l70 -43q47 -29 120 -14
q-10 -70 -40.5 -114.5t-82 -50t-145 52t-156.5 -99.5q274 -88 274 -168v-520q160 0 160 -200q0 -100 -52.5 -200t-157.5 -100q-130 0 -130 100v863z" />
    <glyph glyph-name="glyph357" horiz-adv-x="2680" 
d="M960 150q120 0 120 250q0 100 -120 100v-350zM2185 -200q0 50 30 75q31 25 94 25q84 0 127 -50q44 -50 44 -150q0 -110 -106 -190t-329 -80q-135 0 -242 38q-107 37 -330 175q-223 137 -340 137q-91 0 -160 -27.5t-143 -92.5q0 60 37 107.5t121 90t195 42.5
q159 0 272 -47t246 -144q252 -175 364 -175q120 0 177.5 33t57.5 133v27q-58 -8 -76.5 3t-28.5 30t-10 40zM1600 1200q0 104 -69.5 141.5t-250.5 -141.5q-180 179 -250 141.5t-70 -141.5v-600q220 0 220 -200t-62.5 -300t-187.5 -100q-150 0 -150 100v1100q0 122 110 211
t169 89q50 0 221 -134q172 134 222 134q59 0 168 -89q16 -13 29 -26q110 115 341 115q440 0 440 -419v-1081h-180v1081q0 299 -260 299t-260 -299v-1081h-180v1200zM380 150q60 0 60 150q0 100 -60 100v-250zM200 963q0 106 -200 168q20 101 95.5 235t129.5 134
q44 0 115 -43l70 -43q47 -29 120 -14q-10 -70 -40.5 -114.5t-82 -50t-145 52t-156.5 -99.5q274 -88 274 -168v-520q160 0 160 -200q0 -100 -52.5 -200t-157.5 -100q-130 0 -130 100v863z" />
    <glyph glyph-name="glyph358" horiz-adv-x="1980" 
d="M938 1314q0 -29 29 -50h24q53 0 53 50q0 24 -12 36q-14 14 -41 14q-26 0 -40 -13q-13 -12 -13 -37zM1115 1221q29 -3 61 -5q42 -2 139 -2q123 0 204 43t81 139q0 124 -140 124q-100 0 -100 90t100 90q320 0 320 -304q0 -128 -126.5 -212t-489.5 -84q-192 0 -288 50.5
t-96 159.5q0 83 52 137q53 53 143 53q91 0 142 -43q52 -43 52 -118t-54 -118zM960 1000v-841l236 236q84 85 170 0l234 -235v840h180v-900q0 -100 -100 -100q-90 0 -167 77l-233 233l-232 -233q-77 -77 -168 -77q-100 0 -100 100v900h180zM380 150q60 0 60 150
q0 100 -60 100v-250zM200 963q0 106 -200 168q20 101 95.5 235t129.5 134q44 0 115 -43l70 -43q47 -29 120 -14q-10 -70 -40.5 -114.5t-82 -50t-145 52t-156.5 -99.5q274 -88 274 -168v-520q160 0 160 -200q0 -100 -52.5 -200t-157.5 -100q-130 0 -130 100v863z" />
    <glyph glyph-name="glyph359" horiz-adv-x="1980" 
d="M780 1350q-80 -20 -80 -150q0 -100 80 -100v250zM780 1000q-180 0 -180 200q0 130 65 215t145 85q150 0 150 -100v-1160q60 -120 320 -120t320 120v723q0 106 -200 168q20 101 95.5 235t129.5 134q44 0 115 -43l59 -36q31 35 31 79q0 120 -90 120q-110 0 -110 90t110 90
q190 0 190 -300q0 -116 -37.5 -187.5t-84.5 -76.5q-52 -6 -145.5 51.5t-156.5 -99.5q274 -88 274 -168v-820q-100 -200 -500 -200t-500 200v800zM380 150q60 0 60 150q0 100 -60 100v-250zM200 963q0 106 -200 168q20 101 95.5 235t129.5 134q44 0 115 -43l70 -43
q47 -29 120 -14q-10 -70 -40.5 -114.5t-82 -50t-145 52t-156.5 -99.5q274 -88 274 -168v-520q160 0 160 -200q0 -100 -52.5 -200t-157.5 -100q-130 0 -130 100v863z" />
    <glyph glyph-name="glyph360" horiz-adv-x="1980" 
d="M960 1025v-75q56 0 56 50q0 25 -56 25zM1600 0v141q-221 -141 -430 -141q-390 0 -390 300v287q820 243 820 463v150q0 104 -69.5 141.5t-250.5 -141.5q-180 179 -250 141.5t-70 -141.5v-75q82 0 119 -31q37 -32 37 -94q0 -150 -148 -150q-188 0 -188 100v250
q0 122 110 211t169 89q50 0 221 -134q172 134 222 134q59 0 168.5 -89t109.5 -211v-150q0 -260 -820 -542v-208q0 -180 210 -180q170 0 430 209v271h180v-600q0 -170 -200 -170q-100 0 -100 100q120 0 120 70zM380 150q60 0 60 150q0 100 -60 100v-250zM200 963
q0 106 -200 168q20 101 95.5 235t129.5 134q44 0 115 -43l70 -43q47 -29 120 -14q-10 -70 -40.5 -114.5t-82 -50t-145 52t-156.5 -99.5q274 -88 274 -168v-520q160 0 160 -200q0 -100 -52.5 -200t-157.5 -100q-130 0 -130 100v863z" />
    <glyph glyph-name="glyph361" horiz-adv-x="2680" 
d="M960 150q120 0 120 250q0 100 -120 100v-350zM1600 380q-50 -20 -50 -80q0 -150 50 -150v230zM2480 250q0 -250 -290 -250q-260 0 -260 250q0 130 -150 130v-280q0 -100 -130 -100q-100 0 -150 95t-50 205q0 170 150 200v700q0 104 -69.5 141.5t-250.5 -141.5
q-180 179 -250 141.5t-70 -141.5v-600q220 0 220 -200t-62.5 -300t-187.5 -100q-150 0 -150 100v1100q0 122 110 211t169 89q50 0 221 -134q172 134 222 134q59 0 168 -89q110 -89 110 -211v-700q300 0 300 -250q0 -130 110 -130t110 130v713q0 106 -200 168
q20 101 95.5 235t129.5 134q44 0 115 -43l70 -43q47 -29 120 -14q-10 -70 -40.5 -114.5t-82 -50t-145 52t-156.5 -99.5q274 -88 274 -168v-770zM380 150q60 0 60 150q0 100 -60 100v-250zM200 963q0 106 -200 168q20 101 95.5 235t129.5 134q44 0 115 -43l70 -43
q47 -29 120 -14q-10 -70 -40.5 -114.5t-82 -50t-145 52t-156.5 -99.5q274 -88 274 -168v-520q160 0 160 -200q0 -100 -52.5 -200t-157.5 -100q-130 0 -130 100v863z" />
    <glyph glyph-name="glyph362" horiz-adv-x="3380" 
d="M960 150q120 0 120 250q0 100 -120 100v-350zM960 600q220 0 220 -200t-62.5 -300t-187.5 -100q-150 0 -150 100v1200q100 200 460 200t460 -200v-1141l240 241q40 40 80 0l240 -240v1140q100 200 460 200t460 -200v-1300h-180v1260q-60 120 -280 120t-280 -120v-1160
q0 -100 -100 -100q-90 0 -167 77l-193 193l-192 -193q-77 -77 -168 -77q-100 0 -100 100v1160q-60 120 -280 120t-280 -120v-660zM380 150q60 0 60 150q0 100 -60 100v-250zM200 963q0 106 -200 168q20 101 95.5 235t129.5 134q44 0 115 -43l70 -43q47 -29 120 -14
q-10 -70 -40.5 -114.5t-82 -50t-145 52t-156.5 -99.5q274 -88 274 -168v-520q160 0 160 -200q0 -100 -52.5 -200t-157.5 -100q-130 0 -130 100v863z" />
    <glyph glyph-name="glyph363" horiz-adv-x="1980" 
d="M960 150q100 0 100 150q0 100 -100 100v-250zM680 1206q0 69 234 294q210 0 393 -174q189 174 236 174q86 0 185 -91q98 -91 152 -38q0 -83 -33 -140q-34 -57 -91 -57t-249 148q-70 1 -266 -177q-110 104 -183.5 139t-143.5 40l-100 -94q18 -107 129 -162l-78 -39
q-82 11 -133.5 59.5t-51.5 117.5zM960 500q200 0 200 -200q0 -100 -52.5 -200t-177.5 -100q-150 0 -150 100v800q100 200 500 200t500 -200v-900h-180v860q-60 120 -320 120t-320 -120v-360zM380 150q60 0 60 150q0 100 -60 100v-250zM200 963q0 106 -200 168
q20 101 95.5 235t129.5 134q44 0 115 -43l70 -43q47 -29 120 -14q-10 -70 -40.5 -114.5t-82 -50t-145 52t-156.5 -99.5q274 -88 274 -168v-520q160 0 160 -200q0 -100 -52.5 -200t-157.5 -100q-130 0 -130 100v863z" />
    <glyph glyph-name="glyph364" horiz-adv-x="1980" 
d="M1600 891q-70 0 -70 -81q0 -60 70 -60v141zM780 1010q-71 66 -85.5 91.5t-14.5 63.5q0 37 15 63q14 26 130.5 149t153 123t191.5 -107q204 -143 300 -143q190 0 190 140q0 50 -50 90t-140 40q-130 0 -130 90t130 90q140 0 225 -80t85 -230q0 -142 -80.5 -203t-239.5 -61
q-237 0 -361 87l-62 43q-62 43 -100.5 38t-73 -49t-34.5 -77q0 -34 131 -127v-801q60 -120 320 -120t320 120v410q-170 0 -170 160q0 190 170 190q180 0 180 -100v-700q-100 -200 -500 -200t-500 200v810zM380 150q60 0 60 150q0 100 -60 100v-250zM200 963q0 106 -200 168
q20 101 95.5 235t129.5 134q44 0 115 -43l70 -43q47 -29 120 -14q-10 -70 -40.5 -114.5t-82 -50t-145 52t-156.5 -99.5q274 -88 274 -168v-520q160 0 160 -200q0 -100 -52.5 -200t-157.5 -100q-130 0 -130 100v863z" />
    <glyph glyph-name="glyph365" horiz-adv-x="1980" 
d="M1544 1080q0 -30 56 -30v55q-56 0 -56 -25zM1630 700q50 0 50 25t-25 25t-25 -50zM1630 302q0 -302 -358 -302q-392 0 -392 250v250h180v-250q0 -130 212 -130q178 0 178 181v279h-170q-500 0 -500 300v320q0 300 500 300t500 -300v-150q0 -100 -168 -100t-168 130
q0 62 37 94q37 31 119 31q0 175 -320 175t-320 -180v-320q0 -180 320 -180h170q0 150 205 150q125 0 125 -125q0 -145 -150 -145v-278zM380 150q60 0 60 150q0 100 -60 100v-250zM200 963q0 106 -200 168q20 101 95.5 235t129.5 134q44 0 115 -43l70 -43q47 -29 120 -14
q-10 -70 -40.5 -114.5t-82 -50t-145 52t-156.5 -99.5q274 -88 274 -168v-520q160 0 160 -200q0 -100 -52.5 -200t-157.5 -100q-130 0 -130 100v863z" />
    <glyph glyph-name="glyph366" horiz-adv-x="1980" 
d="M1600 891q-70 0 -70 -81q0 -60 70 -60v141zM780 1054q-27 14 -48 35q-52 48 -52 117t234 294q210 0 393 -174q189 174 236 174q86 0 185 -91q98 -91 152 -38q0 -83 -33 -140q-34 -57 -91 -57t-249 148q-70 1 -266 -177q-110 104 -183.5 139t-143.5 40l-100 -94
q18 -107 146 -168v-903l236 236q84 85 170 0l234 -235v490q-170 0 -170 160q0 190 170 190q180 0 180 -100v-800q0 -100 -100 -100q-90 0 -167 77l-233 233l-232 -233q-77 -77 -168 -77q-100 0 -100 100v954zM380 150q60 0 60 150q0 100 -60 100v-250zM200 963
q0 106 -200 168q20 101 95.5 235t129.5 134q44 0 115 -43l70 -43q47 -29 120 -14q-10 -70 -40.5 -114.5t-82 -50t-145 52t-156.5 -99.5q274 -88 274 -168v-520q160 0 160 -200q0 -100 -52.5 -200t-157.5 -100q-130 0 -130 100v863z" />
    <glyph glyph-name="glyph367" horiz-adv-x="1980" 
d="M1544 1000q0 -50 56 -50v75q-56 0 -56 -25zM1780 250q0 -250 -295 -250q-141 0 -250 140t-275 140v-280h-180v600h180v-200q195 0 314.5 -125t210.5 -125q115 0 115 100v298l-410 121q-410 121 -410 381v150q0 300 500 300t500 -300v-250q0 -100 -168 -100t-168 150
q0 62 37 94q37 31 119 31v75q0 180 -320 180t-320 -180v-150q0 -210 410 -326l410 -117v-357zM380 150q60 0 60 150q0 100 -60 100v-250zM200 963q0 106 -200 168q20 101 95.5 235t129.5 134q44 0 115 -43l70 -43q47 -29 120 -14q-10 -70 -40.5 -114.5t-82 -50t-145 52
t-156.5 -99.5q274 -88 274 -168v-520q160 0 160 -200q0 -100 -52.5 -200t-157.5 -100q-130 0 -130 100v863z" />
    <glyph glyph-name="glyph368" horiz-adv-x="1980" 
d="M1600 963q0 106 -200 168q20 101 95.5 235t129.5 134q44 0 115 -43l70 -43q47 -29 120 -14q-10 -70 -40.5 -114.5t-82 -50t-145 52t-156.5 -99.5q274 -88 274 -168v-820q-100 -200 -500 -200t-500 200v763q0 106 -200 168q20 101 95.5 235t129.5 134q44 0 115 -43l70 -43
q47 -29 120 -14q-10 -70 -40.5 -114.5t-82 -50t-145 52t-156.5 -99.5q274 -88 274 -168v-780q60 -120 320 -120t320 120v723zM380 150q60 0 60 150q0 100 -60 100v-250zM200 963q0 106 -200 168q20 101 95.5 235t129.5 134q44 0 115 -43l70 -43q47 -29 120 -14
q-10 -70 -40.5 -114.5t-82 -50t-145 52t-156.5 -99.5q274 -88 274 -168v-520q160 0 160 -200q0 -100 -52.5 -200t-157.5 -100q-130 0 -130 100v863z" />
    <glyph glyph-name="glyph369" horiz-adv-x="1980" 
d="M1600 891q-70 0 -70 -81q0 -60 70 -60v141zM1780 100q0 -100 -100 -100q-90 0 -167 77l-233 233l-232 -233q-77 -77 -168 -77q-100 0 -100 100v910q-71 66 -85.5 91.5t-14.5 63.5q0 37 15 63q14 26 130.5 149t153 123t191.5 -107q204 -143 300 -143q190 0 190 140
q0 50 -50 90t-140 40q-130 0 -130 90t130 90q140 0 225 -80t85 -230q0 -142 -80.5 -203t-239.5 -61q-237 0 -361 87l-62 43q-62 43 -100.5 38t-73 -49t-34.5 -77q0 -34 131 -127v-882l236 236q84 85 170 0l234 -235v490q-170 0 -170 160q0 190 170 190q180 0 180 -100v-800z
M380 150q60 0 60 150q0 100 -60 100v-250zM200 963q0 106 -200 168q20 101 95.5 235t129.5 134q44 0 115 -43l70 -43q47 -29 120 -14q-10 -70 -40.5 -114.5t-82 -50t-145 52t-156.5 -99.5q274 -88 274 -168v-520q160 0 160 -200q0 -100 -52.5 -200t-157.5 -100
q-130 0 -130 100v863z" />
    <glyph glyph-name="glyph370" horiz-adv-x="1980" 
d="M960 150q120 0 120 250q0 100 -120 100v-350zM780 1200q0 122 110 211t169 89q50 0 221 -134q172 134 222 134q59 0 168 -89q110 -89 110 -211v-1200h-180v1200q0 104 -69.5 141.5t-250.5 -141.5q-180 179 -250 141.5t-70 -141.5v-600q220 0 220 -200t-62.5 -300
t-187.5 -100q-150 0 -150 100v1100zM380 150q60 0 60 150q0 100 -60 100v-250zM200 963q0 106 -200 168q20 101 95.5 235t129.5 134q44 0 115 -43l70 -43q47 -29 120 -14q-10 -70 -40.5 -114.5t-82 -50t-145 52t-156.5 -99.5q274 -88 274 -168v-520q160 0 160 -200
q0 -100 -52.5 -200t-157.5 -100q-130 0 -130 100v863z" />
    <glyph glyph-name="glyph371" horiz-adv-x="1980" 
d="M780 400q-80 0 -80 -100q0 -150 80 -150v250zM680 1206q0 69 234 294q210 0 393 -174q189 174 236 174q86 0 185 -91q98 -91 152 -38q0 -83 -33 -140q-34 -57 -91 -57t-249 148q-70 1 -266 -177q-110 104 -183.5 139t-143.5 40l-100 -94q18 -107 129 -162l-78 -39
q-82 11 -133.5 59.5t-51.5 117.5zM780 900q100 200 500 200t500 -200v-900h-180v860q-60 120 -320 120t-320 -120v-760q0 -100 -150 -100q-105 0 -157.5 100t-52.5 200q0 200 180 200v400zM380 150q60 0 60 150q0 100 -60 100v-250zM200 963q0 106 -200 168q20 101 95.5 235
t129.5 134q44 0 115 -43l70 -43q47 -29 120 -14q-10 -70 -40.5 -114.5t-82 -50t-145 52t-156.5 -99.5q274 -88 274 -168v-520q160 0 160 -200q0 -100 -52.5 -200t-157.5 -100q-130 0 -130 100v863z" />
    <glyph glyph-name="glyph372" horiz-adv-x="1980" 
d="M1600 780v183q0 106 -200 168q20 101 95.5 235t129.5 134q44 0 115 -43l70 -43q47 -29 120 -14q-10 -70 -40.5 -114.5t-82 -50t-145 52t-156.5 -99.5q274 -88 274 -168v-820q-100 -200 -500 -200t-500 200v763q0 106 -200 168q20 101 95.5 235t129.5 134q44 0 115 -43
l70 -43q47 -29 120 -14q-10 -70 -40.5 -114.5t-82 -50t-145 52t-156.5 -99.5q274 -88 274 -168v-240h640zM1600 660h-640v-420q60 -120 320 -120t320 120v420zM380 150q60 0 60 150q0 100 -60 100v-250zM200 963q0 106 -200 168q20 101 95.5 235t129.5 134q44 0 115 -43
l70 -43q47 -29 120 -14q-10 -70 -40.5 -114.5t-82 -50t-145 52t-156.5 -99.5q274 -88 274 -168v-520q160 0 160 -200q0 -100 -52.5 -200t-157.5 -100q-130 0 -130 100v863z" />
    <glyph glyph-name="glyph373" horiz-adv-x="2680" 
d="M960 1100q80 0 80 100q0 130 -80 150v-250zM780 1400q0 100 150 100q80 0 145 -85t65 -215q0 -200 -180 -200v-760q60 -120 290 -120t290 120v723q0 106 -200 168q20 101 95.5 235t129.5 134q44 0 115 -43l70 -43q47 -29 120 -14q-10 -70 -40.5 -114.5t-82 -50t-145 52
t-156.5 -99.5q274 -88 274 -168v-780q60 -120 290 -120t290 120v723q0 106 -200 168q20 101 95.5 235t129.5 134q44 0 115 -43l70 -43q47 -29 120 -14q-10 -70 -40.5 -114.5t-82 -50t-145 52t-156.5 -99.5q274 -88 274 -168v-820q-100 -200 -470 -200q-253 0 -380 94
q-127 -94 -380 -94q-370 0 -470 200v1200zM380 150q60 0 60 150q0 100 -60 100v-250zM200 963q0 106 -200 168q20 101 95.5 235t129.5 134q44 0 115 -43l70 -43q47 -29 120 -14q-10 -70 -40.5 -114.5t-82 -50t-145 52t-156.5 -99.5q274 -88 274 -168v-520q160 0 160 -200
q0 -100 -52.5 -200t-157.5 -100q-130 0 -130 100v863z" />
    <glyph glyph-name="glyph374" horiz-adv-x="1160" 
d="M780 400q-80 0 -80 -100q0 -150 80 -150v250zM960 100q0 -100 -130 -100q-125 0 -177.5 100t-52.5 200q0 200 180 200v463q0 106 -200 168q20 101 95.5 235t129.5 134q44 0 115 -43l70 -43q47 -29 120 -14q-10 -70 -40.5 -114.5t-82 -50t-145 52t-156.5 -99.5
q274 -88 274 -168v-920zM380 150q60 0 60 150q0 100 -60 100v-250zM200 963q0 106 -200 168q20 101 95.5 235t129.5 134q44 0 115 -43l70 -43q47 -29 120 -14q-10 -70 -40.5 -114.5t-82 -50t-145 52t-156.5 -99.5q274 -88 274 -168v-520q160 0 160 -200q0 -100 -52.5 -200
t-157.5 -100q-130 0 -130 100v863z" />
    <glyph glyph-name="glyph375" horiz-adv-x="2680" 
d="M960 150q120 0 120 250q0 100 -120 100v-350zM2480 200q-100 -200 -470 -200t-470 200v1060q-60 120 -290 120t-290 -120v-660q220 0 220 -200t-62.5 -300t-187.5 -100q-150 0 -150 100v1200q100 200 470 200t470 -200v-1060q60 -120 290 -120t290 120v723
q0 106 -200 168q20 101 95.5 235t129.5 134q44 0 115 -43l70 -43q47 -29 120 -14q-10 -70 -40.5 -114.5t-82 -50t-145 52t-156.5 -99.5q274 -88 274 -168v-820zM380 150q60 0 60 150q0 100 -60 100v-250zM200 963q0 106 -200 168q20 101 95.5 235t129.5 134q44 0 115 -43
l70 -43q47 -29 120 -14q-10 -70 -40.5 -114.5t-82 -50t-145 52t-156.5 -99.5q274 -88 274 -168v-520q160 0 160 -200q0 -100 -52.5 -200t-157.5 -100q-130 0 -130 100v863z" />
    <glyph glyph-name="glyph376" horiz-adv-x="1160" 
d="M780 400q-80 0 -80 -100q0 -150 80 -150v250zM988 1236q-52 -6 -145.5 51.5t-156.5 -99.5q274 -88 274 -168v-920q0 -100 -130 -100q-125 0 -177.5 100t-52.5 200q0 200 180 200v463q0 106 -200 168q20 101 95.5 235t129.5 134q44 0 115 -43l59 -36q31 35 31 79
q0 120 -90 120q-110 0 -110 90t110 90q190 0 190 -300q0 -116 -37.5 -187.5t-84.5 -76.5zM380 150q60 0 60 150q0 100 -60 100v-250zM200 963q0 106 -200 168q20 101 95.5 235t129.5 134q44 0 115 -43l70 -43q47 -29 120 -14q-10 -70 -40.5 -114.5t-82 -50t-145 52
t-156.5 -99.5q274 -88 274 -168v-520q160 0 160 -200q0 -100 -52.5 -200t-157.5 -100q-130 0 -130 100v863z" />
    <glyph glyph-name="glyph377" horiz-adv-x="1980" 
d="M680 1206q0 69 234 294q210 0 393 -174q189 174 236 174q86 0 185 -91q98 -91 152 -38q0 -83 -33 -140q-34 -57 -91 -57t-249 148q-70 1 -266 -177q-110 104 -183.5 139t-143.5 40l-100 -94q18 -107 129 -162l-78 -39q-82 11 -133.5 59.5t-51.5 117.5zM1600 510v350
q-60 120 -320 120t-320 -120v-590q118 230 282 230q138 0 138 -120q0 -80 -77 -80q-57 0 -57 33t-44 33q-72 0 -242 -329v-37h-180v900q100 200 500 200t500 -200v-390h150v-120h-150v-390h-180v390h-140v120h140zM380 150q60 0 60 150q0 100 -60 100v-250zM200 963
q0 106 -200 168q20 101 95.5 235t129.5 134q44 0 115 -43l70 -43q47 -29 120 -14q-10 -70 -40.5 -114.5t-82 -50t-145 52t-156.5 -99.5q274 -88 274 -168v-520q160 0 160 -200q0 -100 -52.5 -200t-157.5 -100q-130 0 -130 100v863z" />
    <glyph glyph-name="glyph378" horiz-adv-x="1980" 
d="M1600 810v153q0 106 -200 168q20 101 95.5 235t129.5 134q44 0 115 -43l70 -43q47 -29 120 -14q-10 -70 -40.5 -114.5t-82 -50t-145 52t-156.5 -99.5q274 -88 274 -168v-210h150v-120h-150v-490q-100 -200 -500 -200t-500 200v763q0 106 -200 168q20 101 95.5 235
t129.5 134q44 0 115 -43l70 -43q47 -29 120 -14q-10 -70 -40.5 -114.5t-82 -50t-145 52t-156.5 -99.5q274 -88 274 -168v-780q60 -120 320 -120t320 120v450h-140v120h140zM380 150q60 0 60 150q0 100 -60 100v-250zM200 963q0 106 -200 168q20 101 95.5 235t129.5 134
q44 0 115 -43l70 -43q47 -29 120 -14q-10 -70 -40.5 -114.5t-82 -50t-145 52t-156.5 -99.5q274 -88 274 -168v-520q160 0 160 -200q0 -100 -52.5 -200t-157.5 -100q-130 0 -130 100v863z" />
    <glyph glyph-name="glyph379" horiz-adv-x="2680" 
d="M960 150q100 0 100 150q0 100 -100 100v-250zM1199 1099q25 1 51 1q370 0 470 -200v-660q60 -120 290 -120t290 120v723q0 106 -200 168q20 101 95.5 235t129.5 134q44 0 115 -43l70 -43q47 -29 120 -14q-10 -70 -40.5 -114.5t-82 -50t-145 52t-156.5 -99.5
q274 -88 274 -168v-820q-100 -200 -470 -200t-470 200v660q-60 120 -290 120t-290 -120v-360q200 0 200 -200q0 -100 -52.5 -200t-177.5 -100q-150 0 -150 100v800q62 125 229 172q-68 37 -179 79q30 101 125.5 225t169.5 124q64 0 183 -57.5t192 -42.5
q-10 -70 -40.5 -114.5t-82 -50t-190 52t-241.5 -79.5q174 -52 253 -109zM380 150q60 0 60 150q0 100 -60 100v-250zM200 963q0 106 -200 168q20 101 95.5 235t129.5 134q44 0 115 -43l70 -43q47 -29 120 -14q-10 -70 -40.5 -114.5t-82 -50t-145 52t-156.5 -99.5
q274 -88 274 -168v-520q160 0 160 -200q0 -100 -52.5 -200t-157.5 -100q-130 0 -130 100v863z" />
    <glyph glyph-name="glyph380" horiz-adv-x="2680" 
d="M780 963q0 106 -200 168q20 101 95.5 235t129.5 134q44 0 115 -43l70 -43q47 -29 120 -14q-10 -70 -40.5 -114.5t-82 -50t-145 52t-156.5 -99.5q274 -88 274 -168v-780q60 -120 290 -120t290 120v1060q100 200 470 200t470 -200v-1300h-180v1260q-60 120 -290 120
t-290 -120v-1060q-100 -200 -470 -200t-470 200v763zM380 150q60 0 60 150q0 100 -60 100v-250zM200 963q0 106 -200 168q20 101 95.5 235t129.5 134q44 0 115 -43l70 -43q47 -29 120 -14q-10 -70 -40.5 -114.5t-82 -50t-145 52t-156.5 -99.5q274 -88 274 -168v-520
q160 0 160 -200q0 -100 -52.5 -200t-157.5 -100q-130 0 -130 100v863z" />
    <glyph glyph-name="glyph381" horiz-adv-x="2680" 
d="M1544 1080q0 -30 56 -30v55q-56 0 -56 -25zM1630 700q50 0 50 25t-25 25t-25 -50zM1630 302q0 -302 -358 -302q-392 0 -392 250v250h180v-250q0 -130 212 -130q178 0 178 181v279h-170q-500 0 -500 300v320q0 300 500 300t500 -300v-150q0 -100 -168 -100t-168 130
q0 62 37 94q37 31 119 31q0 175 -320 175t-320 -180v-320q0 -180 320 -180h170q0 150 205 150q125 0 125 -125q0 -145 -150 -145v-278zM2480 -550q0 -100 -100 -100q-90 0 -167 77l-173 173l-172 -173q-77 -77 -168 -77q-100 0 -100 100v200q-100 0 -100 70q0 55 60 117.5
t120 62.5q100 0 100 -100v-291l200 201q60 60 120 0l200 -200v1453q0 106 -200 168q20 101 95.5 235t129.5 134q44 0 115 -43l70 -43q47 -29 120 -14q-10 -70 -40.5 -114.5t-82 -50t-145 52t-156.5 -99.5q274 -88 274 -168v-1570zM380 150q60 0 60 150q0 100 -60 100v-250z
M200 963q0 106 -200 168q20 101 95.5 235t129.5 134q44 0 115 -43l70 -43q47 -29 120 -14q-10 -70 -40.5 -114.5t-82 -50t-145 52t-156.5 -99.5q274 -88 274 -168v-520q160 0 160 -200q0 -100 -52.5 -200t-157.5 -100q-130 0 -130 100v863z" />
    <glyph glyph-name="glyph382" horiz-adv-x="1980" 
d="M1600 400q-80 0 -80 -100q0 -150 80 -150v250zM780 400q-80 0 -80 -100q0 -150 80 -150v250zM1600 810v153q0 106 -200 168q20 101 95.5 235t129.5 134q44 0 115 -43l70 -43q47 -29 120 -14q-10 -70 -40.5 -114.5t-82 -50t-145 52t-156.5 -99.5q274 -88 274 -168v-920
q0 -100 -130 -100q-125 0 -177.5 100t-52.5 200q0 200 180 200v190h-640v-590q0 -100 -130 -100q-125 0 -177.5 100t-52.5 200q0 200 180 200v463q0 106 -200 168q20 101 95.5 235t129.5 134q44 0 115 -43l70 -43q47 -29 120 -14q-10 -70 -40.5 -114.5t-82 -50t-145 52
t-156.5 -99.5q274 -88 274 -168v-210h640zM380 150q60 0 60 150q0 100 -60 100v-250zM200 963q0 106 -200 168q20 101 95.5 235t129.5 134q44 0 115 -43l70 -43q47 -29 120 -14q-10 -70 -40.5 -114.5t-82 -50t-145 52t-156.5 -99.5q274 -88 274 -168v-520q160 0 160 -200
q0 -100 -52.5 -200t-157.5 -100q-130 0 -130 100v863z" />
    <glyph glyph-name="glyph383" horiz-adv-x="2680" 
d="M960 150q120 0 120 250q0 100 -120 100v-350zM1600 1200q0 104 -69.5 141.5t-250.5 -141.5q-180 179 -250 141.5t-70 -141.5v-600q220 0 220 -200t-62.5 -300t-187.5 -100q-150 0 -150 100v1100q0 122 110 211t169 89q50 0 221 -134q172 134 222 134q59 0 168 -89
q16 -13 29 -26q110 115 341 115q440 0 440 -419v-1081h-180v1081q0 299 -260 299t-260 -299v-1081h-180v1200zM380 150q60 0 60 150q0 100 -60 100v-250zM200 963q0 106 -200 168q20 101 95.5 235t129.5 134q44 0 115 -43l70 -43q47 -29 120 -14q-10 -70 -40.5 -114.5
t-82 -50t-145 52t-156.5 -99.5q274 -88 274 -168v-520q160 0 160 -200q0 -100 -52.5 -200t-157.5 -100q-130 0 -130 100v863z" />
    <glyph glyph-name="glyph384" horiz-adv-x="2875" 
 />
    <glyph glyph-name="glyph385" horiz-adv-x="2875" 
 />
    <glyph glyph-name="glyph386" horiz-adv-x="1980" 
d="M780 900q100 200 500 200t500 -200v-900h-180v860q-60 120 -320 120t-320 -120v-860h-180v900zM731.5 1088.5q-51.5 48.5 -51.5 117.5t234 294q210 0 393 -174q189 174 236 174q86 0 185 -91q98 -91 152 -38q0 -83 -33 -140q-34 -57 -91 -57t-249 148q-70 1 -266 -177
q-110 104 -183.5 139t-143.5 40l-100 -94q18 -107 129 -162l-78 -39q-82 11 -133.5 59.5zM380 150q60 0 60 150q0 100 -60 100v-250zM200 963q0 106 -200 168q20 101 95.5 235t129.5 134q44 0 115 -43l70 -43q47 -29 120 -14q-10 -70 -40.5 -114.5t-82 -50t-145 52
t-156.5 -99.5q274 -88 274 -168v-520q160 0 160 -200q0 -100 -52.5 -200t-157.5 -100q-130 0 -130 100v863zM220 1800q-55 0 -55 -25t85 -25q67 0 109 48q41 47 41 122q0 55 -30 93q-30 37 -80 37q-90 0 -90 75t90 75q112 0 186 -72q74 -73 74 -208q0 -105 -72 -187
q-73 -83 -228 -83q-112 0 -181 31t-69 94t28 94q27 31 82 31t82 -25q28 -25 28 -75z" />
    <glyph glyph-name="glyph387" horiz-adv-x="1980" 
d="M960 1025v-75q56 0 56 50q0 25 -56 25zM1780 300q0 -300 -500 -300t-500 300v267q820 313 820 483v150q0 180 -320 180t-320 -180v-75q82 0 119 -31q37 -32 37 -94q0 -150 -168 -150t-168 100v250q0 300 500 300t500 -300v-150q0 -240 -820 -542v-208q0 -180 320 -180
t320 180v300h180v-300zM380 150q60 0 60 150q0 100 -60 100v-250zM200 963q0 106 -200 168q20 101 95.5 235t129.5 134q44 0 115 -43l70 -43q47 -29 120 -14q-10 -70 -40.5 -114.5t-82 -50t-145 52t-156.5 -99.5q274 -88 274 -168v-520q160 0 160 -200q0 -100 -52.5 -200
t-157.5 -100q-130 0 -130 100v863zM220 1800q-55 0 -55 -25t85 -25q67 0 109 48q41 47 41 122q0 55 -30 93q-30 37 -80 37q-90 0 -90 75t90 75q112 0 186 -72q74 -73 74 -208q0 -105 -72 -187q-73 -83 -228 -83q-112 0 -181 31t-69 94t28 94q27 31 82 31t82 -25
q28 -25 28 -75z" />
    <glyph glyph-name="glyph388" horiz-adv-x="1980" 
d="M731.5 1088.5q-51.5 48.5 -51.5 117.5t234 294q210 0 393 -174q189 174 236 174q86 0 185 -91q98 -91 152 -38q0 -83 -33 -140q-34 -57 -91 -57t-249 148q-70 1 -266 -177q-110 104 -183.5 139t-143.5 40l-100 -94q18 -107 129 -162l-78 -39q-82 11 -133.5 59.5zM960 270
q118 230 282 230q138 0 138 -120q0 -80 -77 -80q-57 0 -57 33t-44 33q-72 0 -242 -329v-37h-180v900q100 200 500 200t500 -200v-900h-180v860q-60 120 -320 120t-320 -120v-590zM380 150q60 0 60 150q0 100 -60 100v-250zM200 963q0 106 -200 168q20 101 95.5 235
t129.5 134q44 0 115 -43l70 -43q47 -29 120 -14q-10 -70 -40.5 -114.5t-82 -50t-145 52t-156.5 -99.5q274 -88 274 -168v-520q160 0 160 -200q0 -100 -52.5 -200t-157.5 -100q-130 0 -130 100v863zM220 1800q-55 0 -55 -25t85 -25q67 0 109 48q41 47 41 122q0 55 -30 93
q-30 37 -80 37q-90 0 -90 75t90 75q112 0 186 -72q74 -73 74 -208q0 -105 -72 -187q-73 -83 -228 -83q-112 0 -181 31t-69 94t28 94q27 31 82 31t82 -25q28 -25 28 -75z" />
    <glyph glyph-name="glyph389" horiz-adv-x="2680" 
d="M780 1350q-80 -20 -80 -150q0 -100 80 -100v250zM2300 963q0 106 -200 168q20 101 95.5 235t129.5 134q44 0 115 -43l70 -43q47 -29 120 -14q-10 -70 -40.5 -114.5t-82 -50t-145 52t-156.5 -99.5q274 -88 274 -168v-820q-100 -200 -470 -200q-253 0 -380 94
q-127 -94 -380 -94q-370 0 -470 200v800q-180 0 -180 200q0 130 65 215t145 85q150 0 150 -100v-1160q60 -120 290 -120t290 120v723q0 106 -200 168q20 101 95.5 235t129.5 134q44 0 115 -43l70 -43q47 -29 120 -14q-10 -70 -40.5 -114.5t-82 -50t-145 52t-156.5 -99.5
q274 -88 274 -168v-780q60 -120 290 -120t290 120v723zM380 150q60 0 60 150q0 100 -60 100v-250zM200 963q0 106 -200 168q20 101 95.5 235t129.5 134q44 0 115 -43l70 -43q47 -29 120 -14q-10 -70 -40.5 -114.5t-82 -50t-145 52t-156.5 -99.5q274 -88 274 -168v-520
q160 0 160 -200q0 -100 -52.5 -200t-157.5 -100q-130 0 -130 100v863zM220 1800q-55 0 -55 -25t85 -25q67 0 109 48q41 47 41 122q0 55 -30 93q-30 37 -80 37q-90 0 -90 75t90 75q112 0 186 -72q74 -73 74 -208q0 -105 -72 -187q-73 -83 -228 -83q-112 0 -181 31t-69 94
t28 94q27 31 82 31t82 -25q28 -25 28 -75z" />
    <glyph glyph-name="glyph390" horiz-adv-x="1980" 
d="M1550 1320q0 60 -50 60q-70 0 -70 -60q0 -34 83 -89q37 42 37 89zM780 791q-50 0 -50 -81q0 -60 50 -60v141zM780 550q-150 0 -150 160q0 190 150 190q180 0 180 -100v-641l236 236q84 85 170 0l234 -235v740q0 108 -28 136.5t-64 52.5q-142 -89 -318 -89q-238 0 -321 69
q-89 75 -89 191q0 65 25 132.5t25 137.5t-100 70q0 100 100 100q180 0 180 -170q0 -85 -25 -142.5t-25 -127.5q0 -59 55 -99.5t175 -40.5q124 0 225 36q-105 88 -105 164q0 180 190 180q180 0 180 -180q0 -77 -68 -148q21 -11 43 -22q125 -67 125 -250v-800
q0 -100 -100 -100q-90 0 -167 77l-233 233l-232 -233q-77 -77 -168 -77q-100 0 -100 100v450zM380 150q60 0 60 150q0 100 -60 100v-250zM200 963q0 106 -200 168q20 101 95.5 235t129.5 134q44 0 115 -43l70 -43q47 -29 120 -14q-10 -70 -40.5 -114.5t-82 -50t-145 52
t-156.5 -99.5q274 -88 274 -168v-520q160 0 160 -200q0 -100 -52.5 -200t-157.5 -100q-130 0 -130 100v863zM220 1800q-55 0 -55 -25t85 -25q67 0 109 48q41 47 41 122q0 55 -30 93q-30 37 -80 37q-90 0 -90 75t90 75q112 0 186 -72q74 -73 74 -208q0 -105 -72 -187
q-73 -83 -228 -83q-112 0 -181 31t-69 94t28 94q27 31 82 31t82 -25q28 -25 28 -75z" />
    <glyph glyph-name="glyph391" horiz-adv-x="1980" 
d="M1600 891q-70 0 -70 -81q0 -60 70 -60v141zM1600 650q-170 0 -170 160q0 190 170 190q180 0 180 -100v-700q-100 -200 -500 -200t-500 200v854q-27 14 -48 35q-52 48 -52 117t234 294q210 0 393 -174q189 174 236 174q86 0 185 -91q98 -91 152 -38q0 -83 -33 -140
q-34 -57 -91 -57t-249 148q-70 1 -266 -177q-110 104 -183.5 139t-143.5 40l-100 -94q18 -107 146 -168v-822q60 -120 320 -120t320 120v410zM380 150q60 0 60 150q0 100 -60 100v-250zM200 963q0 106 -200 168q20 101 95.5 235t129.5 134q44 0 115 -43l70 -43
q47 -29 120 -14q-10 -70 -40.5 -114.5t-82 -50t-145 52t-156.5 -99.5q274 -88 274 -168v-520q160 0 160 -200q0 -100 -52.5 -200t-157.5 -100q-130 0 -130 100v863zM220 1800q-55 0 -55 -25t85 -25q67 0 109 48q41 47 41 122q0 55 -30 93q-30 37 -80 37q-90 0 -90 75t90 75
q112 0 186 -72q74 -73 74 -208q0 -105 -72 -187q-73 -83 -228 -83q-112 0 -181 31t-69 94t28 94q27 31 82 31t82 -25q28 -25 28 -75z" />
    <glyph glyph-name="glyph392" horiz-adv-x="1980" 
d="M780 380q-50 -20 -50 -80q0 -150 50 -150v230zM1600 891q-70 0 -70 -81q0 -60 70 -60v141zM780 1054q-27 14 -48 35q-52 48 -52 117t234 294q210 0 393 -174q189 174 236 174q86 0 185 -91q98 -91 152 -38q0 -83 -33 -140q-34 -57 -91 -57t-249 148q-70 1 -266 -177
q-110 104 -183.5 139t-143.5 40l-100 -94q18 -107 146 -168v-562q370 0 370 -250q0 -130 135 -130t135 130v400q-170 0 -170 160q0 190 170 190q180 0 180 -100v-650q0 -250 -315 -250q-285 0 -285 250q0 130 -220 130v-280q0 -100 -130 -100q-100 0 -150 95t-50 205
q0 170 150 200v554zM380 150q60 0 60 150q0 100 -60 100v-250zM200 963q0 106 -200 168q20 101 95.5 235t129.5 134q44 0 115 -43l70 -43q47 -29 120 -14q-10 -70 -40.5 -114.5t-82 -50t-145 52t-156.5 -99.5q274 -88 274 -168v-520q160 0 160 -200q0 -100 -52.5 -200
t-157.5 -100q-130 0 -130 100v863zM220 1800q-55 0 -55 -25t85 -25q67 0 109 48q41 47 41 122q0 55 -30 93q-30 37 -80 37q-90 0 -90 75t90 75q112 0 186 -72q74 -73 74 -208q0 -105 -72 -187q-73 -83 -228 -83q-112 0 -181 31t-69 94t28 94q27 31 82 31t82 -25
q28 -25 28 -75z" />
    <glyph glyph-name="glyph393" horiz-adv-x="1980" 
d="M780 1010q-71 66 -85.5 91.5t-14.5 63.5q0 37 15 63q14 26 130.5 149t153 123t191.5 -107q204 -143 300 -143q190 0 190 140q0 50 -50 90t-140 40q-130 0 -130 90t130 90q140 0 225 -80t85 -230q0 -142 -80.5 -203t-239.5 -61q-237 0 -361 87l-62 43q-62 43 -100.5 38
t-73 -49t-34.5 -77q0 -34 131 -127v-882l236 236q84 85 170 0l234 -235v840h180v-900q0 -100 -100 -100q-90 0 -167 77l-233 233l-232 -233q-77 -77 -168 -77q-100 0 -100 100v910zM380 150q60 0 60 150q0 100 -60 100v-250zM200 963q0 106 -200 168q20 101 95.5 235
t129.5 134q44 0 115 -43l70 -43q47 -29 120 -14q-10 -70 -40.5 -114.5t-82 -50t-145 52t-156.5 -99.5q274 -88 274 -168v-520q160 0 160 -200q0 -100 -52.5 -200t-157.5 -100q-130 0 -130 100v863zM220 1800q-55 0 -55 -25t85 -25q67 0 109 48q41 47 41 122q0 55 -30 93
q-30 37 -80 37q-90 0 -90 75t90 75q112 0 186 -72q74 -73 74 -208q0 -105 -72 -187q-73 -83 -228 -83q-112 0 -181 31t-69 94t28 94q27 31 82 31t82 -25q28 -25 28 -75z" />
    <glyph glyph-name="glyph394" horiz-adv-x="3380" 
d="M960 150q120 0 120 250q0 100 -120 100v-350zM1520 1260q-60 120 -280 120t-280 -120v-660q220 0 220 -200t-62.5 -300t-187.5 -100q-150 0 -150 100v1200q100 200 460 200t460 -200v-1060q60 -120 280 -120t280 120v723q0 106 -200 168q20 101 95.5 235t129.5 134
q44 0 115 -43l70 -43q47 -29 120 -14q-10 -70 -40.5 -114.5t-82 -50t-145 52t-156.5 -99.5q274 -88 274 -168v-780q60 -120 280 -120t280 120v723q0 106 -200 168q20 101 95.5 235t129.5 134q44 0 115 -43l70 -43q47 -29 120 -14q-10 -70 -40.5 -114.5t-82 -50t-145 52
t-156.5 -99.5q274 -88 274 -168v-820q-100 -200 -460 -200q-245 0 -370 93q-125 -93 -370 -93q-360 0 -460 200v1060zM380 150q60 0 60 150q0 100 -60 100v-250zM200 963q0 106 -200 168q20 101 95.5 235t129.5 134q44 0 115 -43l70 -43q47 -29 120 -14
q-10 -70 -40.5 -114.5t-82 -50t-145 52t-156.5 -99.5q274 -88 274 -168v-520q160 0 160 -200q0 -100 -52.5 -200t-157.5 -100q-130 0 -130 100v863zM220 1800q-55 0 -55 -25t85 -25q67 0 109 48q41 47 41 122q0 55 -30 93q-30 37 -80 37q-90 0 -90 75t90 75q112 0 186 -72
q74 -73 74 -208q0 -105 -72 -187q-73 -83 -228 -83q-112 0 -181 31t-69 94t28 94q27 31 82 31t82 -25q28 -25 28 -75z" />
    <glyph glyph-name="glyph395" horiz-adv-x="2680" 
d="M960 150q120 0 120 250q0 100 -120 100v-350zM2185 -200q0 50 30 75q31 25 94 25q84 0 127 -50q44 -50 44 -150q0 -110 -106 -190t-329 -80q-135 0 -242 38q-107 37 -330 175q-223 137 -340 137q-91 0 -160 -27.5t-143 -92.5q0 60 37 107.5t121 90t195 42.5
q159 0 272 -47t246 -144q252 -175 364 -175q120 0 177.5 33t57.5 133v27q-58 -8 -76.5 3t-28.5 30t-10 40zM1600 1200q0 104 -69.5 141.5t-250.5 -141.5q-180 179 -250 141.5t-70 -141.5v-600q220 0 220 -200t-62.5 -300t-187.5 -100q-150 0 -150 100v1100q0 122 110 211
t169 89q50 0 221 -134q172 134 222 134q59 0 168 -89q16 -13 29 -26q110 115 341 115q440 0 440 -419v-1081h-180v1081q0 299 -260 299t-260 -299v-1081h-180v1200zM380 150q60 0 60 150q0 100 -60 100v-250zM200 963q0 106 -200 168q20 101 95.5 235t129.5 134
q44 0 115 -43l70 -43q47 -29 120 -14q-10 -70 -40.5 -114.5t-82 -50t-145 52t-156.5 -99.5q274 -88 274 -168v-520q160 0 160 -200q0 -100 -52.5 -200t-157.5 -100q-130 0 -130 100v863zM220 1800q-55 0 -55 -25t85 -25q67 0 109 48q41 47 41 122q0 55 -30 93q-30 37 -80 37
q-90 0 -90 75t90 75q112 0 186 -72q74 -73 74 -208q0 -105 -72 -187q-73 -83 -228 -83q-112 0 -181 31t-69 94t28 94q27 31 82 31t82 -25q28 -25 28 -75z" />
    <glyph glyph-name="glyph396" horiz-adv-x="1980" 
d="M938 1314q0 -29 29 -50h24q53 0 53 50q0 24 -12 36q-14 14 -41 14q-26 0 -40 -13q-13 -12 -13 -37zM1115 1221q29 -3 61 -5q42 -2 139 -2q123 0 204 43t81 139q0 124 -140 124q-100 0 -100 90t100 90q320 0 320 -304q0 -128 -126.5 -212t-489.5 -84q-192 0 -288 50.5
t-96 159.5q0 83 52 137q53 53 143 53q91 0 142 -43q52 -43 52 -118t-54 -118zM960 1000v-841l236 236q84 85 170 0l234 -235v840h180v-900q0 -100 -100 -100q-90 0 -167 77l-233 233l-232 -233q-77 -77 -168 -77q-100 0 -100 100v900h180zM380 150q60 0 60 150
q0 100 -60 100v-250zM200 963q0 106 -200 168q20 101 95.5 235t129.5 134q44 0 115 -43l70 -43q47 -29 120 -14q-10 -70 -40.5 -114.5t-82 -50t-145 52t-156.5 -99.5q274 -88 274 -168v-520q160 0 160 -200q0 -100 -52.5 -200t-157.5 -100q-130 0 -130 100v863zM220 1800
q-55 0 -55 -25t85 -25q67 0 109 48q41 47 41 122q0 55 -30 93q-30 37 -80 37q-90 0 -90 75t90 75q112 0 186 -72q74 -73 74 -208q0 -105 -72 -187q-73 -83 -228 -83q-112 0 -181 31t-69 94t28 94q27 31 82 31t82 -25q28 -25 28 -75z" />
    <glyph glyph-name="glyph397" horiz-adv-x="1980" 
d="M780 1350q-80 -20 -80 -150q0 -100 80 -100v250zM780 1000q-180 0 -180 200q0 130 65 215t145 85q150 0 150 -100v-1160q60 -120 320 -120t320 120v723q0 106 -200 168q20 101 95.5 235t129.5 134q44 0 115 -43l59 -36q31 35 31 79q0 120 -90 120q-110 0 -110 90t110 90
q190 0 190 -300q0 -116 -37.5 -187.5t-84.5 -76.5q-52 -6 -145.5 51.5t-156.5 -99.5q274 -88 274 -168v-820q-100 -200 -500 -200t-500 200v800zM380 150q60 0 60 150q0 100 -60 100v-250zM200 963q0 106 -200 168q20 101 95.5 235t129.5 134q44 0 115 -43l70 -43
q47 -29 120 -14q-10 -70 -40.5 -114.5t-82 -50t-145 52t-156.5 -99.5q274 -88 274 -168v-520q160 0 160 -200q0 -100 -52.5 -200t-157.5 -100q-130 0 -130 100v863zM220 1800q-55 0 -55 -25t85 -25q67 0 109 48q41 47 41 122q0 55 -30 93q-30 37 -80 37q-90 0 -90 75t90 75
q112 0 186 -72q74 -73 74 -208q0 -105 -72 -187q-73 -83 -228 -83q-112 0 -181 31t-69 94t28 94q27 31 82 31t82 -25q28 -25 28 -75z" />
    <glyph glyph-name="glyph398" horiz-adv-x="1980" 
d="M960 1025v-75q56 0 56 50q0 25 -56 25zM1600 0v141q-221 -141 -430 -141q-390 0 -390 300v287q820 243 820 463v150q0 104 -69.5 141.5t-250.5 -141.5q-180 179 -250 141.5t-70 -141.5v-75q82 0 119 -31q37 -32 37 -94q0 -150 -148 -150q-188 0 -188 100v250
q0 122 110 211t169 89q50 0 221 -134q172 134 222 134q59 0 168.5 -89t109.5 -211v-150q0 -260 -820 -542v-208q0 -180 210 -180q170 0 430 209v271h180v-600q0 -170 -200 -170q-100 0 -100 100q120 0 120 70zM380 150q60 0 60 150q0 100 -60 100v-250zM200 963
q0 106 -200 168q20 101 95.5 235t129.5 134q44 0 115 -43l70 -43q47 -29 120 -14q-10 -70 -40.5 -114.5t-82 -50t-145 52t-156.5 -99.5q274 -88 274 -168v-520q160 0 160 -200q0 -100 -52.5 -200t-157.5 -100q-130 0 -130 100v863zM220 1800q-55 0 -55 -25t85 -25
q67 0 109 48q41 47 41 122q0 55 -30 93q-30 37 -80 37q-90 0 -90 75t90 75q112 0 186 -72q74 -73 74 -208q0 -105 -72 -187q-73 -83 -228 -83q-112 0 -181 31t-69 94t28 94q27 31 82 31t82 -25q28 -25 28 -75z" />
    <glyph glyph-name="glyph399" horiz-adv-x="2680" 
d="M960 150q120 0 120 250q0 100 -120 100v-350zM1600 380q-50 -20 -50 -80q0 -150 50 -150v230zM2480 250q0 -250 -290 -250q-260 0 -260 250q0 130 -150 130v-280q0 -100 -130 -100q-100 0 -150 95t-50 205q0 170 150 200v700q0 104 -69.5 141.5t-250.5 -141.5
q-180 179 -250 141.5t-70 -141.5v-600q220 0 220 -200t-62.5 -300t-187.5 -100q-150 0 -150 100v1100q0 122 110 211t169 89q50 0 221 -134q172 134 222 134q59 0 168 -89q110 -89 110 -211v-700q300 0 300 -250q0 -130 110 -130t110 130v713q0 106 -200 168
q20 101 95.5 235t129.5 134q44 0 115 -43l70 -43q47 -29 120 -14q-10 -70 -40.5 -114.5t-82 -50t-145 52t-156.5 -99.5q274 -88 274 -168v-770zM380 150q60 0 60 150q0 100 -60 100v-250zM200 963q0 106 -200 168q20 101 95.5 235t129.5 134q44 0 115 -43l70 -43
q47 -29 120 -14q-10 -70 -40.5 -114.5t-82 -50t-145 52t-156.5 -99.5q274 -88 274 -168v-520q160 0 160 -200q0 -100 -52.5 -200t-157.5 -100q-130 0 -130 100v863zM220 1800q-55 0 -55 -25t85 -25q67 0 109 48q41 47 41 122q0 55 -30 93q-30 37 -80 37q-90 0 -90 75t90 75
q112 0 186 -72q74 -73 74 -208q0 -105 -72 -187q-73 -83 -228 -83q-112 0 -181 31t-69 94t28 94q27 31 82 31t82 -25q28 -25 28 -75z" />
    <glyph glyph-name="glyph400" horiz-adv-x="3380" 
d="M960 150q120 0 120 250q0 100 -120 100v-350zM960 600q220 0 220 -200t-62.5 -300t-187.5 -100q-150 0 -150 100v1200q100 200 460 200t460 -200v-1141l240 241q40 40 80 0l240 -240v1140q100 200 460 200t460 -200v-1300h-180v1260q-60 120 -280 120t-280 -120v-1160
q0 -100 -100 -100q-90 0 -167 77l-193 193l-192 -193q-77 -77 -168 -77q-100 0 -100 100v1160q-60 120 -280 120t-280 -120v-660zM380 150q60 0 60 150q0 100 -60 100v-250zM200 963q0 106 -200 168q20 101 95.5 235t129.5 134q44 0 115 -43l70 -43q47 -29 120 -14
q-10 -70 -40.5 -114.5t-82 -50t-145 52t-156.5 -99.5q274 -88 274 -168v-520q160 0 160 -200q0 -100 -52.5 -200t-157.5 -100q-130 0 -130 100v863zM220 1800q-55 0 -55 -25t85 -25q67 0 109 48q41 47 41 122q0 55 -30 93q-30 37 -80 37q-90 0 -90 75t90 75q112 0 186 -72
q74 -73 74 -208q0 -105 -72 -187q-73 -83 -228 -83q-112 0 -181 31t-69 94t28 94q27 31 82 31t82 -25q28 -25 28 -75z" />
    <glyph glyph-name="glyph401" horiz-adv-x="1980" 
d="M960 150q100 0 100 150q0 100 -100 100v-250zM680 1206q0 69 234 294q210 0 393 -174q189 174 236 174q86 0 185 -91q98 -91 152 -38q0 -83 -33 -140q-34 -57 -91 -57t-249 148q-70 1 -266 -177q-110 104 -183.5 139t-143.5 40l-100 -94q18 -107 129 -162l-78 -39
q-82 11 -133.5 59.5t-51.5 117.5zM960 500q200 0 200 -200q0 -100 -52.5 -200t-177.5 -100q-150 0 -150 100v800q100 200 500 200t500 -200v-900h-180v860q-60 120 -320 120t-320 -120v-360zM380 150q60 0 60 150q0 100 -60 100v-250zM200 963q0 106 -200 168
q20 101 95.5 235t129.5 134q44 0 115 -43l70 -43q47 -29 120 -14q-10 -70 -40.5 -114.5t-82 -50t-145 52t-156.5 -99.5q274 -88 274 -168v-520q160 0 160 -200q0 -100 -52.5 -200t-157.5 -100q-130 0 -130 100v863zM220 1800q-55 0 -55 -25t85 -25q67 0 109 48q41 47 41 122
q0 55 -30 93q-30 37 -80 37q-90 0 -90 75t90 75q112 0 186 -72q74 -73 74 -208q0 -105 -72 -187q-73 -83 -228 -83q-112 0 -181 31t-69 94t28 94q27 31 82 31t82 -25q28 -25 28 -75z" />
    <glyph glyph-name="glyph402" horiz-adv-x="1980" 
d="M1600 891q-70 0 -70 -81q0 -60 70 -60v141zM780 1010q-71 66 -85.5 91.5t-14.5 63.5q0 37 15 63q14 26 130.5 149t153 123t191.5 -107q204 -143 300 -143q190 0 190 140q0 50 -50 90t-140 40q-130 0 -130 90t130 90q140 0 225 -80t85 -230q0 -142 -80.5 -203t-239.5 -61
q-237 0 -361 87l-62 43q-62 43 -100.5 38t-73 -49t-34.5 -77q0 -34 131 -127v-801q60 -120 320 -120t320 120v410q-170 0 -170 160q0 190 170 190q180 0 180 -100v-700q-100 -200 -500 -200t-500 200v810zM380 150q60 0 60 150q0 100 -60 100v-250zM200 963q0 106 -200 168
q20 101 95.5 235t129.5 134q44 0 115 -43l70 -43q47 -29 120 -14q-10 -70 -40.5 -114.5t-82 -50t-145 52t-156.5 -99.5q274 -88 274 -168v-520q160 0 160 -200q0 -100 -52.5 -200t-157.5 -100q-130 0 -130 100v863zM220 1800q-55 0 -55 -25t85 -25q67 0 109 48q41 47 41 122
q0 55 -30 93q-30 37 -80 37q-90 0 -90 75t90 75q112 0 186 -72q74 -73 74 -208q0 -105 -72 -187q-73 -83 -228 -83q-112 0 -181 31t-69 94t28 94q27 31 82 31t82 -25q28 -25 28 -75z" />
    <glyph glyph-name="glyph403" horiz-adv-x="1980" 
d="M1544 1080q0 -30 56 -30v55q-56 0 -56 -25zM1630 700q50 0 50 25t-25 25t-25 -50zM1630 302q0 -302 -358 -302q-392 0 -392 250v250h180v-250q0 -130 212 -130q178 0 178 181v279h-170q-500 0 -500 300v320q0 300 500 300t500 -300v-150q0 -100 -168 -100t-168 130
q0 62 37 94q37 31 119 31q0 175 -320 175t-320 -180v-320q0 -180 320 -180h170q0 150 205 150q125 0 125 -125q0 -145 -150 -145v-278zM380 150q60 0 60 150q0 100 -60 100v-250zM200 963q0 106 -200 168q20 101 95.5 235t129.5 134q44 0 115 -43l70 -43q47 -29 120 -14
q-10 -70 -40.5 -114.5t-82 -50t-145 52t-156.5 -99.5q274 -88 274 -168v-520q160 0 160 -200q0 -100 -52.5 -200t-157.5 -100q-130 0 -130 100v863zM220 1800q-55 0 -55 -25t85 -25q67 0 109 48q41 47 41 122q0 55 -30 93q-30 37 -80 37q-90 0 -90 75t90 75q112 0 186 -72
q74 -73 74 -208q0 -105 -72 -187q-73 -83 -228 -83q-112 0 -181 31t-69 94t28 94q27 31 82 31t82 -25q28 -25 28 -75z" />
    <glyph glyph-name="glyph404" horiz-adv-x="1980" 
d="M1600 891q-70 0 -70 -81q0 -60 70 -60v141zM780 1054q-27 14 -48 35q-52 48 -52 117t234 294q210 0 393 -174q189 174 236 174q86 0 185 -91q98 -91 152 -38q0 -83 -33 -140q-34 -57 -91 -57t-249 148q-70 1 -266 -177q-110 104 -183.5 139t-143.5 40l-100 -94
q18 -107 146 -168v-903l236 236q84 85 170 0l234 -235v490q-170 0 -170 160q0 190 170 190q180 0 180 -100v-800q0 -100 -100 -100q-90 0 -167 77l-233 233l-232 -233q-77 -77 -168 -77q-100 0 -100 100v954zM380 150q60 0 60 150q0 100 -60 100v-250zM200 963
q0 106 -200 168q20 101 95.5 235t129.5 134q44 0 115 -43l70 -43q47 -29 120 -14q-10 -70 -40.5 -114.5t-82 -50t-145 52t-156.5 -99.5q274 -88 274 -168v-520q160 0 160 -200q0 -100 -52.5 -200t-157.5 -100q-130 0 -130 100v863zM220 1800q-55 0 -55 -25t85 -25
q67 0 109 48q41 47 41 122q0 55 -30 93q-30 37 -80 37q-90 0 -90 75t90 75q112 0 186 -72q74 -73 74 -208q0 -105 -72 -187q-73 -83 -228 -83q-112 0 -181 31t-69 94t28 94q27 31 82 31t82 -25q28 -25 28 -75z" />
    <glyph glyph-name="glyph405" horiz-adv-x="1980" 
d="M1544 1000q0 -50 56 -50v75q-56 0 -56 -25zM1780 250q0 -250 -295 -250q-141 0 -250 140t-275 140v-280h-180v600h180v-200q195 0 314.5 -125t210.5 -125q115 0 115 100v298l-410 121q-410 121 -410 381v150q0 300 500 300t500 -300v-250q0 -100 -168 -100t-168 150
q0 62 37 94q37 31 119 31v75q0 180 -320 180t-320 -180v-150q0 -210 410 -326l410 -117v-357zM380 150q60 0 60 150q0 100 -60 100v-250zM200 963q0 106 -200 168q20 101 95.5 235t129.5 134q44 0 115 -43l70 -43q47 -29 120 -14q-10 -70 -40.5 -114.5t-82 -50t-145 52
t-156.5 -99.5q274 -88 274 -168v-520q160 0 160 -200q0 -100 -52.5 -200t-157.5 -100q-130 0 -130 100v863zM220 1800q-55 0 -55 -25t85 -25q67 0 109 48q41 47 41 122q0 55 -30 93q-30 37 -80 37q-90 0 -90 75t90 75q112 0 186 -72q74 -73 74 -208q0 -105 -72 -187
q-73 -83 -228 -83q-112 0 -181 31t-69 94t28 94q27 31 82 31t82 -25q28 -25 28 -75z" />
    <glyph glyph-name="glyph406" horiz-adv-x="1980" 
d="M1600 963q0 106 -200 168q20 101 95.5 235t129.5 134q44 0 115 -43l70 -43q47 -29 120 -14q-10 -70 -40.5 -114.5t-82 -50t-145 52t-156.5 -99.5q274 -88 274 -168v-820q-100 -200 -500 -200t-500 200v763q0 106 -200 168q20 101 95.5 235t129.5 134q44 0 115 -43l70 -43
q47 -29 120 -14q-10 -70 -40.5 -114.5t-82 -50t-145 52t-156.5 -99.5q274 -88 274 -168v-780q60 -120 320 -120t320 120v723zM380 150q60 0 60 150q0 100 -60 100v-250zM200 963q0 106 -200 168q20 101 95.5 235t129.5 134q44 0 115 -43l70 -43q47 -29 120 -14
q-10 -70 -40.5 -114.5t-82 -50t-145 52t-156.5 -99.5q274 -88 274 -168v-520q160 0 160 -200q0 -100 -52.5 -200t-157.5 -100q-130 0 -130 100v863zM220 1800q-55 0 -55 -25t85 -25q67 0 109 48q41 47 41 122q0 55 -30 93q-30 37 -80 37q-90 0 -90 75t90 75q112 0 186 -72
q74 -73 74 -208q0 -105 -72 -187q-73 -83 -228 -83q-112 0 -181 31t-69 94t28 94q27 31 82 31t82 -25q28 -25 28 -75z" />
    <glyph glyph-name="glyph407" horiz-adv-x="1980" 
d="M1600 891q-70 0 -70 -81q0 -60 70 -60v141zM1780 100q0 -100 -100 -100q-90 0 -167 77l-233 233l-232 -233q-77 -77 -168 -77q-100 0 -100 100v910q-71 66 -85.5 91.5t-14.5 63.5q0 37 15 63q14 26 130.5 149t153 123t191.5 -107q204 -143 300 -143q190 0 190 140
q0 50 -50 90t-140 40q-130 0 -130 90t130 90q140 0 225 -80t85 -230q0 -142 -80.5 -203t-239.5 -61q-237 0 -361 87l-62 43q-62 43 -100.5 38t-73 -49t-34.5 -77q0 -34 131 -127v-882l236 236q84 85 170 0l234 -235v490q-170 0 -170 160q0 190 170 190q180 0 180 -100v-800z
M380 150q60 0 60 150q0 100 -60 100v-250zM200 963q0 106 -200 168q20 101 95.5 235t129.5 134q44 0 115 -43l70 -43q47 -29 120 -14q-10 -70 -40.5 -114.5t-82 -50t-145 52t-156.5 -99.5q274 -88 274 -168v-520q160 0 160 -200q0 -100 -52.5 -200t-157.5 -100
q-130 0 -130 100v863zM220 1800q-55 0 -55 -25t85 -25q67 0 109 48q41 47 41 122q0 55 -30 93q-30 37 -80 37q-90 0 -90 75t90 75q112 0 186 -72q74 -73 74 -208q0 -105 -72 -187q-73 -83 -228 -83q-112 0 -181 31t-69 94t28 94q27 31 82 31t82 -25q28 -25 28 -75z" />
    <glyph glyph-name="glyph408" horiz-adv-x="1980" 
d="M960 150q120 0 120 250q0 100 -120 100v-350zM780 1200q0 122 110 211t169 89q50 0 221 -134q172 134 222 134q59 0 168 -89q110 -89 110 -211v-1200h-180v1200q0 104 -69.5 141.5t-250.5 -141.5q-180 179 -250 141.5t-70 -141.5v-600q220 0 220 -200t-62.5 -300
t-187.5 -100q-150 0 -150 100v1100zM380 150q60 0 60 150q0 100 -60 100v-250zM200 963q0 106 -200 168q20 101 95.5 235t129.5 134q44 0 115 -43l70 -43q47 -29 120 -14q-10 -70 -40.5 -114.5t-82 -50t-145 52t-156.5 -99.5q274 -88 274 -168v-520q160 0 160 -200
q0 -100 -52.5 -200t-157.5 -100q-130 0 -130 100v863zM220 1800q-55 0 -55 -25t85 -25q67 0 109 48q41 47 41 122q0 55 -30 93q-30 37 -80 37q-90 0 -90 75t90 75q112 0 186 -72q74 -73 74 -208q0 -105 -72 -187q-73 -83 -228 -83q-112 0 -181 31t-69 94t28 94q27 31 82 31
t82 -25q28 -25 28 -75z" />
    <glyph glyph-name="glyph409" horiz-adv-x="1980" 
d="M780 400q-80 0 -80 -100q0 -150 80 -150v250zM680 1206q0 69 234 294q210 0 393 -174q189 174 236 174q86 0 185 -91q98 -91 152 -38q0 -83 -33 -140q-34 -57 -91 -57t-249 148q-70 1 -266 -177q-110 104 -183.5 139t-143.5 40l-100 -94q18 -107 129 -162l-78 -39
q-82 11 -133.5 59.5t-51.5 117.5zM780 900q100 200 500 200t500 -200v-900h-180v860q-60 120 -320 120t-320 -120v-760q0 -100 -150 -100q-105 0 -157.5 100t-52.5 200q0 200 180 200v400zM380 150q60 0 60 150q0 100 -60 100v-250zM200 963q0 106 -200 168q20 101 95.5 235
t129.5 134q44 0 115 -43l70 -43q47 -29 120 -14q-10 -70 -40.5 -114.5t-82 -50t-145 52t-156.5 -99.5q274 -88 274 -168v-520q160 0 160 -200q0 -100 -52.5 -200t-157.5 -100q-130 0 -130 100v863zM220 1800q-55 0 -55 -25t85 -25q67 0 109 48q41 47 41 122q0 55 -30 93
q-30 37 -80 37q-90 0 -90 75t90 75q112 0 186 -72q74 -73 74 -208q0 -105 -72 -187q-73 -83 -228 -83q-112 0 -181 31t-69 94t28 94q27 31 82 31t82 -25q28 -25 28 -75z" />
    <glyph glyph-name="glyph410" horiz-adv-x="1980" 
d="M1600 780v183q0 106 -200 168q20 101 95.5 235t129.5 134q44 0 115 -43l70 -43q47 -29 120 -14q-10 -70 -40.5 -114.5t-82 -50t-145 52t-156.5 -99.5q274 -88 274 -168v-820q-100 -200 -500 -200t-500 200v763q0 106 -200 168q20 101 95.5 235t129.5 134q44 0 115 -43
l70 -43q47 -29 120 -14q-10 -70 -40.5 -114.5t-82 -50t-145 52t-156.5 -99.5q274 -88 274 -168v-240h640zM1600 660h-640v-420q60 -120 320 -120t320 120v420zM380 150q60 0 60 150q0 100 -60 100v-250zM200 963q0 106 -200 168q20 101 95.5 235t129.5 134q44 0 115 -43
l70 -43q47 -29 120 -14q-10 -70 -40.5 -114.5t-82 -50t-145 52t-156.5 -99.5q274 -88 274 -168v-520q160 0 160 -200q0 -100 -52.5 -200t-157.5 -100q-130 0 -130 100v863zM220 1800q-55 0 -55 -25t85 -25q67 0 109 48q41 47 41 122q0 55 -30 93q-30 37 -80 37q-90 0 -90 75
t90 75q112 0 186 -72q74 -73 74 -208q0 -105 -72 -187q-73 -83 -228 -83q-112 0 -181 31t-69 94t28 94q27 31 82 31t82 -25q28 -25 28 -75z" />
    <glyph glyph-name="glyph411" horiz-adv-x="2680" 
d="M960 1100q80 0 80 100q0 130 -80 150v-250zM780 1400q0 100 150 100q80 0 145 -85t65 -215q0 -200 -180 -200v-760q60 -120 290 -120t290 120v723q0 106 -200 168q20 101 95.5 235t129.5 134q44 0 115 -43l70 -43q47 -29 120 -14q-10 -70 -40.5 -114.5t-82 -50t-145 52
t-156.5 -99.5q274 -88 274 -168v-780q60 -120 290 -120t290 120v723q0 106 -200 168q20 101 95.5 235t129.5 134q44 0 115 -43l70 -43q47 -29 120 -14q-10 -70 -40.5 -114.5t-82 -50t-145 52t-156.5 -99.5q274 -88 274 -168v-820q-100 -200 -470 -200q-253 0 -380 94
q-127 -94 -380 -94q-370 0 -470 200v1200zM380 150q60 0 60 150q0 100 -60 100v-250zM200 963q0 106 -200 168q20 101 95.5 235t129.5 134q44 0 115 -43l70 -43q47 -29 120 -14q-10 -70 -40.5 -114.5t-82 -50t-145 52t-156.5 -99.5q274 -88 274 -168v-520q160 0 160 -200
q0 -100 -52.5 -200t-157.5 -100q-130 0 -130 100v863zM220 1800q-55 0 -55 -25t85 -25q67 0 109 48q41 47 41 122q0 55 -30 93q-30 37 -80 37q-90 0 -90 75t90 75q112 0 186 -72q74 -73 74 -208q0 -105 -72 -187q-73 -83 -228 -83q-112 0 -181 31t-69 94t28 94q27 31 82 31
t82 -25q28 -25 28 -75z" />
    <glyph glyph-name="glyph412" horiz-adv-x="1160" 
d="M780 400q-80 0 -80 -100q0 -150 80 -150v250zM960 100q0 -100 -130 -100q-125 0 -177.5 100t-52.5 200q0 200 180 200v463q0 106 -200 168q20 101 95.5 235t129.5 134q44 0 115 -43l70 -43q47 -29 120 -14q-10 -70 -40.5 -114.5t-82 -50t-145 52t-156.5 -99.5
q274 -88 274 -168v-920zM380 150q60 0 60 150q0 100 -60 100v-250zM200 963q0 106 -200 168q20 101 95.5 235t129.5 134q44 0 115 -43l70 -43q47 -29 120 -14q-10 -70 -40.5 -114.5t-82 -50t-145 52t-156.5 -99.5q274 -88 274 -168v-520q160 0 160 -200q0 -100 -52.5 -200
t-157.5 -100q-130 0 -130 100v863zM220 1800q-55 0 -55 -25t85 -25q67 0 109 48q41 47 41 122q0 55 -30 93q-30 37 -80 37q-90 0 -90 75t90 75q112 0 186 -72q74 -73 74 -208q0 -105 -72 -187q-73 -83 -228 -83q-112 0 -181 31t-69 94t28 94q27 31 82 31t82 -25
q28 -25 28 -75z" />
    <glyph glyph-name="glyph413" horiz-adv-x="2680" 
d="M960 150q120 0 120 250q0 100 -120 100v-350zM2480 200q-100 -200 -470 -200t-470 200v1060q-60 120 -290 120t-290 -120v-660q220 0 220 -200t-62.5 -300t-187.5 -100q-150 0 -150 100v1200q100 200 470 200t470 -200v-1060q60 -120 290 -120t290 120v723
q0 106 -200 168q20 101 95.5 235t129.5 134q44 0 115 -43l70 -43q47 -29 120 -14q-10 -70 -40.5 -114.5t-82 -50t-145 52t-156.5 -99.5q274 -88 274 -168v-820zM380 150q60 0 60 150q0 100 -60 100v-250zM200 963q0 106 -200 168q20 101 95.5 235t129.5 134q44 0 115 -43
l70 -43q47 -29 120 -14q-10 -70 -40.5 -114.5t-82 -50t-145 52t-156.5 -99.5q274 -88 274 -168v-520q160 0 160 -200q0 -100 -52.5 -200t-157.5 -100q-130 0 -130 100v863zM220 1800q-55 0 -55 -25t85 -25q67 0 109 48q41 47 41 122q0 55 -30 93q-30 37 -80 37q-90 0 -90 75
t90 75q112 0 186 -72q74 -73 74 -208q0 -105 -72 -187q-73 -83 -228 -83q-112 0 -181 31t-69 94t28 94q27 31 82 31t82 -25q28 -25 28 -75z" />
    <glyph glyph-name="glyph414" horiz-adv-x="1160" 
d="M780 400q-80 0 -80 -100q0 -150 80 -150v250zM988 1236q-52 -6 -145.5 51.5t-156.5 -99.5q274 -88 274 -168v-920q0 -100 -130 -100q-125 0 -177.5 100t-52.5 200q0 200 180 200v463q0 106 -200 168q20 101 95.5 235t129.5 134q44 0 115 -43l59 -36q31 35 31 79
q0 120 -90 120q-110 0 -110 90t110 90q190 0 190 -300q0 -116 -37.5 -187.5t-84.5 -76.5zM380 150q60 0 60 150q0 100 -60 100v-250zM200 963q0 106 -200 168q20 101 95.5 235t129.5 134q44 0 115 -43l70 -43q47 -29 120 -14q-10 -70 -40.5 -114.5t-82 -50t-145 52
t-156.5 -99.5q274 -88 274 -168v-520q160 0 160 -200q0 -100 -52.5 -200t-157.5 -100q-130 0 -130 100v863zM220 1800q-55 0 -55 -25t85 -25q67 0 109 48q41 47 41 122q0 55 -30 93q-30 37 -80 37q-90 0 -90 75t90 75q112 0 186 -72q74 -73 74 -208q0 -105 -72 -187
q-73 -83 -228 -83q-112 0 -181 31t-69 94t28 94q27 31 82 31t82 -25q28 -25 28 -75z" />
    <glyph glyph-name="glyph415" horiz-adv-x="1980" 
d="M680 1206q0 69 234 294q210 0 393 -174q189 174 236 174q86 0 185 -91q98 -91 152 -38q0 -83 -33 -140q-34 -57 -91 -57t-249 148q-70 1 -266 -177q-110 104 -183.5 139t-143.5 40l-100 -94q18 -107 129 -162l-78 -39q-82 11 -133.5 59.5t-51.5 117.5zM1600 510v350
q-60 120 -320 120t-320 -120v-590q118 230 282 230q138 0 138 -120q0 -80 -77 -80q-57 0 -57 33t-44 33q-72 0 -242 -329v-37h-180v900q100 200 500 200t500 -200v-390h150v-120h-150v-390h-180v390h-140v120h140zM380 150q60 0 60 150q0 100 -60 100v-250zM200 963
q0 106 -200 168q20 101 95.5 235t129.5 134q44 0 115 -43l70 -43q47 -29 120 -14q-10 -70 -40.5 -114.5t-82 -50t-145 52t-156.5 -99.5q274 -88 274 -168v-520q160 0 160 -200q0 -100 -52.5 -200t-157.5 -100q-130 0 -130 100v863zM220 1800q-55 0 -55 -25t85 -25
q67 0 109 48q41 47 41 122q0 55 -30 93q-30 37 -80 37q-90 0 -90 75t90 75q112 0 186 -72q74 -73 74 -208q0 -105 -72 -187q-73 -83 -228 -83q-112 0 -181 31t-69 94t28 94q27 31 82 31t82 -25q28 -25 28 -75z" />
    <glyph glyph-name="glyph416" horiz-adv-x="1980" 
d="M1600 810v153q0 106 -200 168q20 101 95.5 235t129.5 134q44 0 115 -43l70 -43q47 -29 120 -14q-10 -70 -40.5 -114.5t-82 -50t-145 52t-156.5 -99.5q274 -88 274 -168v-210h150v-120h-150v-490q-100 -200 -500 -200t-500 200v763q0 106 -200 168q20 101 95.5 235
t129.5 134q44 0 115 -43l70 -43q47 -29 120 -14q-10 -70 -40.5 -114.5t-82 -50t-145 52t-156.5 -99.5q274 -88 274 -168v-780q60 -120 320 -120t320 120v450h-140v120h140zM380 150q60 0 60 150q0 100 -60 100v-250zM200 963q0 106 -200 168q20 101 95.5 235t129.5 134
q44 0 115 -43l70 -43q47 -29 120 -14q-10 -70 -40.5 -114.5t-82 -50t-145 52t-156.5 -99.5q274 -88 274 -168v-520q160 0 160 -200q0 -100 -52.5 -200t-157.5 -100q-130 0 -130 100v863zM220 1800q-55 0 -55 -25t85 -25q67 0 109 48q41 47 41 122q0 55 -30 93q-30 37 -80 37
q-90 0 -90 75t90 75q112 0 186 -72q74 -73 74 -208q0 -105 -72 -187q-73 -83 -228 -83q-112 0 -181 31t-69 94t28 94q27 31 82 31t82 -25q28 -25 28 -75z" />
    <glyph glyph-name="glyph417" horiz-adv-x="2680" 
d="M960 150q100 0 100 150q0 100 -100 100v-250zM1199 1099q25 1 51 1q370 0 470 -200v-660q60 -120 290 -120t290 120v723q0 106 -200 168q20 101 95.5 235t129.5 134q44 0 115 -43l70 -43q47 -29 120 -14q-10 -70 -40.5 -114.5t-82 -50t-145 52t-156.5 -99.5
q274 -88 274 -168v-820q-100 -200 -470 -200t-470 200v660q-60 120 -290 120t-290 -120v-360q200 0 200 -200q0 -100 -52.5 -200t-177.5 -100q-150 0 -150 100v800q62 125 229 172q-68 37 -179 79q30 101 125.5 225t169.5 124q64 0 183 -57.5t192 -42.5
q-10 -70 -40.5 -114.5t-82 -50t-190 52t-241.5 -79.5q174 -52 253 -109zM380 150q60 0 60 150q0 100 -60 100v-250zM200 963q0 106 -200 168q20 101 95.5 235t129.5 134q44 0 115 -43l70 -43q47 -29 120 -14q-10 -70 -40.5 -114.5t-82 -50t-145 52t-156.5 -99.5
q274 -88 274 -168v-520q160 0 160 -200q0 -100 -52.5 -200t-157.5 -100q-130 0 -130 100v863zM220 1800q-55 0 -55 -25t85 -25q67 0 109 48q41 47 41 122q0 55 -30 93q-30 37 -80 37q-90 0 -90 75t90 75q112 0 186 -72q74 -73 74 -208q0 -105 -72 -187q-73 -83 -228 -83
q-112 0 -181 31t-69 94t28 94q27 31 82 31t82 -25q28 -25 28 -75z" />
    <glyph glyph-name="glyph418" horiz-adv-x="2680" 
d="M780 963q0 106 -200 168q20 101 95.5 235t129.5 134q44 0 115 -43l70 -43q47 -29 120 -14q-10 -70 -40.5 -114.5t-82 -50t-145 52t-156.5 -99.5q274 -88 274 -168v-780q60 -120 290 -120t290 120v1060q100 200 470 200t470 -200v-1300h-180v1260q-60 120 -290 120
t-290 -120v-1060q-100 -200 -470 -200t-470 200v763zM380 150q60 0 60 150q0 100 -60 100v-250zM200 963q0 106 -200 168q20 101 95.5 235t129.5 134q44 0 115 -43l70 -43q47 -29 120 -14q-10 -70 -40.5 -114.5t-82 -50t-145 52t-156.5 -99.5q274 -88 274 -168v-520
q160 0 160 -200q0 -100 -52.5 -200t-157.5 -100q-130 0 -130 100v863zM220 1800q-55 0 -55 -25t85 -25q67 0 109 48q41 47 41 122q0 55 -30 93q-30 37 -80 37q-90 0 -90 75t90 75q112 0 186 -72q74 -73 74 -208q0 -105 -72 -187q-73 -83 -228 -83q-112 0 -181 31t-69 94
t28 94q27 31 82 31t82 -25q28 -25 28 -75z" />
    <glyph glyph-name="glyph419" horiz-adv-x="2680" 
d="M1544 1080q0 -30 56 -30v55q-56 0 -56 -25zM1630 700q50 0 50 25t-25 25t-25 -50zM1630 302q0 -302 -358 -302q-392 0 -392 250v250h180v-250q0 -130 212 -130q178 0 178 181v279h-170q-500 0 -500 300v320q0 300 500 300t500 -300v-150q0 -100 -168 -100t-168 130
q0 62 37 94q37 31 119 31q0 175 -320 175t-320 -180v-320q0 -180 320 -180h170q0 150 205 150q125 0 125 -125q0 -145 -150 -145v-278zM2480 -550q0 -100 -100 -100q-90 0 -167 77l-173 173l-172 -173q-77 -77 -168 -77q-100 0 -100 100v200q-100 0 -100 70q0 55 60 117.5
t120 62.5q100 0 100 -100v-291l200 201q60 60 120 0l200 -200v1453q0 106 -200 168q20 101 95.5 235t129.5 134q44 0 115 -43l70 -43q47 -29 120 -14q-10 -70 -40.5 -114.5t-82 -50t-145 52t-156.5 -99.5q274 -88 274 -168v-1570zM380 150q60 0 60 150q0 100 -60 100v-250z
M200 963q0 106 -200 168q20 101 95.5 235t129.5 134q44 0 115 -43l70 -43q47 -29 120 -14q-10 -70 -40.5 -114.5t-82 -50t-145 52t-156.5 -99.5q274 -88 274 -168v-520q160 0 160 -200q0 -100 -52.5 -200t-157.5 -100q-130 0 -130 100v863zM220 1800q-55 0 -55 -25t85 -25
q67 0 109 48q41 47 41 122q0 55 -30 93q-30 37 -80 37q-90 0 -90 75t90 75q112 0 186 -72q74 -73 74 -208q0 -105 -72 -187q-73 -83 -228 -83q-112 0 -181 31t-69 94t28 94q27 31 82 31t82 -25q28 -25 28 -75z" />
    <glyph glyph-name="glyph420" horiz-adv-x="1980" 
d="M1600 400q-80 0 -80 -100q0 -150 80 -150v250zM780 400q-80 0 -80 -100q0 -150 80 -150v250zM1600 810v153q0 106 -200 168q20 101 95.5 235t129.5 134q44 0 115 -43l70 -43q47 -29 120 -14q-10 -70 -40.5 -114.5t-82 -50t-145 52t-156.5 -99.5q274 -88 274 -168v-920
q0 -100 -130 -100q-125 0 -177.5 100t-52.5 200q0 200 180 200v190h-640v-590q0 -100 -130 -100q-125 0 -177.5 100t-52.5 200q0 200 180 200v463q0 106 -200 168q20 101 95.5 235t129.5 134q44 0 115 -43l70 -43q47 -29 120 -14q-10 -70 -40.5 -114.5t-82 -50t-145 52
t-156.5 -99.5q274 -88 274 -168v-210h640zM380 150q60 0 60 150q0 100 -60 100v-250zM200 963q0 106 -200 168q20 101 95.5 235t129.5 134q44 0 115 -43l70 -43q47 -29 120 -14q-10 -70 -40.5 -114.5t-82 -50t-145 52t-156.5 -99.5q274 -88 274 -168v-520q160 0 160 -200
q0 -100 -52.5 -200t-157.5 -100q-130 0 -130 100v863zM220 1800q-55 0 -55 -25t85 -25q67 0 109 48q41 47 41 122q0 55 -30 93q-30 37 -80 37q-90 0 -90 75t90 75q112 0 186 -72q74 -73 74 -208q0 -105 -72 -187q-73 -83 -228 -83q-112 0 -181 31t-69 94t28 94q27 31 82 31
t82 -25q28 -25 28 -75z" />
    <glyph glyph-name="glyph421" horiz-adv-x="2680" 
d="M960 150q120 0 120 250q0 100 -120 100v-350zM1600 1200q0 104 -69.5 141.5t-250.5 -141.5q-180 179 -250 141.5t-70 -141.5v-600q220 0 220 -200t-62.5 -300t-187.5 -100q-150 0 -150 100v1100q0 122 110 211t169 89q50 0 221 -134q172 134 222 134q59 0 168 -89
q16 -13 29 -26q110 115 341 115q440 0 440 -419v-1081h-180v1081q0 299 -260 299t-260 -299v-1081h-180v1200zM380 150q60 0 60 150q0 100 -60 100v-250zM200 963q0 106 -200 168q20 101 95.5 235t129.5 134q44 0 115 -43l70 -43q47 -29 120 -14q-10 -70 -40.5 -114.5
t-82 -50t-145 52t-156.5 -99.5q274 -88 274 -168v-520q160 0 160 -200q0 -100 -52.5 -200t-157.5 -100q-130 0 -130 100v863zM220 1800q-55 0 -55 -25t85 -25q67 0 109 48q41 47 41 122q0 55 -30 93q-30 37 -80 37q-90 0 -90 75t90 75q112 0 186 -72q74 -73 74 -208
q0 -105 -72 -187q-73 -83 -228 -83q-112 0 -181 31t-69 94t28 94q27 31 82 31t82 -25q28 -25 28 -75z" />
    <glyph glyph-name="glyph422" horiz-adv-x="1980" 
d="M780 900q100 200 500 200t500 -200v-900h-180v860q-60 120 -320 120t-320 -120v-860h-180v900zM731.5 1088.5q-51.5 48.5 -51.5 117.5t234 294q210 0 393 -174q189 174 236 174q86 0 185 -91q98 -91 152 -38q0 -83 -33 -140q-34 -57 -91 -57t-249 148q-70 1 -266 -177
q-110 104 -183.5 139t-143.5 40l-100 -94q18 -107 129 -162l-78 -39q-82 11 -133.5 59.5zM380 150q60 0 60 150q0 100 -60 100v-250zM200 963q0 106 -200 168q20 101 95.5 235t129.5 134q44 0 115 -43l70 -43q47 -29 120 -14q-10 -70 -40.5 -114.5t-82 -50t-145 52
t-156.5 -99.5q274 -88 274 -168v-520q160 0 160 -200q0 -100 -52.5 -200t-157.5 -100q-130 0 -130 100v863zM250 1800q0 -50 50 -50t75 25t25 75q0 70 -25 95t-75 25h-50q-150 0 -150 100q0 80 -100 80q0 100 100 100q78 0 114 -45t36 -135h50q138 0 194 -50t56 -170
q0 -100 -56 -150t-194 -50q-200 0 -200 140q0 80 75 80t75 -70z" />
    <glyph glyph-name="glyph423" horiz-adv-x="1980" 
d="M960 1025v-75q56 0 56 50q0 25 -56 25zM1780 300q0 -300 -500 -300t-500 300v267q820 313 820 483v150q0 180 -320 180t-320 -180v-75q82 0 119 -31q37 -32 37 -94q0 -150 -168 -150t-168 100v250q0 300 500 300t500 -300v-150q0 -240 -820 -542v-208q0 -180 320 -180
t320 180v300h180v-300zM380 150q60 0 60 150q0 100 -60 100v-250zM200 963q0 106 -200 168q20 101 95.5 235t129.5 134q44 0 115 -43l70 -43q47 -29 120 -14q-10 -70 -40.5 -114.5t-82 -50t-145 52t-156.5 -99.5q274 -88 274 -168v-520q160 0 160 -200q0 -100 -52.5 -200
t-157.5 -100q-130 0 -130 100v863zM250 1800q0 -50 50 -50t75 25t25 75q0 70 -25 95t-75 25h-50q-150 0 -150 100q0 80 -100 80q0 100 100 100q78 0 114 -45t36 -135h50q138 0 194 -50t56 -170q0 -100 -56 -150t-194 -50q-200 0 -200 140q0 80 75 80t75 -70z" />
    <glyph glyph-name="glyph424" horiz-adv-x="1980" 
d="M731.5 1088.5q-51.5 48.5 -51.5 117.5t234 294q210 0 393 -174q189 174 236 174q86 0 185 -91q98 -91 152 -38q0 -83 -33 -140q-34 -57 -91 -57t-249 148q-70 1 -266 -177q-110 104 -183.5 139t-143.5 40l-100 -94q18 -107 129 -162l-78 -39q-82 11 -133.5 59.5zM960 270
q118 230 282 230q138 0 138 -120q0 -80 -77 -80q-57 0 -57 33t-44 33q-72 0 -242 -329v-37h-180v900q100 200 500 200t500 -200v-900h-180v860q-60 120 -320 120t-320 -120v-590zM380 150q60 0 60 150q0 100 -60 100v-250zM200 963q0 106 -200 168q20 101 95.5 235
t129.5 134q44 0 115 -43l70 -43q47 -29 120 -14q-10 -70 -40.5 -114.5t-82 -50t-145 52t-156.5 -99.5q274 -88 274 -168v-520q160 0 160 -200q0 -100 -52.5 -200t-157.5 -100q-130 0 -130 100v863zM250 1800q0 -50 50 -50t75 25t25 75q0 70 -25 95t-75 25h-50
q-150 0 -150 100q0 80 -100 80q0 100 100 100q78 0 114 -45t36 -135h50q138 0 194 -50t56 -170q0 -100 -56 -150t-194 -50q-200 0 -200 140q0 80 75 80t75 -70z" />
    <glyph glyph-name="glyph425" horiz-adv-x="2680" 
d="M780 1350q-80 -20 -80 -150q0 -100 80 -100v250zM2300 963q0 106 -200 168q20 101 95.5 235t129.5 134q44 0 115 -43l70 -43q47 -29 120 -14q-10 -70 -40.5 -114.5t-82 -50t-145 52t-156.5 -99.5q274 -88 274 -168v-820q-100 -200 -470 -200q-253 0 -380 94
q-127 -94 -380 -94q-370 0 -470 200v800q-180 0 -180 200q0 130 65 215t145 85q150 0 150 -100v-1160q60 -120 290 -120t290 120v723q0 106 -200 168q20 101 95.5 235t129.5 134q44 0 115 -43l70 -43q47 -29 120 -14q-10 -70 -40.5 -114.5t-82 -50t-145 52t-156.5 -99.5
q274 -88 274 -168v-780q60 -120 290 -120t290 120v723zM380 150q60 0 60 150q0 100 -60 100v-250zM200 963q0 106 -200 168q20 101 95.5 235t129.5 134q44 0 115 -43l70 -43q47 -29 120 -14q-10 -70 -40.5 -114.5t-82 -50t-145 52t-156.5 -99.5q274 -88 274 -168v-520
q160 0 160 -200q0 -100 -52.5 -200t-157.5 -100q-130 0 -130 100v863zM250 1800q0 -50 50 -50t75 25t25 75q0 70 -25 95t-75 25h-50q-150 0 -150 100q0 80 -100 80q0 100 100 100q78 0 114 -45t36 -135h50q138 0 194 -50t56 -170q0 -100 -56 -150t-194 -50q-200 0 -200 140
q0 80 75 80t75 -70z" />
    <glyph glyph-name="glyph426" horiz-adv-x="1980" 
d="M1550 1320q0 60 -50 60q-70 0 -70 -60q0 -34 83 -89q37 42 37 89zM780 791q-50 0 -50 -81q0 -60 50 -60v141zM780 550q-150 0 -150 160q0 190 150 190q180 0 180 -100v-641l236 236q84 85 170 0l234 -235v740q0 108 -28 136.5t-64 52.5q-142 -89 -318 -89q-238 0 -321 69
q-89 75 -89 191q0 65 25 132.5t25 137.5t-100 70q0 100 100 100q180 0 180 -170q0 -85 -25 -142.5t-25 -127.5q0 -59 55 -99.5t175 -40.5q124 0 225 36q-105 88 -105 164q0 180 190 180q180 0 180 -180q0 -77 -68 -148q21 -11 43 -22q125 -67 125 -250v-800
q0 -100 -100 -100q-90 0 -167 77l-233 233l-232 -233q-77 -77 -168 -77q-100 0 -100 100v450zM380 150q60 0 60 150q0 100 -60 100v-250zM200 963q0 106 -200 168q20 101 95.5 235t129.5 134q44 0 115 -43l70 -43q47 -29 120 -14q-10 -70 -40.5 -114.5t-82 -50t-145 52
t-156.5 -99.5q274 -88 274 -168v-520q160 0 160 -200q0 -100 -52.5 -200t-157.5 -100q-130 0 -130 100v863zM250 1800q0 -50 50 -50t75 25t25 75q0 70 -25 95t-75 25h-50q-150 0 -150 100q0 80 -100 80q0 100 100 100q78 0 114 -45t36 -135h50q138 0 194 -50t56 -170
q0 -100 -56 -150t-194 -50q-200 0 -200 140q0 80 75 80t75 -70z" />
    <glyph glyph-name="glyph427" horiz-adv-x="1980" 
d="M1600 891q-70 0 -70 -81q0 -60 70 -60v141zM1600 650q-170 0 -170 160q0 190 170 190q180 0 180 -100v-700q-100 -200 -500 -200t-500 200v854q-27 14 -48 35q-52 48 -52 117t234 294q210 0 393 -174q189 174 236 174q86 0 185 -91q98 -91 152 -38q0 -83 -33 -140
q-34 -57 -91 -57t-249 148q-70 1 -266 -177q-110 104 -183.5 139t-143.5 40l-100 -94q18 -107 146 -168v-822q60 -120 320 -120t320 120v410zM380 150q60 0 60 150q0 100 -60 100v-250zM200 963q0 106 -200 168q20 101 95.5 235t129.5 134q44 0 115 -43l70 -43
q47 -29 120 -14q-10 -70 -40.5 -114.5t-82 -50t-145 52t-156.5 -99.5q274 -88 274 -168v-520q160 0 160 -200q0 -100 -52.5 -200t-157.5 -100q-130 0 -130 100v863zM250 1800q0 -50 50 -50t75 25t25 75q0 70 -25 95t-75 25h-50q-150 0 -150 100q0 80 -100 80q0 100 100 100
q78 0 114 -45t36 -135h50q138 0 194 -50t56 -170q0 -100 -56 -150t-194 -50q-200 0 -200 140q0 80 75 80t75 -70z" />
    <glyph glyph-name="glyph428" horiz-adv-x="1980" 
d="M780 380q-50 -20 -50 -80q0 -150 50 -150v230zM1600 891q-70 0 -70 -81q0 -60 70 -60v141zM780 1054q-27 14 -48 35q-52 48 -52 117t234 294q210 0 393 -174q189 174 236 174q86 0 185 -91q98 -91 152 -38q0 -83 -33 -140q-34 -57 -91 -57t-249 148q-70 1 -266 -177
q-110 104 -183.5 139t-143.5 40l-100 -94q18 -107 146 -168v-562q370 0 370 -250q0 -130 135 -130t135 130v400q-170 0 -170 160q0 190 170 190q180 0 180 -100v-650q0 -250 -315 -250q-285 0 -285 250q0 130 -220 130v-280q0 -100 -130 -100q-100 0 -150 95t-50 205
q0 170 150 200v554zM380 150q60 0 60 150q0 100 -60 100v-250zM200 963q0 106 -200 168q20 101 95.5 235t129.5 134q44 0 115 -43l70 -43q47 -29 120 -14q-10 -70 -40.5 -114.5t-82 -50t-145 52t-156.5 -99.5q274 -88 274 -168v-520q160 0 160 -200q0 -100 -52.5 -200
t-157.5 -100q-130 0 -130 100v863zM250 1800q0 -50 50 -50t75 25t25 75q0 70 -25 95t-75 25h-50q-150 0 -150 100q0 80 -100 80q0 100 100 100q78 0 114 -45t36 -135h50q138 0 194 -50t56 -170q0 -100 -56 -150t-194 -50q-200 0 -200 140q0 80 75 80t75 -70z" />
    <glyph glyph-name="glyph429" horiz-adv-x="1980" 
d="M780 1010q-71 66 -85.5 91.5t-14.5 63.5q0 37 15 63q14 26 130.5 149t153 123t191.5 -107q204 -143 300 -143q190 0 190 140q0 50 -50 90t-140 40q-130 0 -130 90t130 90q140 0 225 -80t85 -230q0 -142 -80.5 -203t-239.5 -61q-237 0 -361 87l-62 43q-62 43 -100.5 38
t-73 -49t-34.5 -77q0 -34 131 -127v-882l236 236q84 85 170 0l234 -235v840h180v-900q0 -100 -100 -100q-90 0 -167 77l-233 233l-232 -233q-77 -77 -168 -77q-100 0 -100 100v910zM380 150q60 0 60 150q0 100 -60 100v-250zM200 963q0 106 -200 168q20 101 95.5 235
t129.5 134q44 0 115 -43l70 -43q47 -29 120 -14q-10 -70 -40.5 -114.5t-82 -50t-145 52t-156.5 -99.5q274 -88 274 -168v-520q160 0 160 -200q0 -100 -52.5 -200t-157.5 -100q-130 0 -130 100v863zM250 1800q0 -50 50 -50t75 25t25 75q0 70 -25 95t-75 25h-50
q-150 0 -150 100q0 80 -100 80q0 100 100 100q78 0 114 -45t36 -135h50q138 0 194 -50t56 -170q0 -100 -56 -150t-194 -50q-200 0 -200 140q0 80 75 80t75 -70z" />
    <glyph glyph-name="glyph430" horiz-adv-x="3380" 
d="M960 150q120 0 120 250q0 100 -120 100v-350zM1520 1260q-60 120 -280 120t-280 -120v-660q220 0 220 -200t-62.5 -300t-187.5 -100q-150 0 -150 100v1200q100 200 460 200t460 -200v-1060q60 -120 280 -120t280 120v723q0 106 -200 168q20 101 95.5 235t129.5 134
q44 0 115 -43l70 -43q47 -29 120 -14q-10 -70 -40.5 -114.5t-82 -50t-145 52t-156.5 -99.5q274 -88 274 -168v-780q60 -120 280 -120t280 120v723q0 106 -200 168q20 101 95.5 235t129.5 134q44 0 115 -43l70 -43q47 -29 120 -14q-10 -70 -40.5 -114.5t-82 -50t-145 52
t-156.5 -99.5q274 -88 274 -168v-820q-100 -200 -460 -200q-245 0 -370 93q-125 -93 -370 -93q-360 0 -460 200v1060zM380 150q60 0 60 150q0 100 -60 100v-250zM200 963q0 106 -200 168q20 101 95.5 235t129.5 134q44 0 115 -43l70 -43q47 -29 120 -14
q-10 -70 -40.5 -114.5t-82 -50t-145 52t-156.5 -99.5q274 -88 274 -168v-520q160 0 160 -200q0 -100 -52.5 -200t-157.5 -100q-130 0 -130 100v863zM250 1800q0 -50 50 -50t75 25t25 75q0 70 -25 95t-75 25h-50q-150 0 -150 100q0 80 -100 80q0 100 100 100q78 0 114 -45
t36 -135h50q138 0 194 -50t56 -170q0 -100 -56 -150t-194 -50q-200 0 -200 140q0 80 75 80t75 -70z" />
    <glyph glyph-name="glyph431" horiz-adv-x="2680" 
d="M960 150q120 0 120 250q0 100 -120 100v-350zM2185 -200q0 50 30 75q31 25 94 25q84 0 127 -50q44 -50 44 -150q0 -110 -106 -190t-329 -80q-135 0 -242 38q-107 37 -330 175q-223 137 -340 137q-91 0 -160 -27.5t-143 -92.5q0 60 37 107.5t121 90t195 42.5
q159 0 272 -47t246 -144q252 -175 364 -175q120 0 177.5 33t57.5 133v27q-58 -8 -76.5 3t-28.5 30t-10 40zM1600 1200q0 104 -69.5 141.5t-250.5 -141.5q-180 179 -250 141.5t-70 -141.5v-600q220 0 220 -200t-62.5 -300t-187.5 -100q-150 0 -150 100v1100q0 122 110 211
t169 89q50 0 221 -134q172 134 222 134q59 0 168 -89q16 -13 29 -26q110 115 341 115q440 0 440 -419v-1081h-180v1081q0 299 -260 299t-260 -299v-1081h-180v1200zM380 150q60 0 60 150q0 100 -60 100v-250zM200 963q0 106 -200 168q20 101 95.5 235t129.5 134
q44 0 115 -43l70 -43q47 -29 120 -14q-10 -70 -40.5 -114.5t-82 -50t-145 52t-156.5 -99.5q274 -88 274 -168v-520q160 0 160 -200q0 -100 -52.5 -200t-157.5 -100q-130 0 -130 100v863zM250 1800q0 -50 50 -50t75 25t25 75q0 70 -25 95t-75 25h-50q-150 0 -150 100
q0 80 -100 80q0 100 100 100q78 0 114 -45t36 -135h50q138 0 194 -50t56 -170q0 -100 -56 -150t-194 -50q-200 0 -200 140q0 80 75 80t75 -70z" />
    <glyph glyph-name="glyph432" horiz-adv-x="1980" 
d="M938 1314q0 -29 29 -50h24q53 0 53 50q0 24 -12 36q-14 14 -41 14q-26 0 -40 -13q-13 -12 -13 -37zM1115 1221q29 -3 61 -5q42 -2 139 -2q123 0 204 43t81 139q0 124 -140 124q-100 0 -100 90t100 90q320 0 320 -304q0 -128 -126.5 -212t-489.5 -84q-192 0 -288 50.5
t-96 159.5q0 83 52 137q53 53 143 53q91 0 142 -43q52 -43 52 -118t-54 -118zM960 1000v-841l236 236q84 85 170 0l234 -235v840h180v-900q0 -100 -100 -100q-90 0 -167 77l-233 233l-232 -233q-77 -77 -168 -77q-100 0 -100 100v900h180zM380 150q60 0 60 150
q0 100 -60 100v-250zM200 963q0 106 -200 168q20 101 95.5 235t129.5 134q44 0 115 -43l70 -43q47 -29 120 -14q-10 -70 -40.5 -114.5t-82 -50t-145 52t-156.5 -99.5q274 -88 274 -168v-520q160 0 160 -200q0 -100 -52.5 -200t-157.5 -100q-130 0 -130 100v863zM250 1800
q0 -50 50 -50t75 25t25 75q0 70 -25 95t-75 25h-50q-150 0 -150 100q0 80 -100 80q0 100 100 100q78 0 114 -45t36 -135h50q138 0 194 -50t56 -170q0 -100 -56 -150t-194 -50q-200 0 -200 140q0 80 75 80t75 -70z" />
    <glyph glyph-name="glyph433" horiz-adv-x="1980" 
d="M780 1350q-80 -20 -80 -150q0 -100 80 -100v250zM780 1000q-180 0 -180 200q0 130 65 215t145 85q150 0 150 -100v-1160q60 -120 320 -120t320 120v723q0 106 -200 168q20 101 95.5 235t129.5 134q44 0 115 -43l59 -36q31 35 31 79q0 120 -90 120q-110 0 -110 90t110 90
q190 0 190 -300q0 -116 -37.5 -187.5t-84.5 -76.5q-52 -6 -145.5 51.5t-156.5 -99.5q274 -88 274 -168v-820q-100 -200 -500 -200t-500 200v800zM380 150q60 0 60 150q0 100 -60 100v-250zM200 963q0 106 -200 168q20 101 95.5 235t129.5 134q44 0 115 -43l70 -43
q47 -29 120 -14q-10 -70 -40.5 -114.5t-82 -50t-145 52t-156.5 -99.5q274 -88 274 -168v-520q160 0 160 -200q0 -100 -52.5 -200t-157.5 -100q-130 0 -130 100v863zM250 1800q0 -50 50 -50t75 25t25 75q0 70 -25 95t-75 25h-50q-150 0 -150 100q0 80 -100 80q0 100 100 100
q78 0 114 -45t36 -135h50q138 0 194 -50t56 -170q0 -100 -56 -150t-194 -50q-200 0 -200 140q0 80 75 80t75 -70z" />
    <glyph glyph-name="glyph434" horiz-adv-x="1980" 
d="M960 1025v-75q56 0 56 50q0 25 -56 25zM1600 0v141q-221 -141 -430 -141q-390 0 -390 300v287q820 243 820 463v150q0 104 -69.5 141.5t-250.5 -141.5q-180 179 -250 141.5t-70 -141.5v-75q82 0 119 -31q37 -32 37 -94q0 -150 -148 -150q-188 0 -188 100v250
q0 122 110 211t169 89q50 0 221 -134q172 134 222 134q59 0 168.5 -89t109.5 -211v-150q0 -260 -820 -542v-208q0 -180 210 -180q170 0 430 209v271h180v-600q0 -170 -200 -170q-100 0 -100 100q120 0 120 70zM380 150q60 0 60 150q0 100 -60 100v-250zM200 963
q0 106 -200 168q20 101 95.5 235t129.5 134q44 0 115 -43l70 -43q47 -29 120 -14q-10 -70 -40.5 -114.5t-82 -50t-145 52t-156.5 -99.5q274 -88 274 -168v-520q160 0 160 -200q0 -100 -52.5 -200t-157.5 -100q-130 0 -130 100v863zM250 1800q0 -50 50 -50t75 25t25 75
q0 70 -25 95t-75 25h-50q-150 0 -150 100q0 80 -100 80q0 100 100 100q78 0 114 -45t36 -135h50q138 0 194 -50t56 -170q0 -100 -56 -150t-194 -50q-200 0 -200 140q0 80 75 80t75 -70z" />
    <glyph glyph-name="glyph435" horiz-adv-x="2680" 
d="M960 150q120 0 120 250q0 100 -120 100v-350zM1600 380q-50 -20 -50 -80q0 -150 50 -150v230zM2480 250q0 -250 -290 -250q-260 0 -260 250q0 130 -150 130v-280q0 -100 -130 -100q-100 0 -150 95t-50 205q0 170 150 200v700q0 104 -69.5 141.5t-250.5 -141.5
q-180 179 -250 141.5t-70 -141.5v-600q220 0 220 -200t-62.5 -300t-187.5 -100q-150 0 -150 100v1100q0 122 110 211t169 89q50 0 221 -134q172 134 222 134q59 0 168 -89q110 -89 110 -211v-700q300 0 300 -250q0 -130 110 -130t110 130v713q0 106 -200 168
q20 101 95.5 235t129.5 134q44 0 115 -43l70 -43q47 -29 120 -14q-10 -70 -40.5 -114.5t-82 -50t-145 52t-156.5 -99.5q274 -88 274 -168v-770zM380 150q60 0 60 150q0 100 -60 100v-250zM200 963q0 106 -200 168q20 101 95.5 235t129.5 134q44 0 115 -43l70 -43
q47 -29 120 -14q-10 -70 -40.5 -114.5t-82 -50t-145 52t-156.5 -99.5q274 -88 274 -168v-520q160 0 160 -200q0 -100 -52.5 -200t-157.5 -100q-130 0 -130 100v863zM250 1800q0 -50 50 -50t75 25t25 75q0 70 -25 95t-75 25h-50q-150 0 -150 100q0 80 -100 80q0 100 100 100
q78 0 114 -45t36 -135h50q138 0 194 -50t56 -170q0 -100 -56 -150t-194 -50q-200 0 -200 140q0 80 75 80t75 -70z" />
    <glyph glyph-name="glyph436" horiz-adv-x="3380" 
d="M960 150q120 0 120 250q0 100 -120 100v-350zM960 600q220 0 220 -200t-62.5 -300t-187.5 -100q-150 0 -150 100v1200q100 200 460 200t460 -200v-1141l240 241q40 40 80 0l240 -240v1140q100 200 460 200t460 -200v-1300h-180v1260q-60 120 -280 120t-280 -120v-1160
q0 -100 -100 -100q-90 0 -167 77l-193 193l-192 -193q-77 -77 -168 -77q-100 0 -100 100v1160q-60 120 -280 120t-280 -120v-660zM380 150q60 0 60 150q0 100 -60 100v-250zM200 963q0 106 -200 168q20 101 95.5 235t129.5 134q44 0 115 -43l70 -43q47 -29 120 -14
q-10 -70 -40.5 -114.5t-82 -50t-145 52t-156.5 -99.5q274 -88 274 -168v-520q160 0 160 -200q0 -100 -52.5 -200t-157.5 -100q-130 0 -130 100v863zM250 1800q0 -50 50 -50t75 25t25 75q0 70 -25 95t-75 25h-50q-150 0 -150 100q0 80 -100 80q0 100 100 100q78 0 114 -45
t36 -135h50q138 0 194 -50t56 -170q0 -100 -56 -150t-194 -50q-200 0 -200 140q0 80 75 80t75 -70z" />
    <glyph glyph-name="glyph437" horiz-adv-x="1980" 
d="M960 150q100 0 100 150q0 100 -100 100v-250zM680 1206q0 69 234 294q210 0 393 -174q189 174 236 174q86 0 185 -91q98 -91 152 -38q0 -83 -33 -140q-34 -57 -91 -57t-249 148q-70 1 -266 -177q-110 104 -183.5 139t-143.5 40l-100 -94q18 -107 129 -162l-78 -39
q-82 11 -133.5 59.5t-51.5 117.5zM960 500q200 0 200 -200q0 -100 -52.5 -200t-177.5 -100q-150 0 -150 100v800q100 200 500 200t500 -200v-900h-180v860q-60 120 -320 120t-320 -120v-360zM380 150q60 0 60 150q0 100 -60 100v-250zM200 963q0 106 -200 168
q20 101 95.5 235t129.5 134q44 0 115 -43l70 -43q47 -29 120 -14q-10 -70 -40.5 -114.5t-82 -50t-145 52t-156.5 -99.5q274 -88 274 -168v-520q160 0 160 -200q0 -100 -52.5 -200t-157.5 -100q-130 0 -130 100v863zM250 1800q0 -50 50 -50t75 25t25 75q0 70 -25 95t-75 25
h-50q-150 0 -150 100q0 80 -100 80q0 100 100 100q78 0 114 -45t36 -135h50q138 0 194 -50t56 -170q0 -100 -56 -150t-194 -50q-200 0 -200 140q0 80 75 80t75 -70z" />
    <glyph glyph-name="glyph438" horiz-adv-x="1980" 
d="M1600 891q-70 0 -70 -81q0 -60 70 -60v141zM780 1010q-71 66 -85.5 91.5t-14.5 63.5q0 37 15 63q14 26 130.5 149t153 123t191.5 -107q204 -143 300 -143q190 0 190 140q0 50 -50 90t-140 40q-130 0 -130 90t130 90q140 0 225 -80t85 -230q0 -142 -80.5 -203t-239.5 -61
q-237 0 -361 87l-62 43q-62 43 -100.5 38t-73 -49t-34.5 -77q0 -34 131 -127v-801q60 -120 320 -120t320 120v410q-170 0 -170 160q0 190 170 190q180 0 180 -100v-700q-100 -200 -500 -200t-500 200v810zM380 150q60 0 60 150q0 100 -60 100v-250zM200 963q0 106 -200 168
q20 101 95.5 235t129.5 134q44 0 115 -43l70 -43q47 -29 120 -14q-10 -70 -40.5 -114.5t-82 -50t-145 52t-156.5 -99.5q274 -88 274 -168v-520q160 0 160 -200q0 -100 -52.5 -200t-157.5 -100q-130 0 -130 100v863zM250 1800q0 -50 50 -50t75 25t25 75q0 70 -25 95t-75 25
h-50q-150 0 -150 100q0 80 -100 80q0 100 100 100q78 0 114 -45t36 -135h50q138 0 194 -50t56 -170q0 -100 -56 -150t-194 -50q-200 0 -200 140q0 80 75 80t75 -70z" />
    <glyph glyph-name="glyph439" horiz-adv-x="1980" 
d="M1544 1080q0 -30 56 -30v55q-56 0 -56 -25zM1630 700q50 0 50 25t-25 25t-25 -50zM1630 302q0 -302 -358 -302q-392 0 -392 250v250h180v-250q0 -130 212 -130q178 0 178 181v279h-170q-500 0 -500 300v320q0 300 500 300t500 -300v-150q0 -100 -168 -100t-168 130
q0 62 37 94q37 31 119 31q0 175 -320 175t-320 -180v-320q0 -180 320 -180h170q0 150 205 150q125 0 125 -125q0 -145 -150 -145v-278zM380 150q60 0 60 150q0 100 -60 100v-250zM200 963q0 106 -200 168q20 101 95.5 235t129.5 134q44 0 115 -43l70 -43q47 -29 120 -14
q-10 -70 -40.5 -114.5t-82 -50t-145 52t-156.5 -99.5q274 -88 274 -168v-520q160 0 160 -200q0 -100 -52.5 -200t-157.5 -100q-130 0 -130 100v863zM250 1800q0 -50 50 -50t75 25t25 75q0 70 -25 95t-75 25h-50q-150 0 -150 100q0 80 -100 80q0 100 100 100q78 0 114 -45
t36 -135h50q138 0 194 -50t56 -170q0 -100 -56 -150t-194 -50q-200 0 -200 140q0 80 75 80t75 -70z" />
    <glyph glyph-name="glyph440" horiz-adv-x="1980" 
d="M1600 891q-70 0 -70 -81q0 -60 70 -60v141zM780 1054q-27 14 -48 35q-52 48 -52 117t234 294q210 0 393 -174q189 174 236 174q86 0 185 -91q98 -91 152 -38q0 -83 -33 -140q-34 -57 -91 -57t-249 148q-70 1 -266 -177q-110 104 -183.5 139t-143.5 40l-100 -94
q18 -107 146 -168v-903l236 236q84 85 170 0l234 -235v490q-170 0 -170 160q0 190 170 190q180 0 180 -100v-800q0 -100 -100 -100q-90 0 -167 77l-233 233l-232 -233q-77 -77 -168 -77q-100 0 -100 100v954zM380 150q60 0 60 150q0 100 -60 100v-250zM200 963
q0 106 -200 168q20 101 95.5 235t129.5 134q44 0 115 -43l70 -43q47 -29 120 -14q-10 -70 -40.5 -114.5t-82 -50t-145 52t-156.5 -99.5q274 -88 274 -168v-520q160 0 160 -200q0 -100 -52.5 -200t-157.5 -100q-130 0 -130 100v863zM250 1800q0 -50 50 -50t75 25t25 75
q0 70 -25 95t-75 25h-50q-150 0 -150 100q0 80 -100 80q0 100 100 100q78 0 114 -45t36 -135h50q138 0 194 -50t56 -170q0 -100 -56 -150t-194 -50q-200 0 -200 140q0 80 75 80t75 -70z" />
    <glyph glyph-name="glyph441" horiz-adv-x="1980" 
d="M1544 1000q0 -50 56 -50v75q-56 0 -56 -25zM1780 250q0 -250 -295 -250q-141 0 -250 140t-275 140v-280h-180v600h180v-200q195 0 314.5 -125t210.5 -125q115 0 115 100v298l-410 121q-410 121 -410 381v150q0 300 500 300t500 -300v-250q0 -100 -168 -100t-168 150
q0 62 37 94q37 31 119 31v75q0 180 -320 180t-320 -180v-150q0 -210 410 -326l410 -117v-357zM380 150q60 0 60 150q0 100 -60 100v-250zM200 963q0 106 -200 168q20 101 95.5 235t129.5 134q44 0 115 -43l70 -43q47 -29 120 -14q-10 -70 -40.5 -114.5t-82 -50t-145 52
t-156.5 -99.5q274 -88 274 -168v-520q160 0 160 -200q0 -100 -52.5 -200t-157.5 -100q-130 0 -130 100v863zM250 1800q0 -50 50 -50t75 25t25 75q0 70 -25 95t-75 25h-50q-150 0 -150 100q0 80 -100 80q0 100 100 100q78 0 114 -45t36 -135h50q138 0 194 -50t56 -170
q0 -100 -56 -150t-194 -50q-200 0 -200 140q0 80 75 80t75 -70z" />
    <glyph glyph-name="glyph442" horiz-adv-x="1980" 
d="M1600 963q0 106 -200 168q20 101 95.5 235t129.5 134q44 0 115 -43l70 -43q47 -29 120 -14q-10 -70 -40.5 -114.5t-82 -50t-145 52t-156.5 -99.5q274 -88 274 -168v-820q-100 -200 -500 -200t-500 200v763q0 106 -200 168q20 101 95.5 235t129.5 134q44 0 115 -43l70 -43
q47 -29 120 -14q-10 -70 -40.5 -114.5t-82 -50t-145 52t-156.5 -99.5q274 -88 274 -168v-780q60 -120 320 -120t320 120v723zM380 150q60 0 60 150q0 100 -60 100v-250zM200 963q0 106 -200 168q20 101 95.5 235t129.5 134q44 0 115 -43l70 -43q47 -29 120 -14
q-10 -70 -40.5 -114.5t-82 -50t-145 52t-156.5 -99.5q274 -88 274 -168v-520q160 0 160 -200q0 -100 -52.5 -200t-157.5 -100q-130 0 -130 100v863zM250 1800q0 -50 50 -50t75 25t25 75q0 70 -25 95t-75 25h-50q-150 0 -150 100q0 80 -100 80q0 100 100 100q78 0 114 -45
t36 -135h50q138 0 194 -50t56 -170q0 -100 -56 -150t-194 -50q-200 0 -200 140q0 80 75 80t75 -70z" />
    <glyph glyph-name="glyph443" horiz-adv-x="1980" 
d="M1600 891q-70 0 -70 -81q0 -60 70 -60v141zM1780 100q0 -100 -100 -100q-90 0 -167 77l-233 233l-232 -233q-77 -77 -168 -77q-100 0 -100 100v910q-71 66 -85.5 91.5t-14.5 63.5q0 37 15 63q14 26 130.5 149t153 123t191.5 -107q204 -143 300 -143q190 0 190 140
q0 50 -50 90t-140 40q-130 0 -130 90t130 90q140 0 225 -80t85 -230q0 -142 -80.5 -203t-239.5 -61q-237 0 -361 87l-62 43q-62 43 -100.5 38t-73 -49t-34.5 -77q0 -34 131 -127v-882l236 236q84 85 170 0l234 -235v490q-170 0 -170 160q0 190 170 190q180 0 180 -100v-800z
M380 150q60 0 60 150q0 100 -60 100v-250zM200 963q0 106 -200 168q20 101 95.5 235t129.5 134q44 0 115 -43l70 -43q47 -29 120 -14q-10 -70 -40.5 -114.5t-82 -50t-145 52t-156.5 -99.5q274 -88 274 -168v-520q160 0 160 -200q0 -100 -52.5 -200t-157.5 -100
q-130 0 -130 100v863zM250 1800q0 -50 50 -50t75 25t25 75q0 70 -25 95t-75 25h-50q-150 0 -150 100q0 80 -100 80q0 100 100 100q78 0 114 -45t36 -135h50q138 0 194 -50t56 -170q0 -100 -56 -150t-194 -50q-200 0 -200 140q0 80 75 80t75 -70z" />
    <glyph glyph-name="glyph444" horiz-adv-x="1980" 
d="M960 150q120 0 120 250q0 100 -120 100v-350zM780 1200q0 122 110 211t169 89q50 0 221 -134q172 134 222 134q59 0 168 -89q110 -89 110 -211v-1200h-180v1200q0 104 -69.5 141.5t-250.5 -141.5q-180 179 -250 141.5t-70 -141.5v-600q220 0 220 -200t-62.5 -300
t-187.5 -100q-150 0 -150 100v1100zM380 150q60 0 60 150q0 100 -60 100v-250zM200 963q0 106 -200 168q20 101 95.5 235t129.5 134q44 0 115 -43l70 -43q47 -29 120 -14q-10 -70 -40.5 -114.5t-82 -50t-145 52t-156.5 -99.5q274 -88 274 -168v-520q160 0 160 -200
q0 -100 -52.5 -200t-157.5 -100q-130 0 -130 100v863zM250 1800q0 -50 50 -50t75 25t25 75q0 70 -25 95t-75 25h-50q-150 0 -150 100q0 80 -100 80q0 100 100 100q78 0 114 -45t36 -135h50q138 0 194 -50t56 -170q0 -100 -56 -150t-194 -50q-200 0 -200 140q0 80 75 80
t75 -70z" />
    <glyph glyph-name="glyph445" horiz-adv-x="1980" 
d="M780 400q-80 0 -80 -100q0 -150 80 -150v250zM680 1206q0 69 234 294q210 0 393 -174q189 174 236 174q86 0 185 -91q98 -91 152 -38q0 -83 -33 -140q-34 -57 -91 -57t-249 148q-70 1 -266 -177q-110 104 -183.5 139t-143.5 40l-100 -94q18 -107 129 -162l-78 -39
q-82 11 -133.5 59.5t-51.5 117.5zM780 900q100 200 500 200t500 -200v-900h-180v860q-60 120 -320 120t-320 -120v-760q0 -100 -150 -100q-105 0 -157.5 100t-52.5 200q0 200 180 200v400zM380 150q60 0 60 150q0 100 -60 100v-250zM200 963q0 106 -200 168q20 101 95.5 235
t129.5 134q44 0 115 -43l70 -43q47 -29 120 -14q-10 -70 -40.5 -114.5t-82 -50t-145 52t-156.5 -99.5q274 -88 274 -168v-520q160 0 160 -200q0 -100 -52.5 -200t-157.5 -100q-130 0 -130 100v863zM250 1800q0 -50 50 -50t75 25t25 75q0 70 -25 95t-75 25h-50
q-150 0 -150 100q0 80 -100 80q0 100 100 100q78 0 114 -45t36 -135h50q138 0 194 -50t56 -170q0 -100 -56 -150t-194 -50q-200 0 -200 140q0 80 75 80t75 -70z" />
    </font>
</defs>
</svg>
